<svg width="4902" height="1113" xmlns="http://www.w3.org/2000/svg" xmlns:xlink="http://www.w3.org/1999/xlink" xml:space="preserve" overflow="hidden"><g transform="translate(101 -568)"><rect x="38.9998" y="923" width="480" height="182" stroke="#064760" stroke-width="10.3125" stroke-miterlimit="8" fill="none"/><text fill="#002060" font-family="Times New Roman,Times New Roman_MSFontService,sans-serif" font-weight="400" font-size="83" transform="matrix(1 0 0 1 146.16 1045)">PDSCH</text><rect x="614" y="923" width="429" height="429" stroke="#064760" stroke-width="10.3125" stroke-miterlimit="8" fill="none"/><text fill="#002060" font-family="Times New Roman,Times New Roman_MSFontService,sans-serif" font-weight="400" font-size="83" transform="matrix(1 0 0 1 675.13 1118)">Resource </text><text fill="#002060" font-family="Times New Roman,Times New Roman_MSFontService,sans-serif" font-weight="400" font-size="83" transform="matrix(1 0 0 1 700.338 1217)">Mapper</text><path d="M1043.5 1023.2 1232.86 1023.2 1232.86 1035.8 1043.5 1035.8ZM1226.55 1010.59 1264.37 1029.5 1226.55 1048.41Z" fill="#0070C0"/><path d="M1043.5 1234.2 1234.09 1234.2 1234.09 1246.8 1043.5 1246.8ZM1227.79 1221.59 1265.6 1240.5 1227.79 1259.41Z" fill="#0070C0"/><path d="M2269 1028.84 2477.7 1028.84 2477.7 1039.16 2269 1039.16ZM2472.54 1018.53 2503.48 1034 2472.54 1049.47Z" fill="#0070C0"/><path d="M2271 888.844 2479.7 888.844 2479.7 899.157 2271 899.156ZM2474.54 878.532 2505.48 894 2474.54 909.469Z" fill="#0070C0"/><path d="M2184 1111.84 2392.7 1111.84 2392.7 1122.16 2184 1122.16ZM2387.54 1101.53 2418.48 1117 2387.54 1132.47Z" fill="#0070C0"/><path d="M2186 971.844 2394.7 971.844 2394.7 982.156 2186 982.156ZM2389.54 961.531 2420.48 977 2389.54 992.469Z" fill="#0070C0"/><path d="M2150 1131.84 2358.7 1131.84 2358.7 1142.16 2150 1142.16ZM2353.54 1121.53 2384.48 1137 2353.54 1152.47Z" fill="#0070C0"/><path d="M2152 991.844 2360.7 991.844 2360.7 1002.16 2152 1002.16ZM2355.54 981.531 2386.48 997 2355.54 1012.47Z" fill="#0070C0"/><path d="M2123 1154.84 2331.7 1154.84 2331.7 1165.16 2123 1165.16ZM2326.54 1144.53 2357.48 1160 2326.54 1175.47Z" fill="#0070C0"/><path d="M2125 1014.84 2333.7 1014.84 2333.7 1025.16 2125 1025.16ZM2328.54 1004.53 2359.48 1020 2328.54 1035.47Z" fill="#0070C0"/><path d="M2102 1177.84 2310.7 1177.84 2310.7 1188.16 2102 1188.16ZM2305.54 1167.53 2336.48 1183 2305.54 1198.47Z" fill="#0070C0"/><path d="M2104 1037.84 2312.7 1037.84 2312.7 1048.16 2104 1048.16ZM2307.54 1027.53 2338.48 1043 2307.54 1058.47Z" fill="#0070C0"/><path d="M2085 1194.84 2293.7 1194.84 2293.7 1205.16 2085 1205.16ZM2288.54 1184.53 2319.48 1200 2288.54 1215.47Z" fill="#0070C0"/><path d="M2087 1053.84 2295.7 1053.84 2295.7 1064.16 2087 1064.16ZM2290.54 1043.53 2321.48 1059 2290.54 1074.47Z" fill="#0070C0"/><path d="M2061 1214.84 2269.7 1214.84 2269.7 1225.16 2061 1225.16ZM2264.54 1204.53 2295.48 1220 2264.54 1235.47Z" fill="#0070C0"/><path d="M2063 1074.84 2271.7 1074.84 2271.7 1085.16 2063 1085.16ZM2266.54 1064.53 2297.48 1080 2266.54 1095.47Z" fill="#0070C0"/><path d="M2037 1234.84 2245.7 1234.84 2245.7 1245.16 2037 1245.16ZM2240.54 1224.53 2271.48 1240 2240.54 1255.47Z" fill="#0070C0"/><path d="M2039 1094.84 2247.7 1094.84 2247.7 1105.16 2039 1105.16ZM2242.54 1084.53 2273.48 1100 2242.54 1115.47Z" fill="#0070C0"/><path d="M2017 1256.84 2225.7 1256.84 2225.7 1267.16 2017 1267.16ZM2220.54 1246.53 2251.48 1262 2220.54 1277.47Z" fill="#0070C0"/><path d="M2019 1115.84 2227.7 1115.84 2227.7 1126.16 2019 1126.16ZM2222.54 1105.53 2253.48 1121 2222.54 1136.47Z" fill="#0070C0"/><path d="M1984 1276.84 2192.7 1276.84 2192.7 1287.16 1984 1287.16ZM2187.54 1266.53 2218.48 1282 2187.54 1297.47Z" fill="#0070C0"/><path d="M1985 1136.84 2193.7 1136.84 2193.7 1147.16 1985 1147.16ZM2188.54 1126.53 2219.48 1142 2188.54 1157.47Z" fill="#0070C0"/><path d="M1956 1299.84 2164.7 1299.84 2164.7 1310.16 1956 1310.16ZM2159.54 1289.53 2190.48 1305 2159.54 1320.47Z" fill="#0070C0"/><path d="M1958 1158.84 2166.7 1158.84 2166.7 1169.16 1958 1169.16ZM2161.54 1148.53 2192.48 1164 2161.54 1179.47Z" fill="#0070C0"/><rect x="2502" y="849" width="259" height="260" stroke="#002060" stroke-width="10.3125" stroke-miterlimit="8" fill="#FFFFFF"/><rect x="2359" y="967" width="259" height="260" stroke="#002060" stroke-width="10.3125" stroke-miterlimit="8" fill="#FFFFFF"/><rect x="2332" y="991" width="260" height="260" stroke="#002060" stroke-width="10.3125" stroke-miterlimit="8" fill="#FFFFFF"/><rect x="2305" y="1015" width="260" height="260" stroke="#002060" stroke-width="10.3125" stroke-miterlimit="8" fill="#FFFFFF"/><rect x="2278" y="1039" width="260" height="260" stroke="#002060" stroke-width="10.3125" stroke-miterlimit="8" fill="#FFFFFF"/><rect x="2252" y="1063" width="260" height="259" stroke="#002060" stroke-width="10.3125" stroke-miterlimit="8" fill="#FFFFFF"/><rect x="2225" y="1086" width="260" height="260" stroke="#002060" stroke-width="10.3125" stroke-miterlimit="8" fill="#FFFFFF"/><rect x="2198" y="1110" width="260" height="260" stroke="#002060" stroke-width="10.3125" stroke-miterlimit="8" fill="#FFFFFF"/><rect x="2172" y="1134" width="259" height="260" stroke="#002060" stroke-width="10.3125" stroke-miterlimit="8" fill="#FFFFFF"/><path d="M1935 1322.84 2143.7 1322.84 2143.7 1333.16 1935 1333.16ZM2138.54 1312.53 2169.48 1328 2138.54 1343.47Z" fill="#0070C0"/><path d="M1937 1181.84 2145.7 1181.84 2145.7 1192.16 1937 1192.16ZM2140.54 1171.53 2171.48 1187 2140.54 1202.47Z" fill="#0070C0"/><path d="M1870.29 1393.93 2320.5 1003.5 1802.13 1003.5 1352.5 1394.5 1870.29 1393.93Z" stroke="#F0466E" stroke-width="11.4583" stroke-linejoin="round" stroke-miterlimit="10" fill="none" fill-rule="evenodd"/><path d="M2230.56 1203.34C2229.49 1203.34 2228.45 1203.7 2227.42 1204.42 2226.38 1205.14 2225.25 1206.29 2224.02 1207.87 2222.8 1209.45 2221.84 1211.02 2221.15 1212.56 2220.46 1214.1 2219.92 1215.87 2219.52 1217.87L2219.27 1219.18C2219.07 1220.29 2218.94 1221.13 2218.88 1221.71 2218.83 1222.3 2218.81 1222.87 2218.81 1223.43 2218.81 1225.06 2219.16 1226.24 2219.85 1226.98 2220.55 1227.72 2221.75 1228.09 2223.46 1228.09 2224.52 1228.09 2225.5 1227.88 2226.4 1227.46 2227.3 1227.05 2228.14 1226.44 2228.95 1225.65 2229.75 1224.86 2230.47 1223.9 2231.12 1222.78 2231.76 1221.65 2232.34 1220.35 2232.85 1218.86 2233.36 1217.37 2233.75 1215.83 2234.01 1214.26 2234.27 1212.69 2234.4 1211.21 2234.4 1209.84 2234.4 1207.65 2234.09 1206.02 2233.48 1204.95 2232.86 1203.88 2231.89 1203.34 2230.56 1203.34ZM2217.4 1199.65C2218.69 1199.65 2219.72 1200.08 2220.48 1200.93 2221.24 1201.79 2221.62 1202.92 2221.62 1204.34 2221.62 1205.51 2221.38 1206.74 2220.9 1208.03L2221.27 1208.15C2225.13 1202.51 2228.96 1199.68 2232.77 1199.68 2235.05 1199.68 2236.81 1200.55 2238.07 1202.28 2239.33 1204.01 2239.96 1206.44 2239.96 1209.59 2239.96 1213.03 2239.27 1216.41 2237.88 1219.73 2236.5 1223.05 2234.58 1225.69 2232.12 1227.64 2229.66 1229.58 2226.91 1230.56 2223.87 1230.56 2221.1 1230.56 2218.8 1229.95 2216.96 1228.75L2215.52 1235.59C2215.21 1237.07 2215.06 1238.29 2215.06 1239.25 2215.06 1240.16 2215.29 1240.81 2215.76 1241.2 2216.23 1241.58 2217.14 1241.84 2218.49 1241.96L2218.24 1243.5 2208.59 1243.5 2216.12 1210.34C2216.56 1208.42 2216.77 1206.85 2216.77 1205.62 2216.77 1204.79 2216.64 1204.18 2216.37 1203.81 2216.1 1203.43 2215.67 1203.25 2215.09 1203.25 2214.44 1203.25 2213.76 1203.51 2213.04 1204.04 2212.32 1204.57 2211.34 1205.54 2210.09 1206.93L2208.31 1205.18C2210.18 1203.23 2211.77 1201.81 2213.07 1200.95 2214.37 1200.08 2215.82 1199.65 2217.4 1199.65Z" fill-rule="evenodd"/><text fill="#000000" fill-opacity="0" font-family="Arial,Arial_MSFontService,sans-serif" font-size="43.8438" x="2208.31" y="1238.02">ğ‘</text><path d="M2254.65 1215.65C2253.58 1215.65 2252.68 1215.93 2251.96 1216.49 2251.24 1217.05 2250.67 1217.87 2250.25 1218.94 2249.83 1220.02 2249.53 1221.34 2249.36 1222.89 2249.18 1224.44 2249.09 1226.21 2249.09 1228.18 2249.09 1230.46 2249.2 1232.43 2249.43 1234.09 2249.65 1235.75 2249.99 1237.12 2250.46 1238.19 2250.92 1239.26 2251.51 1240.05 2252.21 1240.55 2252.92 1241.06 2253.76 1241.31 2254.74 1241.31 2255.66 1241.31 2256.46 1241.07 2257.15 1240.6 2257.84 1240.12 2258.41 1239.38 2258.86 1238.38 2259.31 1237.38 2259.65 1236.11 2259.88 1234.57 2260.11 1233.04 2260.22 1231.22 2260.22 1229.12 2260.22 1226.77 2260.1 1224.74 2259.84 1223.04 2259.59 1221.34 2259.24 1219.95 2258.78 1218.85 2258.32 1217.76 2257.74 1216.95 2257.04 1216.43 2256.35 1215.91 2255.55 1215.65 2254.65 1215.65ZM2254.74 1213.42C2256.56 1213.42 2258.12 1213.77 2259.41 1214.45 2260.7 1215.13 2261.76 1216.1 2262.58 1217.36 2263.39 1218.62 2263.99 1220.16 2264.38 1221.98 2264.76 1223.81 2264.95 1225.86 2264.95 1228.16 2264.95 1233.25 2264.05 1237.1 2262.24 1239.71 2260.44 1242.32 2257.82 1243.63 2254.39 1243.63 2251 1243.63 2248.47 1242.39 2246.82 1239.93 2245.17 1237.47 2244.34 1233.73 2244.34 1228.73 2244.34 1226.12 2244.6 1223.85 2245.11 1221.94 2245.62 1220.03 2246.34 1218.44 2247.27 1217.18 2248.19 1215.91 2249.29 1214.97 2250.56 1214.35 2251.83 1213.73 2253.22 1213.42 2254.74 1213.42Z" fill-rule="evenodd"/><text fill="#000000" fill-opacity="0" font-family="Arial,Arial_MSFontService,sans-serif" font-size="30.2012" x="2244.34" y="1239.85">0</text><path d="M2281.57 1215.65C2280.5 1215.65 2279.61 1215.93 2278.89 1216.49 2278.17 1217.05 2277.6 1217.87 2277.18 1218.94 2276.76 1220.02 2276.46 1221.34 2276.28 1222.89 2276.11 1224.44 2276.02 1226.21 2276.02 1228.18 2276.02 1230.46 2276.13 1232.43 2276.35 1234.09 2276.57 1235.75 2276.92 1237.12 2277.39 1238.19 2277.85 1239.26 2278.44 1240.05 2279.14 1240.55 2279.84 1241.06 2280.69 1241.31 2281.67 1241.31 2282.58 1241.31 2283.39 1241.07 2284.07 1240.6 2284.76 1240.12 2285.33 1239.38 2285.78 1238.38 2286.24 1237.38 2286.58 1236.11 2286.81 1234.57 2287.04 1233.04 2287.15 1231.22 2287.15 1229.12 2287.15 1226.77 2287.02 1224.74 2286.77 1223.04 2286.52 1221.34 2286.16 1219.95 2285.7 1218.85 2285.25 1217.76 2284.67 1216.95 2283.97 1216.43 2283.28 1215.91 2282.48 1215.65 2281.57 1215.65ZM2281.67 1213.42C2283.49 1213.42 2285.04 1213.77 2286.34 1214.45 2287.63 1215.13 2288.68 1216.1 2289.5 1217.36 2290.32 1218.62 2290.92 1220.16 2291.3 1221.98 2291.69 1223.81 2291.88 1225.86 2291.88 1228.16 2291.88 1233.25 2290.98 1237.1 2289.17 1239.71 2287.36 1242.32 2284.75 1243.63 2281.32 1243.63 2277.92 1243.63 2275.4 1242.39 2273.75 1239.93 2272.1 1237.47 2271.27 1233.73 2271.27 1228.73 2271.27 1226.12 2271.53 1223.85 2272.04 1221.94 2272.55 1220.03 2273.27 1218.44 2274.2 1217.18 2275.12 1215.91 2276.22 1214.97 2277.49 1214.35 2278.76 1213.73 2280.15 1213.42 2281.67 1213.42Z" fill-rule="evenodd"/><text fill="#000000" fill-opacity="0" font-family="Arial,Arial_MSFontService,sans-serif" font-size="30.2012" x="2271.27" y="1239.85">0</text><path d="M2231.68 1299.58C2230.62 1299.58 2229.57 1299.94 2228.54 1300.66 2227.51 1301.38 2226.38 1302.53 2225.15 1304.11 2223.92 1305.69 2222.96 1307.26 2222.27 1308.8 2221.59 1310.34 2221.04 1312.11 2220.65 1314.11L2220.4 1315.42C2220.19 1316.53 2220.06 1317.37 2220.01 1317.95 2219.96 1318.54 2219.93 1319.11 2219.93 1319.67 2219.93 1321.3 2220.28 1322.48 2220.98 1323.22 2221.67 1323.96 2222.88 1324.33 2224.59 1324.33 2225.65 1324.33 2226.63 1324.12 2227.52 1323.7 2228.42 1323.29 2229.27 1322.68 2230.07 1321.89 2230.87 1321.1 2231.6 1320.14 2232.24 1319.02 2232.89 1317.89 2233.47 1316.58 2233.98 1315.09 2234.49 1313.61 2234.87 1312.07 2235.13 1310.5 2235.39 1308.93 2235.52 1307.45 2235.52 1306.08 2235.52 1303.89 2235.22 1302.26 2234.6 1301.19 2233.99 1300.12 2233.01 1299.58 2231.68 1299.58ZM2218.52 1295.89C2219.82 1295.89 2220.84 1296.32 2221.6 1297.17 2222.36 1298.03 2222.74 1299.16 2222.74 1300.58 2222.74 1301.75 2222.5 1302.97 2222.02 1304.27L2222.4 1304.39C2226.25 1298.75 2230.09 1295.92 2233.9 1295.92 2236.17 1295.92 2237.93 1296.79 2239.2 1298.52 2240.46 1300.25 2241.09 1302.68 2241.09 1305.83 2241.09 1309.27 2240.39 1312.65 2239.01 1315.97 2237.62 1319.29 2235.7 1321.93 2233.24 1323.88 2230.78 1325.82 2228.03 1326.8 2224.99 1326.8 2222.22 1326.8 2219.92 1326.19 2218.09 1324.99L2216.65 1331.83C2216.34 1333.31 2216.18 1334.53 2216.18 1335.49 2216.18 1336.4 2216.41 1337.05 2216.88 1337.44 2217.35 1337.82 2218.26 1338.08 2219.62 1338.2L2219.37 1339.74 2209.71 1339.74 2217.24 1306.58C2217.68 1304.66 2217.9 1303.09 2217.9 1301.86 2217.9 1301.03 2217.76 1300.42 2217.49 1300.05 2217.22 1299.67 2216.79 1299.49 2216.21 1299.49 2215.57 1299.49 2214.88 1299.75 2214.16 1300.28 2213.45 1300.81 2212.46 1301.78 2211.21 1303.17L2209.43 1301.42C2211.3 1299.46 2212.89 1298.05 2214.2 1297.19 2215.5 1296.32 2216.94 1295.89 2218.52 1295.89Z" fill-rule="evenodd"/><text fill="#000000" fill-opacity="0" font-family="Arial,Arial_MSFontService,sans-serif" font-size="43.8438" x="2209.43" y="1334.25">ğ‘</text><path d="M2281.28 1311.89C2280.21 1311.89 2279.31 1312.17 2278.6 1312.73 2277.88 1313.29 2277.31 1314.1 2276.89 1315.18 2276.46 1316.26 2276.17 1317.58 2275.99 1319.13 2275.81 1320.68 2275.73 1322.45 2275.73 1324.42 2275.73 1326.7 2275.84 1328.67 2276.06 1330.33 2276.28 1331.99 2276.63 1333.36 2277.09 1334.43 2277.56 1335.5 2278.14 1336.29 2278.85 1336.79 2279.55 1337.29 2280.39 1337.55 2281.37 1337.55 2282.29 1337.55 2283.09 1337.31 2283.78 1336.84 2284.47 1336.36 2285.04 1335.62 2285.49 1334.62 2285.94 1333.62 2286.28 1332.35 2286.51 1330.81 2286.74 1329.27 2286.86 1327.46 2286.86 1325.36 2286.86 1323.01 2286.73 1320.98 2286.48 1319.28 2286.23 1317.58 2285.87 1316.19 2285.41 1315.09 2284.95 1314 2284.37 1313.19 2283.68 1312.67 2282.98 1312.15 2282.18 1311.89 2281.28 1311.89ZM2256.16 1309.82 2257.56 1309.82C2257.53 1310.67 2257.51 1311.42 2257.49 1312.09 2257.48 1312.75 2257.47 1313.4 2257.46 1314.02 2257.45 1314.65 2257.45 1315.27 2257.45 1315.88L2257.45 1333.32C2257.45 1333.8 2257.46 1334.21 2257.49 1334.55 2257.52 1334.9 2257.57 1335.19 2257.64 1335.42 2257.71 1335.66 2257.8 1335.86 2257.92 1336.03 2258.03 1336.2 2258.17 1336.35 2258.32 1336.47 2258.5 1336.65 2258.75 1336.79 2259.05 1336.89 2259.36 1336.99 2259.75 1337.08 2260.22 1337.15 2260.7 1337.21 2261.27 1337.27 2261.93 1337.31 2262.6 1337.34 2263.4 1337.37 2264.33 1337.39L2264.33 1339.38 2246.13 1339.38 2246.13 1337.39C2247.04 1337.36 2247.8 1337.32 2248.43 1337.28 2249.06 1337.25 2249.59 1337.19 2250.03 1337.12 2250.48 1337.05 2250.83 1336.98 2251.1 1336.89 2251.37 1336.81 2251.6 1336.71 2251.8 1336.58 2252.02 1336.45 2252.2 1336.3 2252.35 1336.14 2252.51 1335.98 2252.63 1335.77 2252.72 1335.53 2252.81 1335.28 2252.88 1334.98 2252.94 1334.63 2252.99 1334.28 2253.02 1333.84 2253.02 1333.32L2253.02 1316.87C2253.02 1316.27 2252.9 1315.85 2252.67 1315.61 2252.44 1315.36 2252.12 1315.24 2251.69 1315.24 2251.21 1315.24 2250.51 1315.49 2249.58 1315.98 2248.64 1316.46 2247.43 1317.19 2245.95 1318.16 2245.75 1317.8 2245.57 1317.45 2245.4 1317.1 2245.23 1316.75 2245.05 1316.39 2244.87 1316.02 2246.77 1314.98 2248.65 1313.94 2250.51 1312.91 2252.36 1311.88 2254.25 1310.85 2256.16 1309.82ZM2281.37 1309.66C2283.19 1309.66 2284.75 1310 2286.04 1310.69 2287.33 1311.37 2288.39 1312.34 2289.21 1313.6 2290.03 1314.86 2290.63 1316.4 2291.01 1318.22 2291.39 1320.04 2291.58 1322.1 2291.58 1324.4 2291.58 1329.49 2290.68 1333.34 2288.88 1335.95 2287.07 1338.56 2284.45 1339.87 2281.03 1339.87 2277.63 1339.87 2275.11 1338.63 2273.45 1336.17 2271.8 1333.71 2270.98 1329.97 2270.98 1324.97 2270.98 1322.35 2271.23 1320.09 2271.74 1318.18 2272.26 1316.27 2272.98 1314.68 2273.9 1313.42 2274.83 1312.15 2275.93 1311.21 2277.2 1310.59 2278.47 1309.97 2279.86 1309.66 2281.37 1309.66Z" fill-rule="evenodd"/><text fill="#000000" fill-opacity="0" font-family="Arial,Arial_MSFontService,sans-serif" font-size="30.2012" x="2244.87" y="1336.09">10</text><path d="M2343.99 1204.45C2342.93 1204.45 2341.88 1204.81 2340.85 1205.53 2339.82 1206.25 2338.69 1207.4 2337.46 1208.98 2336.23 1210.57 2335.27 1212.13 2334.58 1213.67 2333.89 1215.21 2333.35 1216.98 2332.96 1218.98L2332.71 1220.29C2332.5 1221.4 2332.37 1222.24 2332.32 1222.83 2332.26 1223.41 2332.24 1223.98 2332.24 1224.54 2332.24 1226.17 2332.59 1227.35 2333.28 1228.09 2333.98 1228.83 2335.19 1229.2 2336.89 1229.2 2337.96 1229.2 2338.94 1228.99 2339.83 1228.58 2340.73 1228.16 2341.58 1227.56 2342.38 1226.76 2343.18 1225.97 2343.9 1225.01 2344.55 1223.89 2345.2 1222.76 2345.77 1221.46 2346.28 1219.97 2346.79 1218.48 2347.18 1216.95 2347.44 1215.37 2347.7 1213.8 2347.83 1212.33 2347.83 1210.95 2347.83 1208.76 2347.52 1207.13 2346.91 1206.06 2346.29 1204.99 2345.32 1204.45 2343.99 1204.45ZM2330.83 1200.76C2332.12 1200.76 2333.15 1201.19 2333.91 1202.04 2334.67 1202.9 2335.05 1204.03 2335.05 1205.45 2335.05 1206.62 2334.81 1207.85 2334.33 1209.14L2334.71 1209.26C2338.56 1203.62 2342.39 1200.79 2346.21 1200.79 2348.48 1200.79 2350.24 1201.66 2351.5 1203.39 2352.76 1205.12 2353.39 1207.56 2353.39 1210.7 2353.39 1214.14 2352.7 1217.52 2351.32 1220.84 2349.93 1224.16 2348.01 1226.8 2345.55 1228.75 2343.09 1230.7 2340.34 1231.67 2337.3 1231.67 2334.53 1231.67 2332.23 1231.07 2330.39 1229.86L2328.96 1236.7C2328.64 1238.18 2328.49 1239.4 2328.49 1240.36 2328.49 1241.27 2328.72 1241.93 2329.19 1242.31 2329.66 1242.7 2330.57 1242.95 2331.93 1243.08L2331.68 1244.61 2322.02 1244.61 2329.55 1211.45C2329.99 1209.53 2330.21 1207.96 2330.21 1206.73 2330.21 1205.9 2330.07 1205.29 2329.8 1204.92 2329.53 1204.54 2329.1 1204.36 2328.52 1204.36 2327.87 1204.36 2327.19 1204.62 2326.47 1205.15 2325.75 1205.69 2324.77 1206.65 2323.52 1208.04L2321.74 1206.29C2323.61 1204.34 2325.2 1202.93 2326.5 1202.06 2327.81 1201.2 2329.25 1200.76 2330.83 1200.76Z" fill-rule="evenodd"/><text fill="#000000" fill-opacity="0" font-family="Arial,Arial_MSFontService,sans-serif" font-size="43.8438" x="2321.74" y="1239.13">ğ‘</text><path d="M2368.08 1216.76C2367.01 1216.76 2366.11 1217.04 2365.39 1217.6 2364.67 1218.16 2364.1 1218.98 2363.68 1220.06 2363.26 1221.13 2362.96 1222.45 2362.79 1224 2362.61 1225.56 2362.52 1227.32 2362.52 1229.29 2362.52 1231.57 2362.63 1233.54 2362.86 1235.2 2363.08 1236.86 2363.42 1238.23 2363.89 1239.3 2364.36 1240.37 2364.94 1241.16 2365.65 1241.66 2366.35 1242.17 2367.19 1242.42 2368.17 1242.42 2369.09 1242.42 2369.89 1242.18 2370.58 1241.71 2371.27 1241.23 2371.84 1240.5 2372.29 1239.49 2372.74 1238.49 2373.08 1237.22 2373.31 1235.68 2373.54 1234.15 2373.65 1232.33 2373.65 1230.23 2373.65 1227.88 2373.53 1225.85 2373.28 1224.15 2373.02 1222.45 2372.67 1221.06 2372.21 1219.96 2371.75 1218.87 2371.17 1218.06 2370.48 1217.54 2369.78 1217.02 2368.98 1216.76 2368.08 1216.76ZM2396.96 1214.7 2398.36 1214.7C2398.33 1215.54 2398.31 1216.29 2398.29 1216.96 2398.28 1217.62 2398.26 1218.27 2398.26 1218.9 2398.25 1219.52 2398.24 1220.14 2398.24 1220.76L2398.24 1238.2C2398.24 1238.67 2398.26 1239.08 2398.29 1239.42 2398.32 1239.77 2398.37 1240.06 2398.44 1240.3 2398.51 1240.53 2398.6 1240.74 2398.72 1240.9 2398.83 1241.07 2398.96 1241.22 2399.12 1241.34 2399.3 1241.52 2399.55 1241.67 2399.85 1241.77 2400.16 1241.86 2400.55 1241.95 2401.02 1242.02 2401.5 1242.09 2402.07 1242.14 2402.73 1242.18 2403.4 1242.22 2404.2 1242.24 2405.13 1242.26L2405.13 1244.26 2386.93 1244.26 2386.93 1242.26C2387.83 1242.23 2388.6 1242.19 2389.23 1242.16 2389.85 1242.12 2390.39 1242.06 2390.83 1241.99 2391.28 1241.93 2391.63 1241.85 2391.9 1241.77 2392.17 1241.68 2392.4 1241.58 2392.6 1241.46 2392.81 1241.32 2393 1241.17 2393.15 1241.01 2393.3 1240.85 2393.43 1240.64 2393.52 1240.4 2393.61 1240.16 2393.68 1239.86 2393.74 1239.5 2393.79 1239.15 2393.82 1238.72 2393.82 1238.2L2393.82 1221.74C2393.82 1221.15 2393.7 1220.72 2393.47 1220.48 2393.24 1220.24 2392.91 1220.11 2392.48 1220.11 2392.01 1220.11 2391.31 1220.36 2390.37 1220.85 2389.44 1221.34 2388.23 1222.06 2386.75 1223.03 2386.55 1222.68 2386.36 1222.32 2386.2 1221.97 2386.03 1221.62 2385.85 1221.26 2385.67 1220.89 2387.57 1219.85 2389.44 1218.82 2391.3 1217.78 2393.16 1216.75 2395.05 1215.72 2396.96 1214.7ZM2368.17 1214.54C2369.99 1214.54 2371.55 1214.88 2372.84 1215.56 2374.13 1216.24 2375.19 1217.21 2376.01 1218.47 2376.83 1219.73 2377.43 1221.28 2377.81 1223.1 2378.19 1224.92 2378.38 1226.97 2378.38 1229.27 2378.38 1234.36 2377.48 1238.22 2375.67 1240.82 2373.87 1243.43 2371.25 1244.74 2367.83 1244.74 2364.43 1244.74 2361.9 1243.51 2360.25 1241.04 2358.6 1238.58 2357.77 1234.85 2357.77 1229.84 2357.77 1227.23 2358.03 1224.96 2358.54 1223.05 2359.05 1221.14 2359.77 1219.55 2360.7 1218.29 2361.62 1217.03 2362.72 1216.09 2363.99 1215.47 2365.26 1214.85 2366.65 1214.54 2368.17 1214.54Z" fill-rule="evenodd"/><text fill="#000000" fill-opacity="0" font-family="Arial,Arial_MSFontService,sans-serif" font-size="30.2012" x="2357.77" y="1240.96">01</text><path d="M2346.01 1303.38C2344.94 1303.38 2343.9 1303.74 2342.87 1304.46 2341.84 1305.18 2340.71 1306.33 2339.48 1307.92 2338.25 1309.5 2337.29 1311.06 2336.6 1312.6 2335.91 1314.14 2335.37 1315.92 2334.98 1317.92L2334.73 1319.23C2334.52 1320.33 2334.39 1321.18 2334.34 1321.76 2334.28 1322.34 2334.26 1322.92 2334.26 1323.48 2334.26 1325.1 2334.61 1326.29 2335.3 1327.03 2336 1327.76 2337.21 1328.13 2338.91 1328.13 2339.98 1328.13 2340.96 1327.93 2341.85 1327.51 2342.75 1327.09 2343.6 1326.49 2344.4 1325.7 2345.2 1324.91 2345.92 1323.95 2346.57 1322.82 2347.22 1321.7 2347.79 1320.39 2348.3 1318.9 2348.81 1317.41 2349.2 1315.88 2349.46 1314.31 2349.72 1312.73 2349.85 1311.26 2349.85 1309.88 2349.85 1307.7 2349.54 1306.07 2348.93 1304.99 2348.31 1303.92 2347.34 1303.38 2346.01 1303.38ZM2332.85 1299.7C2334.14 1299.7 2335.17 1300.12 2335.93 1300.98 2336.69 1301.83 2337.07 1302.97 2337.07 1304.38 2337.07 1305.55 2336.83 1306.78 2336.35 1308.07L2336.73 1308.2C2340.58 1302.55 2344.41 1299.73 2348.23 1299.73 2350.5 1299.73 2352.26 1300.59 2353.52 1302.32 2354.78 1304.05 2355.41 1306.49 2355.41 1309.63 2355.41 1313.07 2354.72 1316.45 2353.34 1319.78 2351.95 1323.1 2350.03 1325.73 2347.57 1327.68 2345.11 1329.63 2342.36 1330.6 2339.32 1330.6 2336.55 1330.6 2334.25 1330 2332.41 1328.79L2330.98 1335.63C2330.66 1337.11 2330.51 1338.33 2330.51 1339.29 2330.51 1340.21 2330.74 1340.86 2331.21 1341.24 2331.68 1341.63 2332.59 1341.88 2333.94 1342.01L2333.69 1343.54 2324.04 1343.54 2331.57 1310.38C2332.01 1308.47 2332.23 1306.89 2332.23 1305.67 2332.23 1304.83 2332.09 1304.23 2331.82 1303.85 2331.55 1303.48 2331.12 1303.29 2330.54 1303.29 2329.89 1303.29 2329.21 1303.56 2328.49 1304.09 2327.77 1304.62 2326.79 1305.58 2325.54 1306.98L2323.76 1305.23C2325.63 1303.27 2327.22 1301.86 2328.52 1300.99 2329.82 1300.13 2331.27 1299.7 2332.85 1299.7Z" fill-rule="evenodd"/><text fill="#000000" fill-opacity="0" font-family="Arial,Arial_MSFontService,sans-serif" font-size="43.8438" x="2323.76" y="1338.06">ğ‘</text><path d="M2397.49 1313.63 2398.89 1313.63C2398.86 1314.47 2398.84 1315.22 2398.82 1315.89 2398.81 1316.56 2398.79 1317.2 2398.79 1317.83 2398.78 1318.46 2398.77 1319.08 2398.77 1319.69L2398.77 1337.13C2398.77 1337.6 2398.79 1338.01 2398.82 1338.36 2398.85 1338.7 2398.9 1338.99 2398.97 1339.23 2399.04 1339.47 2399.13 1339.67 2399.25 1339.84 2399.36 1340.01 2399.49 1340.15 2399.65 1340.27 2399.83 1340.46 2400.08 1340.6 2400.38 1340.7 2400.69 1340.8 2401.08 1340.88 2401.55 1340.95 2402.03 1341.02 2402.6 1341.07 2403.26 1341.11 2403.93 1341.15 2404.73 1341.18 2405.66 1341.19L2405.66 1343.19 2387.46 1343.19 2387.46 1341.19C2388.36 1341.16 2389.13 1341.13 2389.76 1341.09 2390.38 1341.05 2390.92 1341 2391.36 1340.93 2391.81 1340.86 2392.16 1340.78 2392.43 1340.7 2392.7 1340.61 2392.93 1340.51 2393.13 1340.39 2393.34 1340.25 2393.53 1340.1 2393.68 1339.94 2393.83 1339.78 2393.96 1339.58 2394.05 1339.33 2394.14 1339.09 2394.21 1338.79 2394.27 1338.44 2394.32 1338.09 2394.35 1337.65 2394.35 1337.13L2394.35 1320.68C2394.35 1320.08 2394.23 1319.66 2394 1319.41 2393.77 1319.17 2393.44 1319.05 2393.01 1319.05 2392.54 1319.05 2391.84 1319.29 2390.9 1319.78 2389.97 1320.27 2388.76 1321 2387.28 1321.96 2387.08 1321.61 2386.89 1321.26 2386.73 1320.9 2386.56 1320.55 2386.38 1320.19 2386.2 1319.83 2388.1 1318.79 2389.97 1317.75 2391.83 1316.72 2393.69 1315.68 2395.58 1314.65 2397.49 1313.63ZM2370.49 1313.63 2371.89 1313.63C2371.86 1314.47 2371.84 1315.22 2371.82 1315.89 2371.81 1316.56 2371.79 1317.2 2371.79 1317.83 2371.78 1318.46 2371.77 1319.08 2371.77 1319.69L2371.77 1337.13C2371.77 1337.6 2371.79 1338.01 2371.82 1338.36 2371.85 1338.7 2371.9 1338.99 2371.97 1339.23 2372.04 1339.47 2372.13 1339.67 2372.25 1339.84 2372.36 1340.01 2372.49 1340.15 2372.65 1340.27 2372.83 1340.46 2373.08 1340.6 2373.38 1340.7 2373.69 1340.8 2374.08 1340.88 2374.55 1340.95 2375.03 1341.02 2375.6 1341.07 2376.26 1341.11 2376.93 1341.15 2377.73 1341.18 2378.66 1341.19L2378.66 1343.19 2360.46 1343.19 2360.46 1341.19C2361.36 1341.16 2362.13 1341.13 2362.76 1341.09 2363.38 1341.05 2363.92 1341 2364.36 1340.93 2364.81 1340.86 2365.16 1340.78 2365.43 1340.7 2365.7 1340.61 2365.93 1340.51 2366.13 1340.39 2366.34 1340.25 2366.53 1340.1 2366.68 1339.94 2366.83 1339.78 2366.96 1339.58 2367.05 1339.33 2367.14 1339.09 2367.21 1338.79 2367.27 1338.44 2367.32 1338.09 2367.35 1337.65 2367.35 1337.13L2367.35 1320.68C2367.35 1320.08 2367.23 1319.66 2367 1319.41 2366.77 1319.17 2366.44 1319.05 2366.01 1319.05 2365.54 1319.05 2364.84 1319.29 2363.9 1319.78 2362.97 1320.27 2361.76 1321 2360.28 1321.96 2360.08 1321.61 2359.89 1321.26 2359.73 1320.9 2359.56 1320.55 2359.38 1320.19 2359.2 1319.83 2361.1 1318.79 2362.97 1317.75 2364.83 1316.72 2366.69 1315.68 2368.58 1314.65 2370.49 1313.63Z" fill-rule="evenodd"/><text fill="#000000" fill-opacity="0" font-family="Arial,Arial_MSFontService,sans-serif" font-size="29.5586" x="2359.2" y="1339.49">11</text><rect x="1265" y="760" width="2820" height="748" stroke="#064760" stroke-width="10.3125" stroke-miterlimit="8" fill="none"/><rect x="3507.5" y="945.5" width="429" height="168" stroke="#00B050" stroke-width="11.4583" stroke-miterlimit="8" fill="#FFFFFF"/><text fill="#002060" font-family="Times New Roman,Times New Roman_MSFontService,sans-serif" font-weight="400" font-size="83" transform="matrix(1 0 0 1 3602.21 1059)">OFDM</text><path d="M2763 1030.84 2971.7 1030.84 2971.7 1041.16 2763 1041.16ZM2966.54 1020.53 2997.48 1036 2966.54 1051.47Z" fill="#0070C0"/><path d="M2765 890.844 2973.7 890.844 2973.7 901.157 2765 901.156ZM2968.54 880.532 2999.48 896.001 2968.54 911.469Z" fill="#0070C0"/><path d="M2679 1113.84 2887.7 1113.84 2887.7 1124.16 2679 1124.16ZM2882.54 1103.53 2913.48 1119 2882.54 1134.47Z" fill="#0070C0"/><path d="M2681 972.844 2889.7 972.844 2889.7 983.156 2681 983.156ZM2884.54 962.531 2915.48 978 2884.54 993.469Z" fill="#0070C0"/><path d="M2645 1133.84 2853.7 1133.84 2853.7 1144.16 2645 1144.16ZM2848.54 1123.53 2879.48 1139 2848.54 1154.47Z" fill="#0070C0"/><path d="M2647 993.844 2855.7 993.844 2855.7 1004.16 2647 1004.16ZM2850.54 983.531 2881.48 999 2850.54 1014.47Z" fill="#0070C0"/><path d="M2618 1156.84 2826.7 1156.84 2826.7 1167.16 2618 1167.16ZM2821.54 1146.53 2852.48 1162 2821.54 1177.47Z" fill="#0070C0"/><path d="M2620 1016.84 2828.7 1016.84 2828.7 1027.16 2620 1027.16ZM2823.54 1006.53 2854.48 1022 2823.54 1037.47Z" fill="#0070C0"/><path d="M2597 1179.84 2805.7 1179.84 2805.7 1190.16 2597 1190.16ZM2800.54 1169.53 2831.48 1185 2800.54 1200.47Z" fill="#0070C0"/><path d="M2599 1038.84 2807.7 1038.84 2807.7 1049.16 2599 1049.16ZM2802.54 1028.53 2833.48 1044 2802.54 1059.47Z" fill="#0070C0"/><path d="M2580 1195.84 2788.7 1195.84 2788.7 1206.16 2580 1206.16ZM2783.54 1185.53 2814.48 1201 2783.54 1216.47Z" fill="#0070C0"/><path d="M2582 1055.84 2790.7 1055.84 2790.7 1066.16 2582 1066.16ZM2785.54 1045.53 2816.48 1061 2785.54 1076.47Z" fill="#0070C0"/><path d="M2556 1216.84 2764.7 1216.84 2764.7 1227.16 2556 1227.16ZM2759.54 1206.53 2790.48 1222 2759.54 1237.47Z" fill="#0070C0"/><path d="M2558 1076.84 2766.7 1076.84 2766.7 1087.16 2558 1087.16ZM2761.54 1066.53 2792.48 1082 2761.54 1097.47Z" fill="#0070C0"/><path d="M2532 1236.84 2740.7 1236.84 2740.7 1247.16 2532 1247.16ZM2735.54 1226.53 2766.48 1242 2735.54 1257.47Z" fill="#0070C0"/><path d="M2534 1096.84 2742.7 1096.84 2742.7 1107.16 2534 1107.16ZM2737.54 1086.53 2768.48 1102 2737.54 1117.47Z" fill="#0070C0"/><path d="M2512 1258.84 2720.7 1258.84 2720.7 1269.16 2512 1269.16ZM2715.54 1248.53 2746.48 1264 2715.54 1279.47Z" fill="#0070C0"/><path d="M2514 1117.84 2722.7 1117.84 2722.7 1128.16 2514 1128.16ZM2717.54 1107.53 2748.48 1123 2717.54 1138.47Z" fill="#0070C0"/><path d="M2478 1278.84 2686.7 1278.84 2686.7 1289.16 2478 1289.16ZM2681.54 1268.53 2712.48 1284 2681.54 1299.47Z" fill="#0070C0"/><path d="M2480 1138.84 2688.7 1138.84 2688.7 1149.16 2480 1149.16ZM2683.54 1128.53 2714.48 1144 2683.54 1159.47Z" fill="#0070C0"/><path d="M2451 1301.84 2659.7 1301.84 2659.7 1312.16 2451 1312.16ZM2654.54 1291.53 2685.48 1307 2654.54 1322.47Z" fill="#0070C0"/><path d="M2453 1160.84 2661.7 1160.84 2661.7 1171.16 2453 1171.16ZM2656.54 1150.53 2687.48 1166 2656.54 1181.47Z" fill="#0070C0"/><path d="M2430 1324.84 2638.7 1324.84 2638.7 1335.16 2430 1335.16ZM2633.54 1314.53 2664.48 1330 2633.54 1345.47Z" fill="#0070C0"/><path d="M2432 1183.84 2640.7 1183.84 2640.7 1194.16 2432 1194.16ZM2635.54 1173.53 2666.48 1189 2635.54 1204.47Z" fill="#0070C0"/><path d="M2667.5 1124.95 2998.5 836.5C2997.93 922.54 2997.35 1008.58 2996.78 1094.62L2668.65 1382.5C2668.26 1296.65 2667.88 1210.8 2667.5 1124.95Z" stroke="#64508C" stroke-width="11.4583" stroke-linejoin="bevel" stroke-miterlimit="10" fill="#FFFFFF" fill-rule="evenodd"/><rect x="2670.5" y="1125.5" width="260" height="260" stroke="#64508C" stroke-width="11.4583" stroke-miterlimit="8" fill="#FFFFFF"/><text fill="#002060" font-family="Times New Roman,Times New Roman_MSFontService,sans-serif" font-weight="400" font-size="55" transform="matrix(1 0 0 1 2715.12 1242)">Parallel </text><text fill="#002060" font-family="Times New Roman,Times New Roman_MSFontService,sans-serif" font-weight="400" font-size="55" transform="matrix(1 0 0 1 2706.82 1308)">to Serial</text><rect x="2999.5" y="836.5" width="259" height="260" stroke="#64508C" stroke-width="11.4583" stroke-miterlimit="8" fill="#FFFFFF"/><path d="M2927.5 1126.95 3258.5 838.5C3257.93 924.54 3257.35 1010.58 3256.78 1096.62L2928.65 1384.5C2928.26 1298.65 2927.88 1212.8 2927.5 1126.95Z" stroke="#64508C" stroke-width="11.4583" stroke-linejoin="bevel" stroke-miterlimit="10" fill="#FFFFFF" fill-rule="evenodd"/><path d="M3010.12 1162.85 3309.82 1170.05 3309.57 1180.36 3009.88 1173.15ZM3304.91 1159.62 3335.47 1175.83 3304.17 1190.55Z" fill="#0070C0"/><rect x="3337.5" y="1096.5" width="429" height="169" stroke="#00B050" stroke-width="11.4583" stroke-miterlimit="8" fill="#FFFFFF"/><text fill="#002060" font-family="Times New Roman,Times New Roman_MSFontService,sans-serif" font-weight="400" font-size="83" transform="matrix(1 0 0 1 3432.13 1211)">OFDM</text><path d="M3177.12 1016.85 3476.82 1024.05 3476.57 1034.36 3176.88 1027.15ZM3471.91 1013.62 3502.47 1029.83 3471.17 1044.55Z" fill="#0070C0"/><path d="M3937 1012.84 4058.5 1012.84 4058.5 1023.16 3937 1023.16ZM4053.34 1002.53 4084.28 1018 4053.34 1033.47Z" fill="#0070C0"/><path d="M3759 1171.84 4058.69 1171.84 4058.69 1182.16 3759 1182.16ZM4053.53 1161.53 4084.47 1177 4053.53 1192.47Z" fill="#0070C0"/><path d="M1266 1021.84 1565.69 1021.84 1565.69 1032.16 1266 1032.16ZM1560.53 1011.53 1591.47 1027 1560.53 1042.47Z" fill="#0070C0"/><path d="M1264 1234.84 1497 1234.84 1497 1245.16 1264 1245.16ZM1491.84 1224.53 1522.78 1240 1491.84 1255.47Z" fill="#0070C0"/><path d="M1870.29 1245.93 2320.5 855.5 1802.13 855.5 1352.5 1246.5 1870.29 1245.93Z" stroke="#F0466E" stroke-width="11.4583" stroke-linejoin="round" stroke-miterlimit="10" fill="#FFFFFF" fill-rule="evenodd"/><text fill="#002060" font-family="Times New Roman,Times New Roman_MSFontService,sans-serif" font-weight="400" font-size="83" transform="matrix(1 0 0 1 2507.92 723)">Precoding</text><text fill="#002060" font-family="Times New Roman,Times New Roman_MSFontService,sans-serif" font-weight="400" font-size="83" transform="matrix(1 0 0 1 3384.9 732)">OFDM</text><text fill="#002060" font-family="Times New Roman,Times New Roman_MSFontService,sans-serif" font-weight="400" font-size="83" transform="matrix(1 0 0 1 1616.85 734)">Ports/Layers</text><rect x="37.0001" y="1172" width="481" height="182" stroke="#064760" stroke-width="10.3125" stroke-miterlimit="8" fill="none"/><text fill="#002060" font-family="Times New Roman,Times New Roman_MSFontService,sans-serif" font-weight="400" font-size="83" transform="matrix(1 0 0 1 85.3263 1293)">SSB/PBCH</text><path d="M518.5 1017.2 590.927 1017.2 590.926 1029.8 518.5 1029.8ZM584.624 1004.59 622.437 1023.5 584.624 1042.41Z" fill="#0070C0"/><path d="M517.5 1256.2 589.926 1256.2 589.926 1268.8 517.5 1268.8ZM583.624 1243.59 621.437 1262.5 583.624 1281.41Z" fill="#0070C0"/><path d="M4245.5 979.668C4245.5 952.513 4267.51 930.5 4294.67 930.5L4491.33 930.5C4518.49 930.5 4540.5 952.513 4540.5 979.668L4540.5 1287.33C4540.5 1314.49 4518.49 1336.5 4491.33 1336.5L4294.67 1336.5C4267.51 1336.5 4245.5 1314.49 4245.5 1287.33Z" stroke="#002060" stroke-width="11.4583" stroke-linejoin="round" stroke-miterlimit="10" fill="#F0466E" fill-rule="evenodd"/><text fill="#FFFFFF" font-family="Times New Roman,Times New Roman_MSFontService,sans-serif" font-weight="400" font-size="110" transform="matrix(1 0 0 1 4303.53 1173)">API</text><path d="M0.0426661-6.30194 128.715-5.43079 128.629 7.17309-0.0426661 6.30194ZM122.498-18.0773 160.182 1.08448 122.242 19.7343Z" fill="#0070C0" transform="matrix(1 0 0 -1 4085.5 1134.58)"/><path d="M4540.5 1127.2 4662.84 1127.2 4662.84 1139.8 4540.5 1139.8ZM4656.54 1114.59 4694.35 1133.5 4656.54 1152.41Z" fill="#0070C0"/></g></svg>