<svg width="3398" height="2154" xmlns="http://www.w3.org/2000/svg" xmlns:xlink="http://www.w3.org/1999/xlink" xml:space="preserve" overflow="hidden"><defs><filter id="fx0" x="-10%" y="-10%" width="120%" height="120%" filterUnits="userSpaceOnUse" primitiveUnits="userSpaceOnUse"><feComponentTransfer color-interpolation-filters="sRGB"><feFuncR type="discrete" tableValues="0 0"/><feFuncG type="discrete" tableValues="0 0"/><feFuncB type="discrete" tableValues="0 0"/><feFuncA type="linear" slope="0.4" intercept="0"/></feComponentTransfer><feGaussianBlur stdDeviation="6.11111 6.11111"/></filter><filter id="fx1" x="-10%" y="-10%" width="120%" height="120%" filterUnits="userSpaceOnUse" primitiveUnits="userSpaceOnUse"><feComponentTransfer color-interpolation-filters="sRGB"><feFuncR type="discrete" tableValues="0 0"/><feFuncG type="discrete" tableValues="0 0"/><feFuncB type="discrete" tableValues="0 0"/><feFuncA type="linear" slope="0.4" intercept="0"/></feComponentTransfer><feGaussianBlur stdDeviation="6.11111 6.11111"/></filter><clipPath id="clip2"><rect x="444" y="114" width="3398" height="2154"/></clipPath></defs><g clip-path="url(#clip2)" transform="translate(-444 -114)"><path d="M855.832 1823.71 1247.83 1822.71" stroke="#002060" stroke-width="10.4186" stroke-linejoin="round" stroke-miterlimit="10" fill="none" fill-rule="evenodd"/><path d="M785.832 821.316 1318.83 821.316" stroke="#002060" stroke-width="10.4186" stroke-linejoin="round" stroke-miterlimit="10" fill="none" fill-rule="evenodd"/><path d="M856.833 1821.93C841.824 1822.34 826.815 1822.75 813.583 1817.05 800.351 1811.35 786.23 1798.54 777.442 1787.75 768.653 1776.97 764.704 1764.97 760.853 1752.35 757.002 1739.74 758.779 1753.47 754.335 1712.07 749.892 1670.67 738.042 1586.14 734.191 1503.94 730.34 1421.75 730.538 1293.79 731.229 1218.92 731.92 1144.05 735.08 1105.49 738.338 1054.74 741.597 1003.98 746.238 949.451 750.78 914.356 755.323 879.263 760.853 859.426 765.593 844.169 770.333 828.907 775.368 826.979 779.22 822.804 783.071 818.634 786.724 822.5 788.699 819.144" stroke="#002060" stroke-width="10.4186" stroke-linejoin="round" stroke-miterlimit="10" fill="none" fill-rule="evenodd"/><path d="M0.254063 127.415C-0.153015 112.286-0.559731 97.1574 5.13683 83.8206 10.8334 70.4841 23.6505 56.2511 34.433 47.3928 45.2159 38.5349 57.2196 34.5538 69.8329 30.6719 82.4469 26.7903 68.7142 28.5817 110.116 24.1032 151.517 19.6242 236.049 7.68055 318.242 3.799 400.434-0.0825476 528.402 0.11658 603.269 0.813166 678.141 1.50975 716.695 4.69471 767.451 7.97924 818.211 11.2638 872.737 15.9415 907.831 20.52 942.925 25.0984 962.761 30.6719 978.019 35.4495 993.28 40.2267 995.213 45.3027 999.383 49.1842 1003.55 53.0658 999.688 56.7486 1003.04 58.7395" stroke="#002060" stroke-width="10.4186" stroke-linejoin="round" stroke-miterlimit="10" fill="none" fill-rule="evenodd" transform="matrix(-1.83697e-16 -1 -1 1.83697e-16 1375 1822)"/><path d="M1159.43 811.799 1182.95 811.799C1186.95 811.799 1190.19 814.932 1190.19 818.799L1190.19 825.799 1152.19 825.799 1152.19 818.799C1152.19 814.932 1155.43 811.799 1159.43 811.799Z" stroke="#000000" stroke-width="2.6024" stroke-linejoin="round" stroke-miterlimit="10" fill-rule="evenodd"/><path d="M7.69933 0.331976 31.9644 0.331976C35.7572 0.331976 38.8318 3.24201 38.8318 6.83183L38.8318 13.3317 0.831977 13.3317 0.831977 6.83183C0.831977 3.24201 3.90655 0.331976 7.69933 0.331976Z" stroke="#000000" stroke-width="2.6024" stroke-linejoin="round" stroke-miterlimit="10" fill-rule="evenodd" transform="matrix(-1 1.22465e-16 1.22465e-16 1 1192.5 812.5)"/><path d="M0.855271 0.336934 56.8557 0.336934 56.8557 7.33751 0.855271 7.33751Z" stroke="#000000" stroke-width="2.6024" stroke-linejoin="round" stroke-miterlimit="10" fill-rule="evenodd" transform="matrix(-1.83697e-16 -1 -1 1.83697e-16 1176.5 811.5)"/><path d="M8.06096 0.152133 31.5852 0.152133C35.5824 0.152133 38.8233 3.28615 38.8233 7.15236L38.8233 14.1526 0.822796 14.1526 0.822796 7.15236C0.822796 3.28615 4.06334 0.152133 8.06096 0.152133Z" stroke="#000000" stroke-width="2.6024" stroke-linejoin="round" stroke-miterlimit="10" fill-rule="evenodd" transform="matrix(-1 1.22465e-16 1.22465e-16 1 953.5 810.5)"/><path d="M919.75 811.807 944.632 811.807C948.255 811.807 951.191 814.716 951.191 818.307L951.191 824.807 913.191 824.807 913.191 818.307C913.191 814.716 916.127 811.807 919.75 811.807Z" stroke="#000000" stroke-width="2.6024" stroke-linejoin="round" stroke-miterlimit="10" fill-rule="evenodd"/><path d="M929.201 810.814 929.201 754.814 936.202 754.814 936.202 810.814Z" stroke="#000000" stroke-width="2.6024" stroke-linejoin="round" stroke-miterlimit="10" fill-rule="evenodd"/><path d="M847.19 1409.81 847.19 1244.81 1018.19 1244.81 1018.19 1409.81Z" stroke="#002060" stroke-width="5.20515" stroke-miterlimit="8" fill="#05D7A0" fill-rule="evenodd"/><text font-family="Times New Roman,Times New Roman_MSFontService,sans-serif" font-weight="400" font-size="50" transform="matrix(1 -2.44929e-16 2.44929e-16 1 884.716 1346)">DFE</text><path d="M847.19 1216.81 847.19 1144.81 1018.19 1144.81 1018.19 1216.81Z" stroke="#002060" stroke-width="5.20515" stroke-miterlimit="8" fill="none" fill-rule="evenodd"/><text font-family="Times New Roman,Times New Roman_MSFontService,sans-serif" font-weight="400" font-size="50" transform="matrix(1 -2.44929e-16 2.44929e-16 1 878.987 1199)">DAC</text><path d="M847.19 1118.81 847.19 874.812 1018.19 874.812 1018.19 1118.81Z" stroke="#002060" stroke-width="5.20515" stroke-miterlimit="8" fill="#FABE0F" fill-rule="evenodd"/><text font-family="Times New Roman,Times New Roman_MSFontService,sans-serif" font-weight="400" font-size="55" transform="matrix(1 -2.44929e-16 2.44929e-16 1 882.138 1016)">RFE</text><path d="M1087.19 1409.81 1087.19 1244.81 1258.19 1244.81 1258.19 1409.81Z" stroke="#002060" stroke-width="5.20515" stroke-miterlimit="8" fill="#05D7A0" fill-rule="evenodd"/><text font-family="Times New Roman,Times New Roman_MSFontService,sans-serif" font-weight="400" font-size="50" transform="matrix(1 -2.44929e-16 2.44929e-16 1 1124.51 1346)">DFE</text><path d="M1087.19 1216.81 1087.19 1144.81 1258.19 1144.81 1258.19 1216.81Z" stroke="#002060" stroke-width="5.20515" stroke-miterlimit="8" fill="none" fill-rule="evenodd"/><text font-family="Times New Roman,Times New Roman_MSFontService,sans-serif" font-weight="400" font-size="50" transform="matrix(1 -2.44929e-16 2.44929e-16 1 1118.78 1198)">ADC</text><path d="M1087.19 1118.81 1087.19 874.812 1258.19 874.812 1258.19 1118.81Z" stroke="#002060" stroke-width="5.20515" stroke-miterlimit="8" fill="#FABE0F" fill-rule="evenodd"/><text font-family="Times New Roman,Times New Roman_MSFontService,sans-serif" font-weight="400" font-size="50" transform="matrix(1 -2.44929e-16 2.44929e-16 1 1125.94 1015)">RFE</text><path d="M899.19 1778.81 899.19 1522.81 1206.19 1522.81 1206.19 1778.81Z" stroke="#002060" stroke-width="6.76673" stroke-linejoin="round" stroke-miterlimit="10" fill="none" fill-rule="evenodd"/><text font-family="Times New Roman,Times New Roman_MSFontService,sans-serif" font-weight="400" font-size="55" transform="matrix(1 -2.44929e-16 2.44929e-16 1 975.579 1604)">Digital </text><text font-family="Times New Roman,Times New Roman_MSFontService,sans-serif" font-weight="400" font-size="55" transform="matrix(1 -2.44929e-16 2.44929e-16 1 981.881 1670)">Signal </text><text font-family="Times New Roman,Times New Roman_MSFontService,sans-serif" font-weight="400" font-size="55" transform="matrix(1 -2.44929e-16 2.44929e-16 1 945.489 1736)">Processor</text><path d="M928.698 1245.32 928.702 1231.19 934.702 1231.19 934.702 1245.32ZM922.702 1234.37 931.7 1215.32 940.702 1234.37Z" fill="#F0466E" fill-rule="evenodd"/><path d="M0.572023 5.15559 16.7836 5.15594 16.7836 10.156 0.572023 10.156ZM14.2261 0.155548 29.5719 7.65579 14.2261 15.156Z" fill="#F0466E" fill-rule="evenodd" transform="matrix(-1.83697e-16 -1 -1 1.83697e-16 940 1144)"/><path d="M1169.02 1128.72 1169.02 1118.31 1175.35 1118.31 1175.35 1128.72ZM1181.69 1125.61 1172.18 1144.31 1162.69 1125.61Z" fill="#64508C" fill-rule="evenodd"/><path d="M1169.02 1229.37 1169.02 1216.32 1175.35 1216.32 1175.35 1229.37ZM1181.69 1226.19 1172.18 1245.32 1162.69 1226.19Z" fill="#64508C" fill-rule="evenodd"/><path d="M0.809529 4.97037 38.0124 5.16957 37.9844 10.1697 0.781895 9.97052ZM35.4839 0.155551 50.7821 7.73807 35.4 15.156Z" fill="#F0466E" fill-rule="evenodd" transform="matrix(-1.83697e-16 -1 -1 1.83697e-16 940 874)"/><path d="M1169.65 861.238 1170.39 824.311 1175.39 824.42 1174.65 861.348ZM1179.7 858.852 1171.89 874.311 1164.7 858.525Z" fill="#64508C" fill-rule="evenodd"/><path d="M1047.02 1877.31 1047.02 1804.31 1057.36 1804.31 1057.36 1877.31ZM1036.69 1809.51 1052.19 1778.31 1067.69 1809.51Z" fill="#002060" fill-rule="evenodd"/><path d="M944.804 755.803C944.804 762.43 939.431 767.804 932.804 767.804 926.177 767.804 920.804 762.43 920.804 755.803 920.804 749.177 926.177 743.803 932.804 743.803 939.431 743.803 944.804 749.177 944.804 755.803Z" stroke="#000000" stroke-width="2.6024" stroke-linejoin="round" stroke-miterlimit="10" fill-rule="evenodd"/><path d="M953.312 732.635C948.005 727.398 940.77 724.301 932.812 724.301 924.853 724.301 917.619 727.398 912.312 732.635L919.063 739.301C922.443 735.966 927.263 733.826 932.812 733.826 938.36 733.826 942.943 735.966 946.56 739.301L953.312 732.635Z" fill-rule="evenodd"/><path d="M959.562 726.312 966.312 719.555C957.632 710.621 945.575 705.311 932.312 705.311 919.05 705.311 906.992 710.621 898.312 719.555L905.062 726.312C912.058 719.313 921.701 714.967 932.312 714.967 942.923 714.967 952.566 719.313 959.562 726.312Z" fill-rule="evenodd"/><path d="M973.593 712.306 980.311 705.689C968.075 693.635 951.284 686.306 932.811 686.306 914.339 686.306 897.548 693.635 885.311 705.689L892.029 712.306C902.343 702.143 916.738 695.76 932.811 695.76 948.884 695.76 963.038 702.143 973.593 712.306Z" fill-rule="evenodd"/><path d="M943.813 709.53 936.91 709.53 936.91 754.807 929.715 754.807 929.715 709.53 922.812 709.53 933.313 687.807Z" stroke="#FFFFFF" stroke-width="2.6024" stroke-miterlimit="8" fill="#F0466E" fill-rule="evenodd"/><path d="M0.88563 12.6175C0.88563 5.83888 6.48271 0.34357 13.3869 0.34357 20.2912 0.34357 25.8879 5.83888 25.8879 12.6175 25.8879 19.3962 20.2912 24.8915 13.3869 24.8915 6.48271 24.8915 0.88563 19.3962 0.88563 12.6175Z" stroke="#000000" stroke-width="2.6024" stroke-linejoin="round" stroke-miterlimit="10" fill-rule="evenodd" transform="matrix(0.860749 -0.50903 -0.50903 -0.860749 1164.54 758.892)"/><path d="M7.55673 41.232C12.7954 35.9373 15.8908 28.7173 15.8908 20.7755 15.8908 12.8333 12.7954 5.61332 7.55673 0.318668L0.8896 7.05761C4.22316 10.4269 6.36614 15.2401 6.36614 20.7755 6.36614 26.3105 4.22316 30.883 0.8896 34.493L7.55673 41.232Z" fill-rule="evenodd" transform="matrix(-0.50903 -0.860749 -0.860749 0.50903 1178.6 718.363)"/><path d="M0.887074 61.3033 7.61736 68.0286C16.5108 59.382 21.7986 47.3722 21.7986 34.1621 21.7986 20.9512 16.5108 8.94183 7.61736 0.294849L0.887074 7.02044C7.85771 13.986 12.1841 23.5937 12.1841 34.1621 12.1841 44.7304 7.85771 54.3378 0.887074 61.3033Z" fill-rule="evenodd" transform="matrix(-0.50903 -0.860749 -0.860749 0.50903 1183.39 699.682)"/><path d="M0.884908 88.9849 7.59642 95.7346C19.8206 83.4398 27.251 66.5648 27.251 48.0027 27.251 29.4405 19.8206 12.5656 7.59642 0.27103L0.884908 7.02116C11.1916 17.3871 17.6632 31.8513 17.6632 48.0027 17.6632 64.1544 11.1916 78.3775 0.884908 88.9849Z" fill-rule="evenodd" transform="matrix(-0.50903 -0.860749 -0.860749 0.50903 1188.19 681.002)"/><path d="M1148.7 728.681 1154.49 725.259 1130.25 684.275 1136.28 680.707 1160.52 721.691 1166.31 718.268 1168.44 741.967Z" stroke="#FFFFFF" stroke-width="2.6024" stroke-miterlimit="8" fill="#64508C" fill-rule="evenodd"/><path d="M1172.5 826.814 1172.5 750.813" stroke="#FFFFFF" stroke-width="4.68438" stroke-linejoin="round" stroke-miterlimit="10" fill="none" fill-rule="evenodd"/><path d="M0.283226 0.156635 56.7835 0.156635C58.5158 0.156635 59.9199 1.55267 59.9199 3.27493L59.9199 122.802 56.7835 119.684 97.6012 119.684 97.6012 125.92 56.7835 125.92C55.0515 125.92 53.6473 124.524 53.6473 122.802L53.6473 3.27493 56.7835 6.39322 0.283226 6.39322ZM94.4648 113.447 113.284 122.802 94.4648 132.157Z" fill="#F0466E" fill-rule="evenodd" transform="matrix(-1.83697e-16 -1 -1 1.83697e-16 1055 1522)"/><path d="M1048.91 1506.63 1048.91 1465.81C1048.91 1464.08 1050.31 1462.68 1052.03 1462.68L1171.58 1462.68 1168.46 1465.81 1168.46 1409.31 1174.69 1409.31 1174.69 1465.81C1174.69 1467.54 1173.3 1468.95 1171.58 1468.95L1052.03 1468.95 1055.14 1465.81 1055.14 1506.63ZM1061.37 1503.49 1052.03 1522.31 1042.69 1503.49Z" fill="#64508C" fill-rule="evenodd"/><path d="M0.591749 6.15562 14.7167 6.15562 14.7167 12.1557 0.591749 12.1553ZM11.542 0.155545 30.592 9.15565 11.5417 18.1554Z" fill="#F0466E" fill-rule="evenodd" transform="matrix(-1.83697e-16 -1 -1 1.83697e-16 941 1144)"/><path d="M0.831449 6.31928 36.1682 6.51492 36.1339 12.8481 0.797121 12.6525ZM33.0733 0.164189 51.797 9.76799 32.9707 19.1641Z" fill="#F0466E" fill-rule="evenodd" transform="matrix(-1.83697e-16 -1 -1 1.83697e-16 942 875)"/><path d="M1168.96 859.627 1169.68 825.31 1176.01 825.438 1175.29 859.759ZM1181.69 856.764 1171.79 875.311 1162.69 856.373Z" fill="#64508C" fill-rule="evenodd"/><path d="M0-3.4375 117.558-3.4375 117.558 483.159 75.926 483.159 75.926 476.284 114.12 476.284 110.683 479.722 110.683 0 114.12 3.4375 0 3.4375ZM80.5093 493.472 53.0093 479.722 80.5093 465.972Z" fill="#F0466E" transform="matrix(1 -1.22465e-16 -1.22465e-16 -1 1211.5 1657.22)"/><path d="M1258 1184.5C1254.41 1184.5 1251.5 1181.59 1251.5 1178 1251.5 1174.41 1254.41 1171.5 1258 1171.5 1261.59 1171.5 1264.5 1174.41 1264.5 1178 1264.5 1181.59 1261.59 1184.5 1258 1184.5Z" stroke="#064760" stroke-width="0" stroke-linejoin="round" stroke-miterlimit="10" fill="none" fill-rule="evenodd"/><path d="M1018 1184.5C1014.41 1184.5 1011.5 1181.59 1011.5 1178 1011.5 1174.41 1014.41 1171.5 1018 1171.5 1021.59 1171.5 1024.5 1174.41 1024.5 1178 1024.5 1181.59 1021.59 1184.5 1018 1184.5Z" stroke="#064760" stroke-width="0" stroke-linejoin="round" stroke-miterlimit="10" fill="none" fill-rule="evenodd"/><path d="M1088 1184.5C1084.41 1184.5 1081.5 1181.59 1081.5 1178 1081.5 1174.41 1084.41 1171.5 1088 1171.5 1091.59 1171.5 1094.5 1174.41 1094.5 1178 1094.5 1181.59 1091.59 1184.5 1088 1184.5Z" stroke="#064760" stroke-width="0" stroke-linejoin="round" stroke-miterlimit="10" fill="none" fill-rule="evenodd"/><path d="M1024.5 1177.5 1081.15 1177.5" stroke="#002060" stroke-width="3.4375" stroke-linejoin="round" stroke-miterlimit="10" stroke-dasharray="3.4375 3.4375" fill="none" fill-rule="evenodd"/><path d="M931.244 824.814 932.243 748.814" stroke="#FFFFFF" stroke-width="2.6024" stroke-linejoin="round" stroke-miterlimit="10" fill="none" fill-rule="evenodd"/><g filter="url(#fx0)" transform="translate(613 113)"><g><path d="M0 0 639.375 349.445" stroke="#002060" stroke-width="46" stroke-linejoin="round" stroke-miterlimit="10" fill="none" fill-rule="evenodd" transform="matrix(1 0 0 -1 30.9998 392.195)"/></g></g><path d="M0 0 639.375 349.445" stroke="#002060" stroke-width="45.8333" stroke-linejoin="round" stroke-miterlimit="10" fill="none" fill-rule="evenodd" transform="matrix(1 0 0 -1 644 491.445)"/><path d="M928.755 686.554 928.044 386.926 936.065 386.907 936.776 686.534ZM918.315 391.533 932 364 945.815 391.467Z" fill="#F0466E"/><path d="M944.424 364.912 1123.01 657.712 1116.16 661.888 937.576 369.088ZM1128.93 648.727 1131.52 679.365 1105.46 663.047Z" fill="#64508C"/><g filter="url(#fx1)" transform="translate(2464 113)"><g><path d="M20 42.75 693.179 42.7503" stroke="#002060" stroke-width="46" stroke-linejoin="round" stroke-miterlimit="10" fill="none" fill-rule="evenodd"/></g></g><path d="M2484 142 3157.18 142" stroke="#002060" stroke-width="45.8333" stroke-linejoin="round" stroke-miterlimit="10" fill="none" fill-rule="evenodd"/><path d="M2010.83 1824.71 2403.83 1823.71" stroke="#002060" stroke-width="10.4186" stroke-linejoin="round" stroke-miterlimit="10" fill="none" fill-rule="evenodd"/><path d="M1940.83 821.316 2473.83 821.316" stroke="#002060" stroke-width="10.4186" stroke-linejoin="round" stroke-miterlimit="10" fill="none" fill-rule="evenodd"/><path d="M2011.83 1822.93C1996.82 1823.34 1981.81 1823.75 1968.58 1818.05 1955.35 1812.35 1941.23 1799.54 1932.44 1788.75 1923.65 1777.97 1919.7 1765.97 1915.85 1753.35 1912 1740.74 1913.78 1754.47 1909.34 1713.07 1904.89 1671.67 1893.04 1587.14 1889.19 1504.94 1885.34 1422.76 1885.54 1294.79 1886.23 1219.92 1886.92 1145.05 1890.08 1106.49 1893.34 1055.74 1896.6 1004.98 1901.24 950.451 1905.78 915.356 1910.32 880.263 1915.85 860.426 1920.59 845.169 1925.33 829.907 1930.37 827.979 1934.22 823.804 1938.07 819.634 1941.72 823.5 1943.7 820.143" stroke="#002060" stroke-width="10.4186" stroke-linejoin="round" stroke-miterlimit="10" fill="none" fill-rule="evenodd"/><path d="M0.254063 126.412C-0.153015 111.402-0.559732 96.3927 5.13683 83.1608 10.8334 69.9293 23.6506 55.8083 34.4331 47.0198 45.2159 38.2316 57.2197 34.2818 69.8329 30.4304 82.4469 26.5794 68.7142 28.3568 110.116 23.9134 151.517 19.4698 236.049 7.62009 318.242 3.7691 400.434-0.0818978 528.402 0.115663 603.269 0.806765 678.141 1.49787 716.695 4.65776 767.451 7.91643 818.211 11.1751 872.737 15.816 907.831 20.3584 942.925 24.9009 962.761 30.4304 978.019 35.1704 993.28 39.9101 995.213 44.9461 999.383 48.7971 1003.55 52.6481 999.688 56.3019 1003.04 58.2771" stroke="#002060" stroke-width="10.4186" stroke-linejoin="round" stroke-miterlimit="10" fill="none" fill-rule="evenodd" transform="matrix(-1.83697e-16 -1 -1 1.83697e-16 2530 1823)"/><path d="M2314.43 811.821 2337.95 811.821C2341.95 811.821 2345.19 815.177 2345.19 819.321L2345.19 826.821 2307.19 826.821 2307.19 819.321C2307.19 815.177 2310.43 811.821 2314.43 811.821Z" stroke="#000000" stroke-width="2.6024" stroke-linejoin="round" stroke-miterlimit="10" fill-rule="evenodd"/><path d="M7.49678 0.357514 31.1235 0.357514C34.8165 0.357514 37.8102 3.49141 37.8102 7.35738L37.8102 14.3573 0.81009 14.3573 0.81009 7.35738C0.81009 3.49141 3.80378 0.357514 7.49678 0.357514Z" stroke="#000000" stroke-width="2.6024" stroke-linejoin="round" stroke-miterlimit="10" fill-rule="evenodd" transform="matrix(-1 1.22465e-16 1.22465e-16 1 2347.5 812.5)"/><path d="M0.839998 0.336934 55.8404 0.336934 55.8404 7.33751 0.839998 7.33751Z" stroke="#000000" stroke-width="2.6024" stroke-linejoin="round" stroke-miterlimit="10" fill-rule="evenodd" transform="matrix(-1.83697e-16 -1 -1 1.83697e-16 2331.5 811.5)"/><path d="M8.06096 0.162996 31.5852 0.162996C35.5824 0.162996 38.8233 3.5208 38.8233 7.66307L38.8233 15.1631 0.822796 15.1631 0.822796 7.66307C0.822796 3.5208 4.06334 0.162996 8.06096 0.162996Z" stroke="#000000" stroke-width="2.6024" stroke-linejoin="round" stroke-miterlimit="10" fill-rule="evenodd" transform="matrix(-1 1.22465e-16 1.22465e-16 1 2109.5 810.5)"/><path d="M2074.75 811.807 2099.63 811.807C2103.26 811.807 2106.19 814.716 2106.19 818.307L2106.19 824.807 2068.19 824.807 2068.19 818.307C2068.19 814.716 2071.13 811.807 2074.75 811.807Z" stroke="#000000" stroke-width="2.6024" stroke-linejoin="round" stroke-miterlimit="10" fill-rule="evenodd"/><path d="M2084.2 810.809 2084.2 755.808 2091.2 755.808 2091.2 810.809Z" stroke="#000000" stroke-width="2.6024" stroke-linejoin="round" stroke-miterlimit="10" fill-rule="evenodd"/><path d="M2002.19 1410.81 2002.19 1245.81 2173.19 1245.81 2173.19 1410.81Z" stroke="#002060" stroke-width="5.20515" stroke-miterlimit="8" fill="#05D7A0" fill-rule="evenodd"/><text font-family="Times New Roman,Times New Roman_MSFontService,sans-serif" font-weight="400" font-size="50" transform="matrix(1 -2.44929e-16 2.44929e-16 1 2039.96 1346)">DFE</text><path d="M2002.19 1217.81 2002.19 1144.81 2173.19 1144.81 2173.19 1217.81Z" stroke="#002060" stroke-width="5.20515" stroke-miterlimit="8" fill="none" fill-rule="evenodd"/><text font-family="Times New Roman,Times New Roman_MSFontService,sans-serif" font-weight="400" font-size="50" transform="matrix(1 -2.44929e-16 2.44929e-16 1 2034.23 1199)">DAC</text><path d="M2002.19 1118.81 2002.19 875.811 2173.19 875.811 2173.19 1118.81Z" stroke="#002060" stroke-width="5.20515" stroke-miterlimit="8" fill="#FABE0F" fill-rule="evenodd"/><text font-family="Times New Roman,Times New Roman_MSFontService,sans-serif" font-weight="400" font-size="55" transform="matrix(1 -2.44929e-16 2.44929e-16 1 2037.38 1017)">RFE</text><path d="M2242.19 1410.81 2242.19 1245.81 2413.19 1245.81 2413.19 1410.81Z" stroke="#002060" stroke-width="5.20515" stroke-miterlimit="8" fill="#05D7A0" fill-rule="evenodd"/><text font-family="Times New Roman,Times New Roman_MSFontService,sans-serif" font-weight="400" font-size="50" transform="matrix(1 -2.44929e-16 2.44929e-16 1 2279.76 1346)">DFE</text><path d="M2242.19 1216.81 2242.19 1144.81 2413.19 1144.81 2413.19 1216.81Z" stroke="#002060" stroke-width="5.20515" stroke-miterlimit="8" fill="none" fill-rule="evenodd"/><text font-family="Times New Roman,Times New Roman_MSFontService,sans-serif" font-weight="400" font-size="50" transform="matrix(1 -2.44929e-16 2.44929e-16 1 2274.03 1199)">ADC</text><path d="M2242.19 1118.81 2242.19 875.811 2413.19 875.811 2413.19 1118.81Z" stroke="#002060" stroke-width="5.20515" stroke-miterlimit="8" fill="#FABE0F" fill-rule="evenodd"/><text font-family="Times New Roman,Times New Roman_MSFontService,sans-serif" font-weight="400" font-size="50" transform="matrix(1 -2.44929e-16 2.44929e-16 1 2281.18 1015)">RFE</text><path d="M2054.19 1779.81 2054.19 1522.81 2361.19 1522.81 2361.19 1779.81Z" stroke="#002060" stroke-width="6.76673" stroke-linejoin="round" stroke-miterlimit="10" fill="none" fill-rule="evenodd"/><text font-family="Times New Roman,Times New Roman_MSFontService,sans-serif" font-weight="400" font-size="55" transform="matrix(1 -2.44929e-16 2.44929e-16 1 2130.83 1604)">Digital </text><text font-family="Times New Roman,Times New Roman_MSFontService,sans-serif" font-weight="400" font-size="55" transform="matrix(1 -2.44929e-16 2.44929e-16 1 2137.13 1670)">Signal </text><text font-family="Times New Roman,Times New Roman_MSFontService,sans-serif" font-weight="400" font-size="55" transform="matrix(1 -2.44929e-16 2.44929e-16 1 2100.74 1736)">Processor</text><path d="M2084.01 1245.31 2084.02 1231.65 2090.35 1231.65 2090.35 1245.31ZM2077.69 1234.72 2087.18 1216.31 2096.69 1234.72Z" fill="#F0466E" fill-rule="evenodd"/><path d="M0.572023 5.15559 16.7836 5.15594 16.7836 10.156 0.572023 10.156ZM14.2261 0.155548 29.5719 7.65579 14.2261 15.156Z" fill="#F0466E" fill-rule="evenodd" transform="matrix(-1.83697e-16 -1 -1 1.83697e-16 2095 1144)"/><path d="M2324.02 1128.72 2324.02 1118.31 2330.35 1118.31 2330.35 1128.72ZM2336.69 1125.61 2327.18 1144.31 2317.69 1125.61Z" fill="#64508C" fill-rule="evenodd"/><path d="M2324.02 1229.91 2324.02 1217.31 2330.35 1217.31 2330.35 1229.91ZM2336.69 1226.84 2327.18 1245.31 2317.69 1226.84Z" fill="#64508C" fill-rule="evenodd"/><path d="M0.825714 4.97037 38.7724 5.16957 38.7439 10.1697 0.797528 9.97052ZM36.1934 0.155551 51.7974 7.73807 36.1077 15.156Z" fill="#F0466E" fill-rule="evenodd" transform="matrix(-1.83697e-16 -1 -1 1.83697e-16 2095 875)"/><path d="M2324.96 862.238 2325.75 825.311 2331.09 825.42 2330.29 862.347ZM2335.68 859.852 2327.35 875.311 2319.68 859.524Z" fill="#64508C" fill-rule="evenodd"/><path d="M2202.02 1878.31 2202.02 1805.31 2212.36 1805.31 2212.36 1878.31ZM2191.69 1810.51 2207.19 1779.31 2222.69 1810.51Z" fill="#002060" fill-rule="evenodd"/><path d="M2098.36 758.642C2092.57 762.165 2085.01 760.328 2081.49 754.538 2077.97 748.748 2079.8 741.195 2085.59 737.672 2091.38 734.148 2098.94 735.986 2102.46 741.776 2105.98 747.566 2104.15 755.118 2098.36 758.642Z" stroke="#000000" stroke-width="2.6024" stroke-linejoin="round" stroke-miterlimit="10" fill-rule="evenodd"/><path d="M2121.92 754.414C2123.77 747.085 2122.75 739.259 2118.62 732.475 2114.49 725.691 2108.01 721.183 2100.65 719.464L2098.28 728.79C2102.97 729.885 2107.36 732.847 2110.23 737.577 2113.11 742.307 2113.61 747.36 2112.55 752.23L2121.92 754.414Z" fill-rule="evenodd"/><path d="M2131.06 756.413 2140.3 758.659C2143.4 746.648 2141.68 733.64 2134.81 722.355 2127.94 711.07 2117.18 703.559 2105.09 700.798L2102.84 710.039C2112.41 712.369 2121.1 718.325 2126.6 727.353 2132.09 736.382 2133.39 746.837 2131.06 756.413Z" fill-rule="evenodd"/><path d="M2149.8 760.978 2159.02 763.229C2163.1 746.42 2160.72 728.211 2151.12 712.43 2141.52 696.648 2126.44 686.167 2109.63 682.068L2107.39 691.296C2121.56 694.749 2134.57 703.682 2142.93 717.414 2151.29 731.145 2153.12 746.603 2149.8 760.978Z" fill-rule="evenodd"/><path d="M2137.14 733.445 2133.56 727.573 2094.46 751.369 2090.74 745.249 2129.84 721.453 2126.26 715.582 2150.46 713.096Z" stroke="#FFFFFF" stroke-width="2.6024" stroke-miterlimit="8" fill="#F0466E" fill-rule="evenodd"/><path d="M0.88563 12.6175C0.88563 5.83888 6.48271 0.34357 13.3869 0.34357 20.2912 0.34357 25.8879 5.83888 25.8879 12.6175 25.8879 19.3962 20.2912 24.8915 13.3869 24.8915 6.48271 24.8915 0.88563 19.3962 0.88563 12.6175Z" stroke="#000000" stroke-width="2.6024" stroke-linejoin="round" stroke-miterlimit="10" fill-rule="evenodd" transform="matrix(0.860749 -0.50903 -0.50903 -0.860749 2319.79 759.347)"/><path d="M7.55673 41.232C12.7954 35.9373 15.8908 28.7173 15.8908 20.7755 15.8908 12.8333 12.7954 5.61332 7.55673 0.318668L0.8896 7.05761C4.22316 10.4269 6.36614 15.2401 6.36614 20.7755 6.36614 26.3105 4.22316 30.883 0.8896 34.493L7.55673 41.232Z" fill-rule="evenodd" transform="matrix(-0.50903 -0.860749 -0.860749 0.50903 2333.84 718.818)"/><path d="M0.887074 61.3033 7.61736 68.0286C16.5108 59.382 21.7986 47.3722 21.7986 34.1621 21.7986 20.9512 16.5108 8.94183 7.61736 0.294849L0.887074 7.02044C7.85771 13.986 12.1841 23.5937 12.1841 34.1621 12.1841 44.7304 7.85771 54.3378 0.887074 61.3033Z" fill-rule="evenodd" transform="matrix(-0.50903 -0.860749 -0.860749 0.50903 2338.64 700.137)"/><path d="M0.884908 88.9849 7.59642 95.7346C19.8206 83.4398 27.251 66.5648 27.251 48.0027 27.251 29.4405 19.8206 12.5656 7.59642 0.27103L0.884908 7.02116C11.1916 17.3871 17.6632 31.8513 17.6632 48.0027 17.6632 64.1544 11.1916 78.3775 0.884908 88.9849Z" fill-rule="evenodd" transform="matrix(-0.50903 -0.860749 -0.860749 0.50903 2343.44 681.456)"/><path d="M2303.95 729.136 2309.73 725.713 2285.5 684.73 2291.53 681.162 2315.77 722.145 2321.55 718.723 2323.69 742.421Z" stroke="#FFFFFF" stroke-width="2.6024" stroke-miterlimit="8" fill="#64508C" fill-rule="evenodd"/><path d="M2328.5 826.81 2328.5 751.81" stroke="#FFFFFF" stroke-width="4.68438" stroke-linejoin="round" stroke-miterlimit="10" fill="none" fill-rule="evenodd"/><path d="M0.280719 0.156635 56.2809 0.156635C57.9979 0.156635 59.3897 1.55267 59.3897 3.27493L59.3897 122.802 56.2809 119.684 96.7375 119.684 96.7375 125.92 56.2809 125.92C54.5643 125.92 53.1726 124.524 53.1726 122.802L53.1726 3.27493 56.2809 6.39322 0.280719 6.39322ZM93.6288 113.447 112.281 122.802 93.6288 132.157Z" fill="#F0466E" fill-rule="evenodd" transform="matrix(-1.83697e-16 -1 -1 1.83697e-16 2210 1522)"/><path d="M2203.91 1506.76 2203.91 1466.31C2203.91 1464.59 2205.31 1463.2 2207.03 1463.2L2326.58 1463.2 2323.46 1466.31 2323.46 1410.31 2329.69 1410.31 2329.69 1466.31C2329.69 1468.03 2328.3 1469.42 2326.58 1469.42L2207.03 1469.42 2210.15 1466.31 2210.15 1506.76ZM2216.37 1503.66 2207.03 1522.31 2197.69 1503.66Z" fill="#64508C" fill-rule="evenodd"/><path d="M0.572023 6.49761 14.2261 6.49761 14.2261 12.831 0.572023 12.8307ZM11.1573 0.164186 29.5722 9.66432 11.1569 19.1641Z" fill="#F0466E" fill-rule="evenodd" transform="matrix(-1.83697e-16 -1 -1 1.83697e-16 2097 1144)"/><path d="M0.831449 6.31928 36.1682 6.51492 36.1339 12.8481 0.797121 12.6525ZM33.0733 0.164189 51.797 9.76799 32.9707 19.1641Z" fill="#F0466E" fill-rule="evenodd" transform="matrix(-1.83697e-16 -1 -1 1.83697e-16 2097 875)"/><path d="M2323.96 859.627 2324.68 825.31 2331.01 825.438 2330.29 859.759ZM2336.69 856.764 2326.79 875.311 2317.69 856.373Z" fill="#64508C" fill-rule="evenodd"/><path d="M0-3.4375 117.558-3.4375 117.558 483.159 75.926 483.159 75.926 476.284 114.12 476.284 110.683 479.722 110.683 0 114.12 3.4375 0 3.4375ZM80.5093 493.472 53.0093 479.722 80.5093 465.972Z" fill="#F0466E" transform="matrix(1 -1.22465e-16 -1.22465e-16 -1 2367.5 1658.22)"/><path d="M2414 1184.5C2410.41 1184.5 2407.5 1181.59 2407.5 1178 2407.5 1174.41 2410.41 1171.5 2414 1171.5 2417.59 1171.5 2420.5 1174.41 2420.5 1178 2420.5 1181.59 2417.59 1184.5 2414 1184.5Z" stroke="#064760" stroke-width="0" stroke-linejoin="round" stroke-miterlimit="10" fill="none" fill-rule="evenodd"/><path d="M2173 1184.5C2169.41 1184.5 2166.5 1181.59 2166.5 1178 2166.5 1174.41 2169.41 1171.5 2173 1171.5 2176.59 1171.5 2179.5 1174.41 2179.5 1178 2179.5 1181.59 2176.59 1184.5 2173 1184.5Z" stroke="#064760" stroke-width="0" stroke-linejoin="round" stroke-miterlimit="10" fill="none" fill-rule="evenodd"/><path d="M2243 1184.5C2239.41 1184.5 2236.5 1181.59 2236.5 1178 2236.5 1174.41 2239.41 1171.5 2243 1171.5 2246.59 1171.5 2249.5 1174.41 2249.5 1178 2249.5 1181.59 2246.59 1184.5 2243 1184.5Z" stroke="#064760" stroke-width="0" stroke-linejoin="round" stroke-miterlimit="10" fill="none" fill-rule="evenodd"/><path d="M2179.5 1178.5 2236.15 1178.5" stroke="#002060" stroke-width="3.4375" stroke-linejoin="round" stroke-miterlimit="10" stroke-dasharray="3.4375 3.4375" fill="none" fill-rule="evenodd"/><path d="M2086.24 824.81 2087.24 749.809" stroke="#FFFFFF" stroke-width="2.6024" stroke-linejoin="round" stroke-miterlimit="10" fill="none" fill-rule="evenodd"/><path d="M3165.83 1858.71 3558.83 1857.71" stroke="#002060" stroke-width="10.4186" stroke-linejoin="round" stroke-miterlimit="10" fill="none" fill-rule="evenodd"/><path d="M3095.83 856.316 3628.83 856.316" stroke="#002060" stroke-width="10.4186" stroke-linejoin="round" stroke-miterlimit="10" fill="none" fill-rule="evenodd"/><path d="M3167.83 1856.93C3152.7 1857.34 3137.57 1857.75 3124.24 1852.05 3110.9 1846.35 3096.67 1833.54 3087.81 1822.75 3078.95 1811.97 3074.97 1799.97 3071.09 1787.35 3067.21 1774.74 3069 1788.47 3064.52 1747.07 3060.04 1705.67 3048.1 1621.14 3044.22 1538.94 3040.33 1456.75 3040.53 1328.79 3041.23 1253.92 3041.93 1179.05 3045.11 1140.49 3048.4 1089.74 3051.68 1038.98 3056.36 984.45 3060.94 949.356 3065.52 914.263 3071.09 894.426 3075.87 879.169 3080.64 863.907 3085.72 861.979 3089.6 857.804 3093.48 853.634 3097.17 857.5 3099.16 854.143" stroke="#002060" stroke-width="10.4186" stroke-linejoin="round" stroke-miterlimit="10" fill="none" fill-rule="evenodd"/><path d="M0.254063 127.415C-0.153015 112.286-0.559732 97.1577 5.13683 83.8208 10.8334 70.4843 23.6506 56.2513 34.4331 47.393 45.2159 38.535 57.2197 34.5539 69.8329 30.6719 82.4469 26.7904 68.7142 28.5818 110.116 24.1032 151.517 19.6243 236.049 7.68057 318.242 3.79901 400.434-0.0825478 528.402 0.116581 603.269 0.813169 678.141 1.50976 716.695 4.69473 767.451 7.97926 818.211 11.2638 872.737 15.9415 907.831 20.52 942.925 25.0985 962.761 30.6719 978.019 35.4496 993.28 40.2269 995.213 45.3028 999.383 49.1844 1003.55 53.0659 999.688 56.7487 1003.04 58.7397" stroke="#002060" stroke-width="10.4186" stroke-linejoin="round" stroke-miterlimit="10" fill="none" fill-rule="evenodd" transform="matrix(-1.83697e-16 -1 -1 1.83697e-16 3686 1857)"/><path d="M3469.43 846.799 3492.95 846.799C3496.95 846.799 3500.19 849.932 3500.19 853.799L3500.19 860.799 3462.19 860.799 3462.19 853.799C3462.19 849.932 3465.43 846.799 3469.43 846.799Z" stroke="#000000" stroke-width="2.6024" stroke-linejoin="round" stroke-miterlimit="10" fill-rule="evenodd"/><path d="M7.69941 0.331985 31.9647 0.331985C35.7575 0.331985 38.8321 3.2421 38.8321 6.83202L38.8321 13.3321 0.831985 13.3321 0.831985 6.83202C0.831985 3.2421 3.90659 0.331985 7.69941 0.331985Z" stroke="#000000" stroke-width="2.6024" stroke-linejoin="round" stroke-miterlimit="10" fill-rule="evenodd" transform="matrix(-1 1.22465e-16 1.22465e-16 1 3503.5 847.5)"/><path d="M0.855271 0.38505 56.8557 0.38505 56.8557 8.38535 0.855271 8.38535Z" stroke="#000000" stroke-width="2.6024" stroke-linejoin="round" stroke-miterlimit="10" fill-rule="evenodd" transform="matrix(-1.83697e-16 -1 -1 1.83697e-16 3487.5 846.5)"/><path d="M8.06096 0.15213 31.5852 0.15213C35.5824 0.15213 38.8233 3.28607 38.8233 7.15217L38.8233 14.1522 0.822796 14.1522 0.822796 7.15217C0.822796 3.28607 4.06334 0.15213 8.06096 0.15213Z" stroke="#000000" stroke-width="2.6024" stroke-linejoin="round" stroke-miterlimit="10" fill-rule="evenodd" transform="matrix(-1 1.22465e-16 1.22465e-16 1 3264.5 845.5)"/><path d="M3230.75 846.807 3255.63 846.807C3259.26 846.807 3262.19 849.716 3262.19 853.307L3262.19 859.807 3224.19 859.807 3224.19 853.307C3224.19 849.716 3227.13 846.807 3230.75 846.807Z" stroke="#000000" stroke-width="2.6024" stroke-linejoin="round" stroke-miterlimit="10" fill-rule="evenodd"/><path d="M3239.16 845.814 3239.16 789.814 3247.16 789.814 3247.16 845.814Z" stroke="#000000" stroke-width="2.6024" stroke-linejoin="round" stroke-miterlimit="10" fill-rule="evenodd"/><path d="M3157.19 1444.81 3157.19 1280.81 3329.19 1280.81 3329.19 1444.81Z" stroke="#002060" stroke-width="5.20515" stroke-miterlimit="8" fill="#05D7A0" fill-rule="evenodd"/><text font-family="Times New Roman,Times New Roman_MSFontService,sans-serif" font-weight="400" font-size="50" transform="matrix(1 -2.44929e-16 2.44929e-16 1 3195.21 1381)">DFE</text><path d="M3157.19 1251.81 3157.19 1179.81 3329.19 1179.81 3329.19 1251.81Z" stroke="#002060" stroke-width="5.20515" stroke-miterlimit="8" fill="none" fill-rule="evenodd"/><text font-family="Times New Roman,Times New Roman_MSFontService,sans-serif" font-weight="400" font-size="50" transform="matrix(1 -2.44929e-16 2.44929e-16 1 3189.48 1234)">DAC</text><path d="M3157.19 1153.81 3157.19 910.811 3329.19 910.811 3329.19 1153.81Z" stroke="#002060" stroke-width="5.20515" stroke-miterlimit="8" fill="#FABE0F" fill-rule="evenodd"/><text font-family="Times New Roman,Times New Roman_MSFontService,sans-serif" font-weight="400" font-size="55" transform="matrix(1 -2.44929e-16 2.44929e-16 1 3192.63 1051)">RFE</text><path d="M3397.19 1444.81 3397.19 1280.81 3568.19 1280.81 3568.19 1444.81Z" stroke="#002060" stroke-width="5.20515" stroke-miterlimit="8" fill="#05D7A0" fill-rule="evenodd"/><text font-family="Times New Roman,Times New Roman_MSFontService,sans-serif" font-weight="400" font-size="50" transform="matrix(1 -2.44929e-16 2.44929e-16 1 3435 1381)">DFE</text><path d="M3397.19 1251.81 3397.19 1179.81 3568.19 1179.81 3568.19 1251.81Z" stroke="#002060" stroke-width="5.20515" stroke-miterlimit="8" fill="none" fill-rule="evenodd"/><text font-family="Times New Roman,Times New Roman_MSFontService,sans-serif" font-weight="400" font-size="50" transform="matrix(1 -2.44929e-16 2.44929e-16 1 3429.27 1234)">ADC</text><path d="M3397.19 1153.81 3397.19 910.811 3568.19 910.811 3568.19 1153.81Z" stroke="#002060" stroke-width="5.20515" stroke-miterlimit="8" fill="#FABE0F" fill-rule="evenodd"/><text font-family="Times New Roman,Times New Roman_MSFontService,sans-serif" font-weight="400" font-size="50" transform="matrix(1 -2.44929e-16 2.44929e-16 1 3436.43 1050)">RFE</text><path d="M3209.19 1813.81 3209.19 1557.81 3516.19 1557.81 3516.19 1813.81Z" stroke="#002060" stroke-width="6.76673" stroke-linejoin="round" stroke-miterlimit="10" fill="none" fill-rule="evenodd"/><text font-family="Times New Roman,Times New Roman_MSFontService,sans-serif" font-weight="400" font-size="55" transform="matrix(1 -2.44929e-16 2.44929e-16 1 3286.07 1639)">Digital </text><text font-family="Times New Roman,Times New Roman_MSFontService,sans-serif" font-weight="400" font-size="55" transform="matrix(1 -2.44929e-16 2.44929e-16 1 3292.37 1705)">Signal </text><text font-family="Times New Roman,Times New Roman_MSFontService,sans-serif" font-weight="400" font-size="55" transform="matrix(1 -2.44929e-16 2.44929e-16 1 3255.98 1771)">Processor</text><path d="M3239.01 1280.32 3239.02 1266.19 3245.35 1266.19 3245.35 1280.32ZM3232.69 1269.37 3242.18 1250.32 3251.69 1269.37Z" fill="#F0466E" fill-rule="evenodd"/><path d="M0.57203 5.49918 16.7838 5.49955 16.7838 10.8328 0.57203 10.8328ZM14.2263 0.165914 29.5723 8.166 14.2263 16.1661Z" fill="#F0466E" fill-rule="evenodd" transform="matrix(-1.83697e-16 -1 -1 1.83697e-16 3251 1179)"/><path d="M3479.02 1163.72 3479.02 1153.31 3485.35 1153.31 3485.35 1163.72ZM3491.69 1160.61 3482.18 1179.31 3472.69 1160.61Z" fill="#64508C" fill-rule="evenodd"/><path d="M3479.02 1264.37 3479.02 1251.32 3485.35 1251.32 3485.35 1264.37ZM3491.69 1261.19 3482.18 1280.32 3472.69 1261.19Z" fill="#64508C" fill-rule="evenodd"/><path d="M0.825714 5.30161 38.7724 5.51409 38.7439 10.8475 0.797528 10.635ZM36.1934 0.165918 51.7974 8.25377 36.1077 16.1661Z" fill="#F0466E" fill-rule="evenodd" transform="matrix(-1.83697e-16 -1 -1 1.83697e-16 3251 910)"/><path d="M3479.96 897.238 3480.75 860.311 3486.09 860.42 3485.29 897.347ZM3490.68 894.852 3482.35 910.311 3474.68 894.524Z" fill="#64508C" fill-rule="evenodd"/><path d="M3357.02 1912.31 3357.02 1839.31 3367.36 1839.31 3367.36 1912.31ZM3346.69 1844.51 3362.19 1813.31 3377.69 1844.51Z" fill="#002060" fill-rule="evenodd"/><path d="M3255.82 790.803C3255.82 797.43 3250.22 802.804 3243.32 802.804 3236.41 802.804 3230.82 797.43 3230.82 790.803 3230.82 784.177 3236.41 778.803 3243.32 778.803 3250.22 778.803 3255.82 784.177 3255.82 790.803Z" stroke="#000000" stroke-width="2.6024" stroke-linejoin="round" stroke-miterlimit="10" fill-rule="evenodd"/><path d="M3263.31 767.635C3258 762.398 3250.77 759.301 3242.81 759.301 3234.85 759.301 3227.62 762.398 3222.31 767.635L3229.06 774.301C3232.44 770.966 3237.26 768.826 3242.81 768.826 3248.36 768.826 3252.94 770.966 3256.56 774.301L3263.31 767.635Z" fill-rule="evenodd"/><path d="M3269.66 761.312 3276.31 754.555C3267.76 745.621 3255.88 740.311 3242.81 740.311 3229.74 740.311 3217.86 745.621 3209.31 754.555L3215.96 761.312C3222.85 754.313 3232.35 749.967 3242.81 749.967 3253.26 749.967 3262.76 754.313 3269.66 761.312Z" fill-rule="evenodd"/><path d="M3283.59 747.306 3290.31 740.689C3278.07 728.635 3261.28 721.306 3242.81 721.306 3224.34 721.306 3207.55 728.635 3195.31 740.689L3202.03 747.306C3212.34 737.143 3226.74 730.76 3242.81 730.76 3258.88 730.76 3273.04 737.143 3283.59 747.306Z" fill-rule="evenodd"/><path d="M3253.81 744.53 3246.91 744.53 3246.91 789.807 3239.71 789.807 3239.71 744.53 3232.81 744.53 3243.31 722.807Z" stroke="#FFFFFF" stroke-width="2.6024" stroke-miterlimit="8" fill="#F0466E" fill-rule="evenodd"/><path d="M0.88563 12.6175C0.88563 5.83888 6.48271 0.34357 13.3869 0.34357 20.2912 0.34357 25.8879 5.83888 25.8879 12.6175 25.8879 19.3962 20.2912 24.8915 13.3869 24.8915 6.48271 24.8915 0.88563 19.3962 0.88563 12.6175Z" stroke="#000000" stroke-width="2.6024" stroke-linejoin="round" stroke-miterlimit="10" fill-rule="evenodd" transform="matrix(0.738564 -0.674183 -0.674183 -0.738564 3483.25 791.075)"/><path d="M7.55673 41.232C12.7954 35.9373 15.8908 28.7173 15.8908 20.7755 15.8908 12.8333 12.7954 5.61332 7.55673 0.318668L0.8896 7.05761C4.22316 10.4269 6.36614 15.2401 6.36614 20.7755 6.36614 26.3105 4.22316 30.883 0.8896 34.493L7.55673 41.232Z" fill-rule="evenodd" transform="matrix(-0.674183 -0.738564 -0.738564 0.674183 3488.73 748.529)"/><path d="M0.887074 61.3033 7.61736 68.0286C16.5108 59.382 21.7986 47.3722 21.7986 34.1621 21.7986 20.9512 16.5108 8.94183 7.61736 0.294849L0.887074 7.02044C7.85771 13.986 12.1841 23.5937 12.1841 34.1621 12.1841 44.7304 7.85771 54.3378 0.887074 61.3033Z" fill-rule="evenodd" transform="matrix(-0.674183 -0.738564 -0.738564 0.674183 3489.61 729.262)"/><path d="M0.884908 88.9849 7.59642 95.7346C19.8206 83.4398 27.251 66.5648 27.251 48.0027 27.251 29.4405 19.8206 12.5656 7.59642 0.27103L0.884908 7.02116C11.1916 17.3871 17.6632 31.8513 17.6632 48.0027 17.6632 64.1544 11.1916 78.3775 0.884908 88.9849Z" fill-rule="evenodd" transform="matrix(-0.674183 -0.738564 -0.738564 0.674183 3490.48 709.996)"/><path d="M3461.57 764.739 3466.54 760.206 3434.44 725.04 3439.61 720.315 3471.71 755.48 3476.68 750.947 3483.61 773.71Z" stroke="#FFFFFF" stroke-width="2.6024" stroke-miterlimit="8" fill="#64508C" fill-rule="evenodd"/><path d="M3483.5 861.814 3483.5 785.813" stroke="#FFFFFF" stroke-width="4.68438" stroke-linejoin="round" stroke-miterlimit="10" fill="none" fill-rule="evenodd"/><path d="M0.280718 0.157822 56.2808 0.157822C57.9977 0.157822 59.3895 1.56443 59.3895 3.29974L59.3895 123.732 56.2808 120.591 96.7372 120.591 96.7372 126.874 56.2808 126.874C54.5641 126.874 53.1724 125.468 53.1724 123.732L53.1724 3.29974 56.2808 6.44166 0.280718 6.44166ZM93.6285 114.307 112.281 123.732 93.6285 133.158Z" fill="#F0466E" fill-rule="evenodd" transform="matrix(-1.83697e-16 -1 -1 1.83697e-16 3366 1557)"/><path d="M3358.96 1541.76 3358.96 1501.31C3358.96 1499.59 3360.36 1498.2 3362.1 1498.2L3482.55 1498.2 3479.41 1501.31 3479.41 1445.31 3485.69 1445.31 3485.69 1501.31C3485.69 1503.03 3484.28 1504.42 3482.55 1504.42L3362.1 1504.42 3365.24 1501.31 3365.24 1541.76ZM3371.51 1538.66 3362.1 1557.31 3352.69 1538.66Z" fill="#64508C" fill-rule="evenodd"/><path d="M0.591749 6.49761 14.7167 6.49761 14.7167 12.831 0.591749 12.8307ZM11.542 0.164186 30.592 9.66432 11.5417 19.1641Z" fill="#F0466E" fill-rule="evenodd" transform="matrix(-1.83697e-16 -1 -1 1.83697e-16 3252 1179)"/><path d="M0.831449 6.31928 36.1682 6.51492 36.1339 12.8481 0.797121 12.6525ZM33.0733 0.164189 51.797 9.76799 32.9707 19.1641Z" fill="#F0466E" fill-rule="evenodd" transform="matrix(-1.83697e-16 -1 -1 1.83697e-16 3252 910)"/><path d="M3479.64 894.627 3480.33 860.311 3486.33 860.438 3485.64 894.759ZM3491.7 891.764 3482.33 910.311 3473.7 891.374Z" fill="#64508C" fill-rule="evenodd"/><path d="M0-3.4375 117.558-3.4375 117.558 483.159 75.926 483.159 75.926 476.284 114.12 476.284 110.683 479.722 110.683 0 114.12 3.4375 0 3.4375ZM80.5093 493.472 53.0093 479.722 80.5093 465.972Z" fill="#F0466E" transform="matrix(1 -1.22465e-16 -1.22465e-16 -1 3522.5 1693.22)"/><path d="M3569 1219.5C3565.41 1219.5 3562.5 1216.59 3562.5 1213 3562.5 1209.41 3565.41 1206.5 3569 1206.5 3572.59 1206.5 3575.5 1209.41 3575.5 1213 3575.5 1216.59 3572.59 1219.5 3569 1219.5Z" stroke="#064760" stroke-width="0" stroke-linejoin="round" stroke-miterlimit="10" fill="none" fill-rule="evenodd"/><path d="M3329 1219.5C3325.41 1219.5 3322.5 1216.59 3322.5 1213 3322.5 1209.41 3325.41 1206.5 3329 1206.5 3332.59 1206.5 3335.5 1209.41 3335.5 1213 3335.5 1216.59 3332.59 1219.5 3329 1219.5Z" stroke="#064760" stroke-width="0" stroke-linejoin="round" stroke-miterlimit="10" fill="none" fill-rule="evenodd"/><path d="M3398 1219.5C3394.41 1219.5 3391.5 1216.59 3391.5 1213 3391.5 1209.41 3394.41 1206.5 3398 1206.5 3401.59 1206.5 3404.5 1209.41 3404.5 1213 3404.5 1216.59 3401.59 1219.5 3398 1219.5Z" stroke="#064760" stroke-width="0" stroke-linejoin="round" stroke-miterlimit="10" fill="none" fill-rule="evenodd"/><path d="M3335.5 1213.5 3392.15 1213.5" stroke="#002060" stroke-width="3.4375" stroke-linejoin="round" stroke-miterlimit="10" stroke-dasharray="3.4375 3.4375" fill="none" fill-rule="evenodd"/><path d="M3241.24 859.81 3242.24 784.81" stroke="#FFFFFF" stroke-width="2.6024" stroke-linejoin="round" stroke-miterlimit="10" fill="none" fill-rule="evenodd"/><path d="M3.58263-4.47081 651.536 514.758 644.371 523.7-3.58263 4.47081ZM654.23 502.234 670.307 537.142 632.735 529.059Z" fill="#F0466E" transform="matrix(1 0 0 -1 2150.5 713.642)"/><path d="M2832.36 169.265 3417.56 702.422 3409.84 710.892 2824.64 177.735ZM3421.04 690.095 3434.88 725.951 3397.89 715.505Z" fill="#64508C"/><text font-family="Times New Roman,Times New Roman_MSFontService,sans-serif" font-weight="400" font-size="83" transform="matrix(1 0 0 1 1002.44 2016)">(a)</text><text font-family="Times New Roman,Times New Roman_MSFontService,sans-serif" font-weight="400" font-size="83" transform="matrix(1 0 0 1 2160.53 2016)">(b)</text><text font-family="Times New Roman,Times New Roman_MSFontService,sans-serif" font-weight="400" font-size="83" transform="matrix(1 0 0 1 3323.24 2016)">(c)</text><text font-family="Times New Roman,Times New Roman_MSFontService,sans-serif" font-weight="400" font-size="73" transform="matrix(1 0 0 1 488.784 2206)">Co</text><text font-family="Times New Roman,Times New Roman_MSFontService,sans-serif" font-weight="400" font-size="73" transform="matrix(1 0 0 1 574.149 2206)">-</text><text font-family="Times New Roman,Times New Roman_MSFontService,sans-serif" font-weight="400" font-size="73" transform="matrix(1 0 0 1 598.784 2206)">located Transmitter and Receiver</text><text font-family="Times New Roman,Times New Roman_MSFontService,sans-serif" font-weight="400" font-size="73" transform="matrix(1 0 0 1 1711.57 2206)">Transmitter side implementation</text><text font-family="Times New Roman,Times New Roman_MSFontService,sans-serif" font-weight="400" font-size="73" transform="matrix(1 0 0 1 2918.5 2206)">Receiver side implementation</text></g></svg>