<?xml version="1.0" encoding="UTF-8" standalone="no"?>
<!-- Created with Inkscape (http://www.inkscape.org/) -->

<svg
   version="1.1"
   id="svg2"
   xml:space="preserve"
   width="1024"
   height="384"
   viewBox="0 0 1024 384"
   sodipodi:docname="PBCH-Rx2.svg"
   inkscape:export-filename="/home/tenet/Startup/Packages/5G_Toolkit/version15/Tutorials/Emulations/Pluto-SDR/Tutorial-7[MIB_and_PBCH_in_5G_Networks]/PBCH.png"
   inkscape:export-xdpi="96"
   inkscape:export-ydpi="96"
   inkscape:version="1.1.2 (0a00cf5339, 2022-02-04)"
   xmlns:inkscape="http://www.inkscape.org/namespaces/inkscape"
   xmlns:sodipodi="http://sodipodi.sourceforge.net/DTD/sodipodi-0.dtd"
   xmlns="http://www.w3.org/2000/svg"
   xmlns:svg="http://www.w3.org/2000/svg"><defs
     id="defs6" /><sodipodi:namedview
     id="namedview4"
     pagecolor="#ffffff"
     bordercolor="#666666"
     borderopacity="1.0"
     inkscape:pageshadow="2"
     inkscape:pageopacity="0.0"
     inkscape:pagecheckerboard="0"
     showgrid="false"
     inkscape:zoom="0.671875"
     inkscape:cx="331.16279"
     inkscape:cy="357.2093"
     inkscape:window-width="2560"
     inkscape:window-height="1403"
     inkscape:window-x="0"
     inkscape:window-y="0"
     inkscape:window-maximized="1"
     inkscape:current-layer="g8" /><g
     id="g8"
     inkscape:groupmode="layer"
     inkscape:label="ink_ext_XXXXXX"
     transform="matrix(1.3333333,0,0,-1.3333333,0,384)"><g
       id="g300"
       transform="matrix(0.07839721,0,0,0.07839721,68.842876,31.108021)"
       inkscape:export-filename="/home/tenet/Startup/Packages/5G_Toolkit/version15/Tutorials/Emulations/Pluto-SDR/Tutorial-7[MIB_and_PBCH_in_5G_Networks]/PBCH-Rx.png"
       inkscape:export-xdpi="96"
       inkscape:export-ydpi="96"><path
         d="m 375.629,1627.5 h 1230 v 1230 h -1230 z"
         style="fill:none;stroke:#002060;stroke-width:35;stroke-linecap:butt;stroke-linejoin:miter;stroke-miterlimit:8;stroke-dasharray:none;stroke-opacity:1"
         id="path302" /><g
         id="g304"
         transform="scale(10)"><text
           transform="matrix(1,0,0,-1,72.7758,241.125)"
           style="font-variant:normal;font-weight:normal;font-size:20.25px;font-family:'Times New Roman';-inkscape-font-specification:TimesNewRomanPSMT;writing-mode:lr-tb;fill:#002060;fill-opacity:1;fill-rule:nonzero;stroke:none"
           id="text312"><tspan
             x="0 11.259 24.765751 38.272499"
             y="0"
             sodipodi:role="line"
             id="tspan306">PBCH</tspan><tspan
             x="11.1902 25.810699 34.558632"
             y="24"
             sodipodi:role="line"
             id="tspan308">De-</tspan><tspan
             x="-16.434799 -10.8053 -0.6803 4.9492002 13.9402 20.683451 26.31295 35.303951 44.294949 54.419949 63.41095"
             y="48"
             sodipodi:role="line"
             id="tspan310">interleaver</tspan></text></g><path
         d="m 1980.63,1627.5 h 1230 v 1230 h -1230 z"
         style="fill:none;stroke:#002060;stroke-width:35;stroke-linecap:butt;stroke-linejoin:miter;stroke-miterlimit:8;stroke-dasharray:none;stroke-opacity:1"
         id="path314" /><g
         id="g316"
         transform="scale(10)"><text
           transform="matrix(1,0,0,-1,246.55,241.125)"
           style="font-variant:normal;font-weight:normal;font-size:20.25px;font-family:'Times New Roman';-inkscape-font-specification:TimesNewRomanPSMT;writing-mode:lr-tb;fill:#002060;fill-opacity:1;fill-rule:nonzero;stroke:none"
           id="text320"><tspan
             x="0"
             y="0"
             id="tspan318">1</tspan></text><text
           transform="matrix(1,0,0,-1,256.55,247.125)"
           style="font-variant:normal;font-weight:normal;font-size:13.5px;font-family:'Times New Roman';-inkscape-font-specification:TimesNewRomanPSMT;writing-mode:lr-tb;fill:#002060;fill-opacity:1;fill-rule:nonzero;stroke:none"
           id="text324"><tspan
             x="0 7.506"
             y="0"
             sodipodi:role="line"
             id="tspan322">ST</tspan></text><text
           transform="matrix(1,0,0,-1,244.1801,217.125)"
           style="font-variant:normal;font-weight:normal;font-size:20.25px;font-family:'Times New Roman';-inkscape-font-specification:TimesNewRomanPSMT;writing-mode:lr-tb;fill:#002060;fill-opacity:1;fill-rule:nonzero;stroke:none"
           id="text330"><tspan
             x="0 14.6205 23.368433"
             y="0"
             sodipodi:role="line"
             id="tspan326">De-</tspan><tspan
             x="-29.315201 -21.43795 -12.44695 -5.7037001 3.2873001 19.0418 29.1668 34.796299 40.4258 50.5508"
             y="24"
             sodipodi:role="line"
             id="tspan328">scrambling</tspan></text></g><path
         d="m 3585.63,1627.5 h 1230 v 1230 h -1230 z"
         style="fill:none;stroke:#002060;stroke-width:35;stroke-linecap:butt;stroke-linejoin:miter;stroke-miterlimit:8;stroke-dasharray:none;stroke-opacity:1"
         id="path332" /><g
         id="g334"
         transform="scale(10)"><text
           transform="matrix(1,0,0,-1,399.324,229.125)"
           style="font-variant:normal;font-weight:normal;font-size:20.25px;font-family:'Times New Roman';-inkscape-font-specification:TimesNewRomanPSMT;writing-mode:lr-tb;fill:#002060;fill-opacity:1;fill-rule:nonzero;stroke:none"
           id="text340"><tspan
             x="0 13.50675 27.0135"
             y="0"
             sodipodi:role="line"
             id="tspan336">CRC</tspan><tspan
             x="-13.8098 0.8107 9.8016996 18.7927 28.9177 39.042702 48.033699"
             y="24"
             sodipodi:role="line"
             id="tspan338">Decoder</tspan></text></g><path
         d="m 5183.13,1627.5 h 1230 v 1230 h -1230 z"
         style="fill:none;stroke:#002060;stroke-width:35;stroke-linecap:butt;stroke-linejoin:miter;stroke-miterlimit:8;stroke-dasharray:none;stroke-opacity:1"
         id="path342" /><g
         id="g344"
         transform="scale(10)"><text
           transform="matrix(1,0,0,-1,543.85,241.125)"
           style="font-variant:normal;font-weight:normal;font-size:20.25px;font-family:'Times New Roman';-inkscape-font-specification:TimesNewRomanPSMT;writing-mode:lr-tb;fill:#002060;fill-opacity:1;fill-rule:nonzero;stroke:none"
           id="text352"><tspan
             x="0 6.7432499 16.86825 26.99325 37.118252 42.747749 47.810249 61.317001 66.946503"
             y="0"
             sodipodi:role="line"
             id="tspan346">Input Bit</tspan><tspan
             x="20.75 35.370499 44.118435"
             y="24"
             sodipodi:role="line"
             id="tspan348">De-</tspan><tspan
             x="-6.8745999 -1.2451 8.8799 14.5094 23.500401 30.24365 35.87315 44.864151 53.855148 63.980148 72.971153"
             y="48"
             sodipodi:role="line"
             id="tspan350">interleaver</tspan></text></g><path
         d="m 6788.13,1627.5 h 1230 v 1230 h -1230 z"
         style="fill:none;stroke:#002060;stroke-width:35;stroke-linecap:butt;stroke-linejoin:miter;stroke-miterlimit:8;stroke-dasharray:none;stroke-opacity:1"
         id="path354" /><g
         id="g356"
         transform="scale(10)"><text
           transform="matrix(1,0,0,-1,718.743,229.125)"
           style="font-variant:normal;font-weight:normal;font-size:20.25px;font-family:'Times New Roman';-inkscape-font-specification:TimesNewRomanPSMT;writing-mode:lr-tb;fill:#002060;fill-opacity:1;fill-rule:nonzero;stroke:none"
           id="text362"><tspan
             x="0 11.259 21.384001 27.0135 36.004501"
             y="0"
             sodipodi:role="line"
             id="tspan358">Polar</tspan><tspan
             x="-12.8098 1.8107001 10.8017 19.7927 29.9177 40.042702 49.033699"
             y="24"
             sodipodi:role="line"
             id="tspan360">Decoder</tspan></text></g><path
         d="m 6788.13,22.5 h 1230 v 1230 h -1230 z"
         style="fill:none;stroke:#002060;stroke-width:35;stroke-linecap:butt;stroke-linejoin:miter;stroke-miterlimit:8;stroke-dasharray:none;stroke-opacity:1"
         id="path364" /><g
         id="g366"
         transform="scale(10)"><text
           transform="matrix(1,0,0,-1,698.748,80.625)"
           style="font-variant:normal;font-weight:normal;font-size:20.25px;font-family:'Times New Roman';-inkscape-font-specification:TimesNewRomanPSMT;writing-mode:lr-tb;fill:#002060;fill-opacity:1;fill-rule:nonzero;stroke:none"
           id="text374"><tspan
             x="0 11.259 21.384001 31.12425 37.745968 47.870968 53.500465 63.625465 72.61647"
             y="0"
             sodipodi:role="line"
             id="tspan368">Sub-block</tspan><tspan
             x="26.0625 40.682999 49.430935"
             y="24"
             sodipodi:role="line"
             id="tspan370">De-</tspan><tspan
             x="-1.5598 4.0696998 14.1947 19.8242 28.815201 35.558449 41.18795 50.178951 59.169949 69.294952 78.28595"
             y="48"
             sodipodi:role="line"
             id="tspan372">interleaver</tspan></text></g><path
         d="m 5183.13,22.5 h 1230 v 1230 h -1230 z"
         style="fill:none;stroke:#002060;stroke-width:35;stroke-linecap:butt;stroke-linejoin:miter;stroke-miterlimit:8;stroke-dasharray:none;stroke-opacity:1"
         id="path376" /><g
         id="g378"
         transform="scale(10)"><text
           transform="matrix(1,0,0,-1,549.913,68.625)"
           style="font-variant:normal;font-weight:normal;font-size:20.25px;font-family:'Times New Roman';-inkscape-font-specification:TimesNewRomanPSMT;writing-mode:lr-tb;fill:#002060;fill-opacity:1;fill-rule:nonzero;stroke:none"
           id="text384"><tspan
             x="0 13.50675 19.13625 24.765751 29.828251 44.44875 52.751175"
             y="0"
             sodipodi:role="line"
             id="tspan380">Bit De-</tspan><tspan
             x="-5.7503901 2.1268599 11.11786 16.74736 25.738359 34.729359 40.35886 45.988361 56.113361"
             y="24"
             sodipodi:role="line"
             id="tspan382">selection</tspan></text></g><path
         d="m 3585.63,22.5 h 1230 v 1230 h -1230 z"
         style="fill:none;stroke:#002060;stroke-width:35;stroke-linecap:butt;stroke-linejoin:miter;stroke-miterlimit:8;stroke-dasharray:none;stroke-opacity:1"
         id="path386" /><g
         id="g388"
         transform="scale(10)"><text
           transform="matrix(1,0,0,-1,386.073,80.625)"
           style="font-variant:normal;font-weight:normal;font-size:20.25px;font-family:'Times New Roman';-inkscape-font-specification:TimesNewRomanPSMT;writing-mode:lr-tb;fill:#002060;fill-opacity:1;fill-rule:nonzero;stroke:none"
           id="text396"><tspan
             x="0 13.50675 23.63175 32.622749 42.747749 52.872749 61.86375"
             y="0"
             sodipodi:role="line"
             id="tspan390">Channel</tspan><tspan
             x="18.3148 32.935299 41.683231"
             y="24"
             sodipodi:role="line"
             id="tspan392">De-</tspan><tspan
             x="-9.3098001 -3.6803 6.4446998 12.0742 21.065201 27.808451 33.43795 42.428951 51.419949 61.544949 70.53595"
             y="48"
             sodipodi:role="line"
             id="tspan394">interleaver</tspan></text></g><path
         d="m 1980.63,22.5 h 1230 v 1230 h -1230 z"
         style="fill:none;stroke:#002060;stroke-width:35;stroke-linecap:butt;stroke-linejoin:miter;stroke-miterlimit:8;stroke-dasharray:none;stroke-opacity:1"
         id="path398" /><g
         id="g400"
         transform="scale(10)"><text
           transform="matrix(1,0,0,-1,247.555,80.625)"
           style="font-variant:normal;font-weight:normal;font-size:20.25px;font-family:'Times New Roman';-inkscape-font-specification:TimesNewRomanPSMT;writing-mode:lr-tb;fill:#002060;fill-opacity:1;fill-rule:nonzero;stroke:none"
           id="text404"><tspan
             x="0"
             y="0"
             id="tspan402">2</tspan></text><text
           transform="matrix(1,0,0,-1,257.555,86.625)"
           style="font-variant:normal;font-weight:normal;font-size:13.5px;font-family:'Times New Roman';-inkscape-font-specification:TimesNewRomanPSMT;writing-mode:lr-tb;fill:#002060;fill-opacity:1;fill-rule:nonzero;stroke:none"
           id="text408"><tspan
             x="0 6.75"
             y="0"
             sodipodi:role="line"
             id="tspan406">nd</tspan></text><text
           transform="matrix(1,0,0,-1,244.18,56.625)"
           style="font-variant:normal;font-weight:normal;font-size:20.25px;font-family:'Times New Roman';-inkscape-font-specification:TimesNewRomanPSMT;writing-mode:lr-tb;fill:#002060;fill-opacity:1;fill-rule:nonzero;stroke:none"
           id="text414"><tspan
             x="0 14.6205 23.368433"
             y="0"
             sodipodi:role="line"
             id="tspan410">De-</tspan><tspan
             x="-24.3148 -16.43755 -7.4465499 -0.7033 8.2876997 24.0422 34.167198 39.7967 48.787701"
             y="24"
             sodipodi:role="line"
             id="tspan412">scrambler</tspan></text></g><path
         d="m 375.629,22.5 h 1230 v 1230 h -1230 z"
         style="fill:none;stroke:#002060;stroke-width:35;stroke-linecap:butt;stroke-linejoin:miter;stroke-miterlimit:8;stroke-dasharray:none;stroke-opacity:1"
         id="path416" /><g
         id="g418"
         transform="scale(10)"><text
           transform="matrix(1,0,0,-1,73.3414,80.625)"
           style="font-variant:normal;font-weight:normal;font-size:20.25px;font-family:'Times New Roman';-inkscape-font-specification:TimesNewRomanPSMT;writing-mode:lr-tb;fill:#002060;fill-opacity:1;fill-rule:nonzero;stroke:none"
           id="text426"><tspan
             x="0 14.6205 25.879499 37.1385"
             y="0"
             sodipodi:role="line"
             id="tspan420">QPSK</tspan><tspan
             x="10.6246 25.2451 33.993034"
             y="24"
             sodipodi:role="line"
             id="tspan422">De-</tspan><tspan
             x="-15.3754 0.37909999 10.5041 20.629101 30.754101 36.383598 45.374599 51.004101 61.129101"
             y="48"
             sodipodi:role="line"
             id="tspan424">modulator</tspan></text></g><path
         d="m 1676.88,2261.25 h 296.32 v -30 h -296.32 z m 15,-60 -90,45 90,45 z"
         style="fill:#ff5a5f;fill-opacity:1;fill-rule:nonzero;stroke:none"
         id="path428" /><path
         d="m 3281.88,2261.25 h 296.32 v -30 h -296.32 z m 15,-60 -90,45 90,45 z"
         style="fill:#ff5a5f;fill-opacity:1;fill-rule:nonzero;stroke:none"
         id="path430" /><path
         d="m 4886.88,2261.25 h 296.32 v -30 h -296.32 z m 15,-60 -90,45 90,45 z"
         style="fill:#ff5a5f;fill-opacity:1;fill-rule:nonzero;stroke:none"
         id="path432" /><path
         d="m 6484.38,2261.25 h 296.32 v -30 h -296.32 z m 15,-60 -90,45 90,45 z"
         style="fill:#ff5a5f;fill-opacity:1;fill-rule:nonzero;stroke:none"
         id="path434" /><path
         d="m 7384.38,1258.12 h 30 v 298.129 h -30 z m 60,283.13 -45,90 -45,-90 z"
         style="fill:#ff5a5f;fill-opacity:1;fill-rule:nonzero;stroke:none"
         id="path436" /><path
         d="m 6484.38,656.25 h 296.32 v -30 h -296.32 z m 15,-60 -90,45 90,45 z"
         style="fill:#ff5a5f;fill-opacity:1;fill-rule:nonzero;stroke:none"
         id="path438" /><path
         d="m 5108.2,656.25 h -296.32 v -30 h 296.32 z m -15,-60 90,45 -90,45 z"
         style="fill:#ff5a5f;fill-opacity:1;fill-rule:nonzero;stroke:none"
         id="path440" /><path
         d="m 3503.2,656.25 h -296.32 v -30 h 296.32 z m -15,-60 90,45 -90,45 z"
         style="fill:#ff5a5f;fill-opacity:1;fill-rule:nonzero;stroke:none"
         id="path442" /><path
         d="m 1898.2,656.25 h -296.32 v -30 h 296.32 z m -15,-60 90,45 -90,45 z"
         style="fill:#ff5a5f;fill-opacity:1;fill-rule:nonzero;stroke:none"
         id="path444" /><path
         d="M 300.699,656.25 H 4.379 v -30 h 296.32 z m -15,-60 90,45 -90,45 z"
         style="fill:#ff5a5f;fill-opacity:1;fill-rule:nonzero;stroke:none"
         id="path446" /><path
         d="m 79.3789,2261.25 h 296.359 v -30 H 79.3789 Z m 15,-60 -89.99999,45 89.99999,45 z"
         style="fill:#ff5a5f;fill-opacity:1;fill-rule:nonzero;stroke:none"
         id="path448" /></g></g></svg>
