<?xml version="1.0" encoding="UTF-8" standalone="no"?>
<!-- Created with Inkscape (http://www.inkscape.org/) -->

<svg
   version="1.1"
   id="svg2"
   xml:space="preserve"
   width="1024"
   height="384"
   viewBox="0 0 1024 384"
   xmlns="http://www.w3.org/2000/svg"
   xmlns:svg="http://www.w3.org/2000/svg"><defs
     id="defs6" /><g
     id="g8"
     transform="matrix(1.3333333,0,0,-1.3333333,0,384)"><g
       id="g10"
       transform="matrix(0.07841412,0,0,0.07841412,82.889765,31.083726)"><path
         d="m 20.3906,1627.19 h 1231.21 v 1230 H 20.3906 Z"
         style="fill:none;stroke:#002060;stroke-width:35;stroke-linecap:butt;stroke-linejoin:miter;stroke-miterlimit:8;stroke-dasharray:none;stroke-opacity:1"
         id="path12" /><g
         id="g14"
         transform="scale(10)"><text
           transform="matrix(1,0,0,-1,37.3102,228.9)"
           style="font-variant:normal;font-weight:normal;font-size:20.04px;font-family:'Times New Roman';-inkscape-font-specification:TimesNewRomanPSMT;writing-mode:lr-tb;fill:#002060;fill-opacity:1;fill-rule:nonzero;stroke:none"
           id="text20"><tspan
             x="0 11.14224 24.508921 37.795307 52.264187"
             y="0"
             id="tspan16">PBCH </tspan><tspan
             x="-17.1602 -10.48688 -0.38653022 5.1845899 14.02223 20.695549 26.26667 35.164429 44.062191 54.082191 62.97995"
             y="24"
             id="tspan18">Interleaver</tspan></text></g><path
         d="m 1622.38,1627.19 h 1231.21 v 1230 H 1622.38 Z"
         style="fill:none;stroke:#002060;stroke-width:35;stroke-linecap:butt;stroke-linejoin:miter;stroke-miterlimit:8;stroke-dasharray:none;stroke-opacity:1"
         id="path22" /><g
         id="g24"
         transform="scale(10)"><text
           transform="matrix(1,0,0,-1,211,228.9)"
           style="font-variant:normal;font-weight:normal;font-size:20.04px;font-family:'Times New Roman';-inkscape-font-specification:TimesNewRomanPSMT;writing-mode:lr-tb;fill:#002060;fill-opacity:1;fill-rule:nonzero;stroke:none"
           id="text28"><tspan
             x="0"
             y="0"
             id="tspan26">1</tspan></text><text
           transform="matrix(1,0,0,-1,221.0801,234.9)"
           style="font-variant:normal;font-weight:normal;font-size:13.32px;font-family:'Times New Roman';-inkscape-font-specification:TimesNewRomanPSMT;writing-mode:lr-tb;fill:#002060;fill-opacity:1;fill-rule:nonzero;stroke:none"
           id="text32"><tspan
             x="0 7.40592"
             y="0"
             id="tspan30">ST</tspan></text><text
           transform="matrix(1,0,0,-1,177.6102,204.9)"
           style="font-variant:normal;font-weight:normal;font-size:20.04px;font-family:'Times New Roman';-inkscape-font-specification:TimesNewRomanPSMT;writing-mode:lr-tb;fill:#002060;fill-opacity:1;fill-rule:nonzero;stroke:none"
           id="text36"><tspan
             x="0 11.14224 20.040001 26.81352 35.711281 51.101959 61.182041 66.753166 72.244255 82.324333"
             y="0"
             id="tspan34">Scrambling</tspan></text></g><path
         d="m 3224.41,1627.19 h 1231.17 v 1230 H 3224.41 Z"
         style="fill:none;stroke:#002060;stroke-width:35;stroke-linecap:butt;stroke-linejoin:miter;stroke-miterlimit:8;stroke-dasharray:none;stroke-opacity:1"
         id="path38" /><g
         id="g40"
         transform="scale(10)"><text
           transform="matrix(1,0,0,-1,364.02,228.9)"
           style="font-variant:normal;font-weight:normal;font-size:20.04px;font-family:'Times New Roman';-inkscape-font-specification:TimesNewRomanPSMT;writing-mode:lr-tb;fill:#002060;fill-opacity:1;fill-rule:nonzero;stroke:none"
           id="text46"><tspan
             x="0 13.36668 26.633116 39.999794"
             y="0"
             id="tspan42">CRC </tspan><tspan
             x="-13.5598 -1.3167516 8.703248 17.601007 27.701136 37.721134 46.618896"
             y="24"
             id="tspan44">Encoder</tspan></text></g><path
         d="m 4826.41,1627.19 h 1231.21 v 1230 H 4826.41 Z"
         style="fill:none;stroke:#002060;stroke-width:35;stroke-linecap:butt;stroke-linejoin:miter;stroke-miterlimit:8;stroke-dasharray:none;stroke-opacity:1"
         id="path48" /><g
         id="g50"
         transform="scale(10)"><text
           transform="matrix(1,0,0,-1,522.92,240.9)"
           style="font-variant:normal;font-weight:normal;font-size:20.04px;font-family:'Times New Roman';-inkscape-font-specification:TimesNewRomanPSMT;writing-mode:lr-tb;fill:#002060;fill-opacity:1;fill-rule:nonzero;stroke:none"
           id="text58"><tspan
             x="0 6.6733198 16.773691 26.793692 36.913937 42.485054"
             y="0"
             id="tspan52">Input </tspan><tspan
             x="9.1199198 22.486601 27.977739"
             y="24"
             id="tspan54">Bit</tspan><tspan
             x="-19.55978 -12.88646 -2.7860889 2.7850311 11.622671 18.295992 23.867111 32.76487 41.662632 51.60231 60.500069"
             y="48"
             id="tspan56">Interleaver</tspan></text></g><path
         d="m 6428.4,1627.19 h 1231.21 v 1230 H 6428.4 Z"
         style="fill:none;stroke:#002060;stroke-width:35;stroke-linecap:butt;stroke-linejoin:miter;stroke-miterlimit:8;stroke-dasharray:none;stroke-opacity:1"
         id="path60" /><g
         id="g62"
         transform="scale(10)"><text
           transform="matrix(1,0,0,-1,683.29,228.9)"
           style="font-variant:normal;font-weight:normal;font-size:20.04px;font-family:'Times New Roman';-inkscape-font-specification:TimesNewRomanPSMT;writing-mode:lr-tb;fill:#002060;fill-opacity:1;fill-rule:nonzero;stroke:none"
           id="text68"><tspan
             x="0 11.14224 21.222361 26.79348 35.631119 42.30444"
             y="0"
             id="tspan64">Polar </tspan><tspan
             x="-12.3797 -0.13526 9.9649 18.862659 28.962885 39.042942 47.940704"
             y="24"
             id="tspan66">Encoder</tspan></text></g><path
         d="m 6428.4,22.8086 h 1231.21 v 1231.17 H 6428.4 Z"
         style="fill:none;stroke:#002060;stroke-width:35;stroke-linecap:butt;stroke-linejoin:miter;stroke-miterlimit:8;stroke-dasharray:none;stroke-opacity:1"
         id="path70" /><g
         id="g72"
         transform="scale(10)"><text
           transform="matrix(1,0,0,-1,663.23,68.4801)"
           style="font-variant:normal;font-weight:normal;font-size:20.04px;font-family:'Times New Roman';-inkscape-font-specification:TimesNewRomanPSMT;writing-mode:lr-tb;fill:#002060;fill-opacity:1;fill-rule:nonzero;stroke:none"
           id="text78"><tspan
             x="0 11.14224 21.222361 31.336794 38.056549 48.07655 53.647671 63.667667 72.505173 82.525177"
             y="0"
             id="tspan74">Sub-block </tspan><tspan
             x="-2.1601601 4.5131602 14.613531 20.18465 29.022291 35.69561 41.266731 50.16449 59.062252 69.082253 77.980011"
             y="24"
             id="tspan76">Interleaver</tspan></text></g><path
         d="m 4826.41,22.8086 h 1231.21 v 1231.17 H 4826.41 Z"
         style="fill:none;stroke:#002060;stroke-width:35;stroke-linecap:butt;stroke-linejoin:miter;stroke-miterlimit:8;stroke-dasharray:none;stroke-opacity:1"
         id="path80" /><g
         id="g82"
         transform="scale(10)"><text
           transform="matrix(1,0,0,-1,532.04,68.4801)"
           style="font-variant:normal;font-weight:normal;font-size:20.04px;font-family:'Times New Roman';-inkscape-font-specification:TimesNewRomanPSMT;writing-mode:lr-tb;fill:#002060;fill-opacity:1;fill-rule:nonzero;stroke:none"
           id="text88"><tspan
             x="0 13.36668 18.857821 24.368979"
             y="0"
             id="tspan84">Bit </tspan><tspan
             x="-25.0797 -13.93746 -5.0397 0.53141999 9.368926 18.266685 23.837807 29.408926 39.428925"
             y="24"
             id="tspan86">Selection</tspan></text></g><path
         d="m 3224.41,22.8086 h 1231.17 v 1231.17 H 3224.41 Z"
         style="fill:none;stroke:#002060;stroke-width:35;stroke-linecap:butt;stroke-linejoin:miter;stroke-miterlimit:8;stroke-dasharray:none;stroke-opacity:1"
         id="path90" /><g
         id="g92"
         transform="scale(10)"><text
           transform="matrix(1,0,0,-1,350.58,68.4801)"
           style="font-variant:normal;font-weight:normal;font-size:20.04px;font-family:'Times New Roman';-inkscape-font-specification:TimesNewRomanPSMT;writing-mode:lr-tb;fill:#002060;fill-opacity:1;fill-rule:nonzero;stroke:none"
           id="text98"><tspan
             x="0 13.36668 23.386681 32.284439 42.30444 52.424683 61.322445 66.833443"
             y="0"
             id="tspan94">Channel </tspan><tspan
             x="-9.9601603 -3.28684 6.8135066 12.384626 21.222267 27.895586 33.466705 42.364468 51.262226 61.282227 70.179985"
             y="24"
             id="tspan96">Interleaver</tspan></text></g><path
         d="m 1622.38,22.8086 h 1231.21 v 1231.17 H 1622.38 Z"
         style="fill:none;stroke:#002060;stroke-width:35;stroke-linecap:butt;stroke-linejoin:miter;stroke-miterlimit:8;stroke-dasharray:none;stroke-opacity:1"
         id="path100" /><g
         id="g102"
         transform="scale(10)"><text
           transform="matrix(1,0,0,-1,211.96,68.4801)"
           style="font-variant:normal;font-weight:normal;font-size:20.04px;font-family:'Times New Roman';-inkscape-font-specification:TimesNewRomanPSMT;writing-mode:lr-tb;fill:#002060;fill-opacity:1;fill-rule:nonzero;stroke:none"
           id="text106"><tspan
             x="0"
             y="0"
             id="tspan104">2</tspan></text><text
           transform="matrix(1,0,0,-1,222.0397,74.4801)"
           style="font-variant:normal;font-weight:normal;font-size:13.32px;font-family:'Times New Roman';-inkscape-font-specification:TimesNewRomanPSMT;writing-mode:lr-tb;fill:#002060;fill-opacity:1;fill-rule:nonzero;stroke:none"
           id="text110"><tspan
             x="0 6.7265525"
             y="0"
             id="tspan108">nd</tspan></text><text
           transform="matrix(1,0,0,-1,182.6499,44.4801)"
           style="font-variant:normal;font-weight:normal;font-size:20.04px;font-family:'Times New Roman';-inkscape-font-specification:TimesNewRomanPSMT;writing-mode:lr-tb;fill:#002060;fill-opacity:1;fill-rule:nonzero;stroke:none"
           id="text114"><tspan
             x="0 11.14224 20.040001 26.81352 35.711281 51.101959 61.182041 66.753166 75.650925"
             y="0"
             id="tspan112">Scrambler</tspan></text></g><path
         d="m 20.3906,22.8086 h 1231.21 v 1231.17 H 20.3906 Z"
         style="fill:none;stroke:#002060;stroke-width:35;stroke-linecap:butt;stroke-linejoin:miter;stroke-miterlimit:8;stroke-dasharray:none;stroke-opacity:1"
         id="path116" /><g
         id="g118"
         transform="scale(10)"><text
           transform="matrix(1,0,0,-1,37.7898,68.4801)"
           style="font-variant:normal;font-weight:normal;font-size:20.04px;font-family:'Times New Roman';-inkscape-font-specification:TimesNewRomanPSMT;writing-mode:lr-tb;fill:#002060;fill-opacity:1;fill-rule:nonzero;stroke:none"
           id="text124"><tspan
             x="0 14.46888 25.61112 36.753361 51.282471"
             y="0"
             id="tspan120">QPSK </tspan><tspan
             x="-16.559799 1.25576 11.27576 21.295759 31.31576 36.886879 45.784641 51.355759 61.375759"
             y="24"
             id="tspan122">Modulator</tspan></text></g><path
         d="m 1251.6,2257.81 h 296.289 v -30 H 1251.6 Z m 281.29,30 90,-45 -90,-45 z"
         style="fill:#ff5a5f;fill-opacity:1;fill-rule:nonzero;stroke:none"
         id="path126" /><path
         d="m 2853.59,2257.81 h 296.289 v -30 H 2853.59 Z m 281.29,30 90,-45 -90,-45 z"
         style="fill:#ff5a5f;fill-opacity:1;fill-rule:nonzero;stroke:none"
         id="path128" /><path
         d="m 4455.59,2257.81 h 296.32 v -30 h -296.32 z m 281.32,30 90,-45 -90,-45 z"
         style="fill:#ff5a5f;fill-opacity:1;fill-rule:nonzero;stroke:none"
         id="path130" /><path
         d="m 6057.62,2257.81 h 296.289 v -30 H 6057.62 Z m 281.29,30 90,-45 -90,-45 z"
         style="fill:#ff5a5f;fill-opacity:1;fill-rule:nonzero;stroke:none"
         id="path132" /><path
         d="m 7028.98,1329.1 h 30 v 298.09 h -30 z m -30,15 45,-90 45,90 z"
         style="fill:#ff5a5f;fill-opacity:1;fill-rule:nonzero;stroke:none"
         id="path134" /><path
         d="m 6132.62,653.398 h 296.289 v -30 H 6132.62 Z m 15,-60 -90,45 90,45 z"
         style="fill:#ff5a5f;fill-opacity:1;fill-rule:nonzero;stroke:none"
         id="path136" /><path
         d="m 4826.91,653.398 h -296.32 v -30 h 296.32 z m -281.32,30 -90,-45 90,-45 z"
         style="fill:#ff5a5f;fill-opacity:1;fill-rule:nonzero;stroke:none"
         id="path138" /><path
         d="m 3224.88,653.398 h -296.289 v -30 h 296.289 z m -281.29,30 -90,-45 90,-45 z"
         style="fill:#ff5a5f;fill-opacity:1;fill-rule:nonzero;stroke:none"
         id="path140" /><path
         d="m 1622.89,653.398 h -296.289 v -30 h 296.289 z m -281.29,30 -90,-45 90,-45 z"
         style="fill:#ff5a5f;fill-opacity:1;fill-rule:nonzero;stroke:none"
         id="path142" /></g></g></svg>
