<svg width="2314" height="594" xmlns="http://www.w3.org/2000/svg" xmlns:xlink="http://www.w3.org/1999/xlink" xml:space="preserve" overflow="hidden"><g transform="translate(-857 -1304)"><rect x="2698.5" y="1494.5" width="468" height="397" stroke="#FF5B60" stroke-width="9.16667" stroke-miterlimit="8" fill="none"/><text fill="#002060" font-family="Times New Roman,Times New Roman_MSFontService,sans-serif" font-weight="400" font-size="60" transform="matrix(1 0 0 1 2846.4 1679)">OFDM </text><text fill="#002060" font-family="Times New Roman,Times New Roman_MSFontService,sans-serif" font-weight="400" font-size="60" transform="matrix(1 0 0 1 2775.06 1750)">Demodulator</text><rect x="2090.5" y="1494.5" width="510" height="397" stroke="#FF5B60" stroke-width="9.16667" stroke-miterlimit="8" fill="none"/><text fill="#002060" font-family="Times New Roman,Times New Roman_MSFontService,sans-serif" font-weight="400" font-size="60" transform="matrix(1 0 0 1 2246.28 1643)">Channel </text><text fill="#002060" font-family="Times New Roman,Times New Roman_MSFontService,sans-serif" font-weight="400" font-size="60" transform="matrix(1 0 0 1 2185.55 1714)">Estimation &amp; </text><text fill="#002060" font-family="Times New Roman,Times New Roman_MSFontService,sans-serif" font-weight="400" font-size="60" transform="matrix(1 0 0 1 2194.71 1786)">Equalization</text><path d="M1154 1693.5C1154 1665.06 1177.06 1642 1205.5 1642 1233.94 1642 1257 1665.06 1257 1693.5 1257 1721.94 1233.94 1745 1205.5 1745 1177.06 1745 1154 1721.94 1154 1693.5Z" stroke="#FF5B60" stroke-width="5.72917" stroke-linejoin="round" stroke-miterlimit="10" fill="none" fill-rule="evenodd"/><text font-family="Times New Roman,Times New Roman_MSFontService,sans-serif" font-weight="400" font-size="41" transform="matrix(1 0 0 1 1267.78 1646)">CRC </text><text font-family="Times New Roman,Times New Roman_MSFontService,sans-serif" font-weight="400" font-size="41" transform="matrix(1 0 0 1 1244.87 1745)">Check</text><text font-family="Tw Cen MT,Tw Cen MT_MSFontService,sans-serif" font-weight="400" font-size="41" transform="matrix(1 0 0 1 1233.74 1422)">No</text><rect x="1354.5" y="1365.5" width="639" height="172" stroke="#FF5B60" stroke-width="9.16667" stroke-miterlimit="8" fill="none"/><text fill="#002060" font-family="Times New Roman,Times New Roman_MSFontService,sans-serif" font-weight="400" font-size="64" transform="matrix(1 0 0 1 1452.34 1474)">Search Space Set</text><rect x="1354.5" y="1607.5" width="639" height="171" stroke="#FF5B60" stroke-width="9.16667" stroke-miterlimit="8" fill="none"/><text fill="#002060" font-family="Times New Roman,Times New Roman_MSFontService,sans-serif" font-weight="400" font-size="64" transform="matrix(1 0 0 1 1449.47 1716)">PDCCH Decoder</text><path d="M0.0269563-4.58325 74.797-4.1435 74.7431 5.02301-0.0269563 4.58325ZM70.2677-13.337 97.6863 0.574541 70.106 14.1626Z" fill="#002060" transform="matrix(-1 0 0 1 1355.19 1693.5)"/><path d="M1154.87 1698.66 908.407 1698.13 908.426 1688.97 1154.89 1689.49ZM912.971 1707.31 885.5 1693.5 913.029 1679.81Z" fill="#002060"/><path d="M1201.92 1642.49 1201.92 1451.5C1201.92 1448.97 1203.97 1446.92 1206.5 1446.92L1332.43 1446.92 1332.43 1456.08 1206.5 1456.08 1211.08 1451.5 1211.08 1642.49ZM1327.85 1437.75 1355.35 1451.5 1327.85 1465.25Z" fill="#002060"/><path d="M1678.08 1537.5 1678.08 1584.82 1668.92 1584.83 1668.92 1537.5ZM1687.25 1580.24 1673.5 1607.74 1659.75 1580.24Z" fill="#002060"/><text font-family="Times New Roman,Times New Roman_MSFontService,sans-serif" font-weight="400" font-size="41" transform="matrix(1 0 0 1 1017.04 1652)">Yes</text><rect x="1114.5" y="1308.5" width="937" height="585" stroke="#FF5B60" stroke-width="9.16667" stroke-linejoin="round" stroke-miterlimit="10" fill="none"/><path d="M2623.42 1688.92 2698.27 1688.92 2698.27 1698.08 2623.42 1698.08ZM2628 1707.25 2600.5 1693.5 2628 1679.75Z" fill="#002060"/><path d="M2016.42 1688.92 2091.27 1688.92 2091.27 1698.08 2016.42 1698.08ZM2021 1707.25 1993.5 1693.5 2021 1679.75Z" fill="#002060"/><rect x="1126" y="1797" width="417" height="82.9999" fill="#FF5B60"/><text fill="#FFFFFF" font-family="Times New Roman,Times New Roman_MSFontService,sans-serif" font-weight="400" font-size="46" transform="matrix(1 0 0 1 1188.69 1855)">Blind Decoding</text></g></svg>