<svg width="1353" height="565" xmlns="http://www.w3.org/2000/svg" xmlns:xlink="http://www.w3.org/1999/xlink" xml:space="preserve" overflow="hidden"><g transform="translate(-1581 -384)"><path d="M2195.66 592.498C2194.13 592.498 2192.63 593.014 2191.14 594.047 2189.66 595.081 2188.04 596.735 2186.27 599.011 2184.5 601.287 2183.13 603.534 2182.14 605.75 2181.15 607.966 2180.37 610.511 2179.8 613.386L2179.44 615.273C2179.14 616.86 2178.96 618.073 2178.88 618.912 2178.81 619.75 2178.77 620.574 2178.77 621.382 2178.77 623.718 2179.27 625.418 2180.27 626.481 2181.28 627.544 2183.01 628.076 2185.46 628.076 2186.99 628.076 2188.4 627.776 2189.68 627.177 2190.97 626.578 2192.19 625.71 2193.35 624.572 2194.5 623.434 2195.54 622.056 2196.47 620.439 2197.4 618.822 2198.23 616.943 2198.96 614.801 2199.69 612.66 2200.25 610.459 2200.62 608.198 2201 605.937 2201.18 603.818 2201.18 601.841 2201.18 598.697 2200.74 596.353 2199.86 594.811 2198.98 593.269 2197.58 592.498 2195.66 592.498ZM2176.75 587.197C2178.6 587.197 2180.08 587.811 2181.17 589.039 2182.27 590.267 2182.81 591.899 2182.81 593.935 2182.81 595.612 2182.47 597.379 2181.78 599.236L2182.32 599.416C2187.86 591.3 2193.37 587.242 2198.85 587.242 2202.11 587.242 2204.65 588.485 2206.46 590.97 2208.27 593.456 2209.18 596.96 2209.18 601.482 2209.18 606.423 2208.19 611.283 2206.19 616.059 2204.2 620.836 2201.44 624.624 2197.91 627.424 2194.37 630.225 2190.42 631.625 2186.05 631.625 2182.06 631.625 2178.75 630.756 2176.12 629.019L2174.05 638.857C2173.6 640.983 2173.38 642.735 2173.38 644.113 2173.38 645.431 2173.72 646.367 2174.39 646.921 2175.06 647.475 2176.37 647.841 2178.32 648.021L2177.96 650.222 2164.08 650.222 2174.91 602.56C2175.53 599.805 2175.85 597.544 2175.85 595.777 2175.85 594.579 2175.65 593.711 2175.26 593.172 2174.88 592.632 2174.26 592.363 2173.42 592.363 2172.49 592.363 2171.51 592.745 2170.48 593.508 2169.45 594.272 2168.03 595.657 2166.24 597.664L2163.68 595.148C2166.37 592.333 2168.65 590.304 2170.53 589.061 2172.4 587.818 2174.47 587.197 2176.75 587.197Z" fill-rule="evenodd"/><text fill="#000000" fill-opacity="0" font-family="Arial,Arial_MSFontService,sans-serif" font-size="63.0254" x="2163.68" y="642.344">ğ‘</text><path d="M2230.08 610.414C2228.55 610.414 2227.27 610.812 2226.25 611.608 2225.22 612.404 2224.41 613.57 2223.81 615.108 2223.21 616.646 2222.79 618.521 2222.54 620.735 2222.28 622.949 2222.16 625.462 2222.16 628.276 2222.16 631.526 2222.32 634.333 2222.63 636.7 2222.95 639.066 2223.44 641.013 2224.11 642.539 2224.77 644.066 2225.61 645.189 2226.61 645.909 2227.61 646.629 2228.81 646.989 2230.21 646.989 2231.52 646.989 2232.66 646.651 2233.64 645.975 2234.62 645.298 2235.44 644.246 2236.08 642.818 2236.72 641.389 2237.21 639.579 2237.54 637.387 2237.86 635.195 2238.03 632.605 2238.03 629.617 2238.03 626.258 2237.85 623.369 2237.49 620.948 2237.13 618.527 2236.62 616.537 2235.96 614.977 2235.31 613.418 2234.49 612.267 2233.49 611.526 2232.5 610.784 2231.36 610.414 2230.08 610.414ZM2230.21 607.24C2232.8 607.24 2235.02 607.725 2236.86 608.696 2238.71 609.667 2240.21 611.051 2241.38 612.851 2242.55 614.65 2243.4 616.847 2243.95 619.443 2244.49 622.038 2244.77 624.972 2244.77 628.243 2244.77 635.506 2243.48 640.996 2240.9 644.715 2238.33 648.434 2234.6 650.293 2229.72 650.293 2224.87 650.293 2221.28 648.537 2218.92 645.026 2216.56 641.514 2215.39 636.193 2215.39 629.061 2215.39 625.331 2215.75 622.104 2216.48 619.377 2217.21 616.651 2218.24 614.388 2219.56 612.589 2220.88 610.79 2222.44 609.448 2224.25 608.565 2226.06 607.682 2228.05 607.24 2230.21 607.24Z" fill-rule="evenodd"/><text fill="#000000" fill-opacity="0" font-family="Arial,Arial_MSFontService,sans-serif" font-size="43.0527" x="2215.39" y="644.911">0</text><path d="M2196.71 699.954C2195.19 699.954 2193.68 700.471 2192.2 701.504 2190.72 702.537 2189.09 704.192 2187.32 706.468 2185.56 708.744 2184.18 710.99 2183.19 713.206 2182.2 715.422 2181.43 717.968 2180.86 720.843L2180.5 722.729C2180.2 724.317 2180.01 725.529 2179.94 726.368 2179.86 727.207 2179.82 728.03 2179.82 728.839 2179.82 731.175 2180.32 732.874 2181.33 733.937 2182.33 735 2184.06 735.532 2186.52 735.532 2188.04 735.532 2189.45 735.233 2190.74 734.634 2192.03 734.035 2193.25 733.166 2194.4 732.028 2195.55 730.89 2196.59 729.513 2197.52 727.895 2198.45 726.278 2199.28 724.399 2200.02 722.258 2200.75 720.116 2201.3 717.915 2201.68 715.654 2202.05 713.393 2202.24 711.274 2202.24 709.298 2202.24 706.153 2201.8 703.81 2200.91 702.267 2200.03 700.725 2198.63 699.954 2196.71 699.954ZM2177.8 694.653C2179.66 694.653 2181.13 695.267 2182.23 696.495 2183.32 697.723 2183.87 699.355 2183.87 701.391 2183.87 703.068 2183.52 704.835 2182.83 706.692L2183.37 706.872C2188.91 698.756 2194.42 694.698 2199.9 694.698 2203.17 694.698 2205.71 695.941 2207.52 698.427 2209.33 700.912 2210.24 704.416 2210.24 708.938 2210.24 713.88 2209.24 718.739 2207.25 723.515 2205.26 728.292 2202.49 732.081 2198.96 734.881 2195.43 737.681 2191.47 739.081 2187.1 739.081 2183.12 739.081 2179.81 738.212 2177.17 736.475L2175.11 746.313C2174.66 748.44 2174.43 750.192 2174.43 751.569 2174.43 752.887 2174.77 753.823 2175.44 754.377 2176.12 754.931 2177.43 755.298 2179.37 755.477L2179.01 757.679 2165.13 757.679 2175.96 710.016C2176.59 707.261 2176.9 705 2176.9 703.233 2176.9 702.035 2176.71 701.167 2176.32 700.628 2175.93 700.089 2175.32 699.819 2174.48 699.819 2173.55 699.819 2172.57 700.201 2171.53 700.965 2170.5 701.728 2169.09 703.113 2167.29 705.12L2164.73 702.604C2167.42 699.789 2169.71 697.76 2171.58 696.517 2173.45 695.275 2175.53 694.653 2177.8 694.653Z" fill-rule="evenodd"/><text fill="#000000" fill-opacity="0" font-family="Arial,Arial_MSFontService,sans-serif" font-size="63.0254" x="2164.73" y="749.8">ğ‘</text><path d="M2231.68 714.925 2233.68 714.925C2233.63 716.125 2233.6 717.199 2233.58 718.148 2233.56 719.097 2233.54 720.018 2233.53 720.912 2233.52 721.806 2233.51 722.69 2233.51 723.562L2233.51 748.425C2233.51 749.102 2233.54 749.685 2233.58 750.176 2233.62 750.666 2233.69 751.081 2233.79 751.419 2233.89 751.757 2234.02 752.046 2234.18 752.286 2234.35 752.526 2234.54 752.733 2234.76 752.907 2235.02 753.169 2235.37 753.371 2235.8 753.513 2236.24 753.654 2236.8 753.774 2237.47 753.872 2238.15 753.971 2238.96 754.047 2239.91 754.101 2240.86 754.156 2242 754.194 2243.33 754.216L2243.33 757.062 2217.39 757.062 2217.39 754.216C2218.67 754.172 2219.76 754.123 2220.66 754.069 2221.55 754.014 2222.31 753.938 2222.95 753.84 2223.58 753.742 2224.09 753.633 2224.47 753.513 2224.85 753.393 2225.18 753.245 2225.47 753.071 2225.77 752.875 2226.03 752.662 2226.25 752.433 2226.47 752.204 2226.64 751.915 2226.77 751.566 2226.91 751.217 2227.01 750.792 2227.09 750.29 2227.16 749.789 2227.2 749.167 2227.2 748.425L2227.2 724.969C2227.2 724.118 2227.04 723.518 2226.71 723.17 2226.38 722.821 2225.91 722.646 2225.3 722.646 2224.63 722.646 2223.62 722.995 2222.29 723.693 2220.96 724.391 2219.24 725.427 2217.12 726.801 2216.84 726.299 2216.58 725.798 2216.34 725.296 2216.1 724.794 2215.85 724.282 2215.59 723.758 2218.29 722.275 2220.97 720.798 2223.62 719.326 2226.27 717.853 2228.96 716.387 2231.68 714.925Z" fill-rule="evenodd"/><text fill="#000000" fill-opacity="0" font-family="Arial,Arial_MSFontService,sans-serif" font-size="42.1367" x="2215.59" y="751.795">1</text><path d="M2166 795C2151.64 795 2140 795 2140 795L2140 549C2140 549 2151.64 549 2166 549" stroke="#002060" stroke-width="8.02083" stroke-miterlimit="8" fill="none" fill-rule="evenodd"/><path d="M27.0002 246C12.0884 246 1.83276e-10 246-3.91491e-15 246L0 0.000269029C-1.83276e-10 0.000120448 12.0884-1.48045e-15 27.0002-3.30659e-15" stroke="#002060" stroke-width="8.02083" stroke-miterlimit="8" fill="none" fill-rule="evenodd" transform="matrix(-1 0 0 1 2277 549)"/><path d="M2342.5 526.771 2482.75 526.771 2482.75 538.229 2342.5 538.229ZM2477.02 515.313 2511.4 532.5 2477.02 549.688Z" fill="#1CADE4"/><rect x="2075" y="452" width="266" height="429" stroke="#064760" stroke-width="10.3125" stroke-miterlimit="8" fill="none"/><path d="M2342.5 789.771 2482.75 789.771 2482.75 801.229 2342.5 801.229ZM2477.02 778.313 2511.4 795.5 2477.02 812.688Z" fill="#1CADE4"/><path d="M1906.5 675.771 2046.75 675.771 2046.75 687.23 1906.5 687.229ZM2041.02 664.313 2075.4 681.501 2041.02 698.688Z" fill="#1CADE4"/><path d="M1670.1 653.652 1687.57 653.652 1687.57 655.152C1686.46 655.152 1685.68 655.341 1685.24 655.719 1684.79 656.098 1684.57 656.597 1684.57 657.219 1684.57 657.867 1685.04 658.867 1685.99 660.218 1686.28 660.65 1686.73 661.326 1687.32 662.244L1689.96 666.459 1693 662.244C1694.94 659.569 1695.92 657.881 1695.92 657.178 1695.92 656.611 1695.69 656.131 1695.23 655.74 1694.77 655.348 1694.02 655.152 1693 655.152L1693 653.652 1705.56 653.652 1705.56 655.152C1704.24 655.233 1703.09 655.598 1702.12 656.246 1700.79 657.165 1698.98 659.164 1696.69 662.244L1691.62 669.012 1700.86 682.305C1703.13 685.574 1704.75 687.54 1705.72 688.202 1706.7 688.864 1707.95 689.235 1709.49 689.316L1709.49 690.775 1691.98 690.775 1691.98 689.316C1693.2 689.316 1694.15 689.046 1694.82 688.506 1695.33 688.128 1695.59 687.628 1695.59 687.006 1695.59 686.385 1694.73 684.818 1693 682.305L1687.57 674.362 1681.61 682.305C1679.77 684.764 1678.85 686.223 1678.85 686.682 1678.85 687.331 1679.16 687.918 1679.77 688.445 1680.37 688.972 1681.29 689.262 1682.5 689.316L1682.5 690.775 1670.38 690.775 1670.38 689.316C1671.36 689.181 1672.21 688.844 1672.94 688.303 1673.96 687.52 1675.69 685.52 1678.12 682.305L1685.91 671.971 1678.85 661.758C1676.85 658.84 1675.31 657.009 1674.21 656.266 1673.12 655.523 1671.75 655.152 1670.1 655.152Z" fill-rule="evenodd"/><text fill="#000000" fill-opacity="0" font-family="Arial,Arial_MSFontService,sans-serif" font-size="37.123" x="1670.1" y="686.135">x</text><path d="M1838.21 682.07C1835.97 682.07 1833.96 682.941 1832.19 684.684 1830.42 686.427 1829.39 688.852 1829.09 691.959L1846.27 691.959C1846.14 689.581 1845.85 687.906 1845.42 686.933 1844.75 685.42 1843.74 684.232 1842.4 683.367 1841.07 682.502 1839.67 682.07 1838.21 682.07ZM1768.13 679.233 1769.87 679.233 1769.87 687.136C1772.57 684.434 1774.17 682.881 1774.65 682.475 1775.87 681.449 1777.18 680.652 1778.59 680.084 1779.99 679.517 1781.38 679.233 1782.76 679.233 1785.08 679.233 1787.08 679.909 1788.76 681.26 1790.43 682.61 1791.55 684.569 1792.12 687.136 1794.9 683.894 1797.26 681.766 1799.17 680.753 1801.09 679.74 1803.06 679.233 1805.09 679.233 1807.06 679.233 1808.81 679.74 1810.34 680.753 1811.87 681.766 1813.07 683.421 1813.97 685.718 1814.56 687.285 1814.86 689.743 1814.86 693.094L1814.86 709.061C1814.86 711.385 1815.03 712.979 1815.38 713.844 1815.65 714.438 1816.15 714.945 1816.88 715.363 1817.61 715.782 1818.8 715.991 1820.45 715.991L1820.45 717.45 1802.13 717.45 1802.13 715.991 1802.9 715.991C1804.5 715.991 1805.74 715.681 1806.63 715.059 1807.25 714.627 1807.7 713.938 1807.97 712.992 1808.08 712.533 1808.13 711.223 1808.13 709.061L1808.13 693.094C1808.13 690.067 1807.77 687.933 1807.04 686.69 1805.98 684.961 1804.29 684.096 1801.97 684.096 1800.54 684.096 1799.1 684.454 1797.65 685.17 1796.21 685.886 1794.46 687.217 1792.41 689.162L1792.32 689.608 1792.41 691.351 1792.41 709.061C1792.41 711.601 1792.55 713.182 1792.83 713.803 1793.11 714.424 1793.65 714.945 1794.43 715.363 1795.22 715.782 1796.55 715.991 1798.44 715.991L1798.44 717.45 1779.68 717.45 1779.68 715.991C1781.73 715.991 1783.15 715.748 1783.92 715.262 1784.69 714.776 1785.22 714.046 1785.52 713.073 1785.65 712.614 1785.72 711.277 1785.72 709.061L1785.72 693.094C1785.72 690.067 1785.27 687.893 1784.38 686.569 1783.19 684.839 1781.53 683.975 1779.4 683.975 1777.94 683.975 1776.49 684.367 1775.06 685.15 1772.82 686.339 1771.09 687.676 1769.87 689.162L1769.87 709.061C1769.87 711.493 1770.04 713.073 1770.38 713.803 1770.72 714.532 1771.22 715.08 1771.88 715.444 1772.54 715.809 1773.88 715.991 1775.91 715.991L1775.91 717.45 1757.55 717.45 1757.55 715.991C1759.25 715.991 1760.44 715.809 1761.12 715.444 1761.79 715.08 1762.31 714.499 1762.66 713.702 1763.01 712.905 1763.19 711.358 1763.19 709.061L1763.19 694.877C1763.19 690.797 1763.06 688.163 1762.82 686.974 1762.63 686.082 1762.33 685.468 1761.93 685.13 1761.52 684.792 1760.97 684.623 1760.27 684.623 1759.51 684.623 1758.61 684.826 1757.55 685.231L1756.94 683.772ZM1746.87 679.233 1748.66 679.233 1748.66 709.061C1748.66 711.385 1748.82 712.932 1749.16 713.702 1749.5 714.472 1750 715.046 1750.66 715.424 1751.32 715.802 1752.53 715.991 1754.29 715.991L1754.29 717.45 1736.25 717.45 1736.25 715.991C1738.06 715.991 1739.28 715.816 1739.9 715.465 1740.52 715.113 1741.02 714.532 1741.38 713.722 1741.75 712.911 1741.93 711.358 1741.93 709.061L1741.93 694.755C1741.93 690.729 1741.81 688.122 1741.56 686.933 1741.37 686.069 1741.08 685.468 1740.67 685.13 1740.27 684.792 1739.71 684.623 1739.01 684.623 1738.25 684.623 1737.33 684.826 1736.25 685.231L1735.69 683.772ZM1840.48 679.193C1844.64 679.193 1848.06 680.564 1850.73 683.306 1853.41 686.049 1854.74 689.716 1854.74 694.309L1829.09 694.309C1829.06 699.821 1830.4 704.144 1833.1 707.278 1835.8 710.412 1838.98 711.979 1842.63 711.979 1845.06 711.979 1847.17 711.311 1848.97 709.973 1850.77 708.636 1852.27 706.346 1853.49 703.104L1854.74 703.914C1854.18 707.616 1852.53 710.986 1849.8 714.026 1847.07 717.065 1843.65 718.585 1839.55 718.585 1835.09 718.585 1831.27 716.849 1828.1 713.377 1824.92 709.906 1823.34 705.238 1823.34 699.375 1823.34 693.026 1824.96 688.075 1828.22 684.522 1831.47 680.969 1835.56 679.193 1840.48 679.193ZM1722.37 668.129 1723.63 668.129 1723.63 680.327 1732.3 680.327 1732.3 683.164 1723.63 683.164 1723.63 707.238C1723.63 709.642 1723.97 711.263 1724.66 712.101 1725.35 712.938 1726.24 713.357 1727.32 713.357 1728.21 713.357 1729.07 713.08 1729.91 712.526 1730.75 711.972 1731.4 711.155 1731.86 710.074L1733.44 710.074C1732.49 712.722 1731.15 714.715 1729.42 716.052 1727.7 717.39 1725.91 718.058 1724.08 718.058 1722.83 718.058 1721.62 717.714 1720.43 717.025 1719.24 716.336 1718.36 715.35 1717.79 714.066 1717.23 712.783 1716.94 710.804 1716.94 708.129L1716.94 683.164 1711.07 683.164 1711.07 681.827C1712.55 681.232 1714.07 680.226 1715.63 678.808 1717.18 677.389 1718.56 675.707 1719.78 673.762 1720.4 672.735 1721.27 670.857 1722.37 668.129ZM1745.29 659.821C1746.43 659.821 1747.39 660.219 1748.19 661.016 1748.99 661.813 1749.39 662.779 1749.39 663.914 1749.39 665.049 1748.99 666.021 1748.19 666.832 1747.39 667.642 1746.43 668.048 1745.29 668.048 1744.16 668.048 1743.18 667.642 1742.37 666.832 1741.56 666.021 1741.16 665.049 1741.16 663.914 1741.16 662.779 1741.56 661.813 1742.35 661.016 1743.15 660.219 1744.13 659.821 1745.29 659.821Z" fill-rule="evenodd"/><text fill="#000000" fill-opacity="0" font-family="Arial,Arial_MSFontService,sans-serif" font-size="58.7646" x="1711.07" y="711.24">time</text><path d="M2571.1 521.695C2569.72 521.695 2568.36 522.161 2567.02 523.094 2565.69 524.026 2564.22 525.518 2562.63 527.572 2561.03 529.625 2559.79 531.652 2558.9 533.651 2558.01 535.65 2557.3 537.947 2556.79 540.541L2556.47 542.243C2556.2 543.675 2556.03 544.769 2555.96 545.525 2555.89 546.282 2555.86 547.025 2555.86 547.754 2555.86 549.862 2556.31 551.395 2557.22 552.354 2558.12 553.313 2559.68 553.793 2561.9 553.793 2563.27 553.793 2564.54 553.523 2565.71 552.982 2566.87 552.442 2567.97 551.659 2569.01 550.632 2570.05 549.605 2570.99 548.362 2571.83 546.903 2572.66 545.444 2573.41 543.749 2574.08 541.817 2574.74 539.885 2575.24 537.9 2575.57 535.86 2575.91 533.82 2576.08 531.908 2576.08 530.125 2576.08 527.288 2575.68 525.174 2574.89 523.783 2574.09 522.391 2572.83 521.695 2571.1 521.695ZM2554.03 516.913C2555.71 516.913 2557.04 517.467 2558.03 518.575 2559.01 519.682 2559.51 521.155 2559.51 522.992 2559.51 524.505 2559.19 526.099 2558.57 527.774L2559.06 527.937C2564.06 520.615 2569.03 516.954 2573.97 516.954 2576.92 516.954 2579.21 518.075 2580.84 520.317 2582.48 522.56 2583.3 525.721 2583.3 529.801 2583.3 534.259 2582.4 538.643 2580.6 542.952 2578.8 547.261 2576.31 550.679 2573.12 553.205 2569.93 555.732 2566.37 556.995 2562.42 556.995 2558.83 556.995 2555.84 556.211 2553.47 554.644L2551.6 563.52C2551.2 565.438 2550.99 567.018 2550.99 568.261 2550.99 569.45 2551.3 570.294 2551.91 570.794 2552.51 571.294 2553.7 571.625 2555.45 571.787L2555.13 573.773 2542.61 573.773 2552.37 530.773C2552.94 528.288 2553.22 526.248 2553.22 524.654 2553.22 523.573 2553.05 522.79 2552.7 522.303 2552.35 521.817 2551.79 521.574 2551.04 521.574 2550.2 521.574 2549.31 521.918 2548.38 522.607 2547.45 523.296 2546.17 524.546 2544.55 526.356L2542.24 524.086C2544.67 521.547 2546.73 519.716 2548.42 518.595 2550.11 517.474 2551.98 516.913 2554.03 516.913Z" fill-rule="evenodd"/><text fill="#000000" fill-opacity="0" font-family="Arial,Arial_MSFontService,sans-serif" font-size="56.8599" x="2542.24" y="566.666">ğ‘</text><path d="M2602.15 537.507C2600.76 537.507 2599.6 537.87 2598.67 538.595 2597.73 539.319 2596.99 540.382 2596.45 541.782 2595.9 543.181 2595.51 544.889 2595.29 546.905 2595.06 548.92 2594.94 551.209 2594.94 553.77 2594.94 556.729 2595.09 559.285 2595.38 561.44 2595.66 563.594 2596.11 565.366 2596.72 566.756 2597.32 568.146 2598.08 569.169 2598.99 569.824 2599.91 570.48 2601 570.807 2602.27 570.807 2603.46 570.807 2604.5 570.499 2605.4 569.884 2606.29 569.268 2607.03 568.31 2607.62 567.01 2608.2 565.709 2608.65 564.061 2608.94 562.065 2609.24 560.07 2609.39 557.712 2609.39 554.991 2609.39 551.933 2609.23 549.302 2608.9 547.098 2608.57 544.894 2608.11 543.082 2607.51 541.662 2606.92 540.243 2606.17 539.195 2605.26 538.52 2604.36 537.845 2603.32 537.507 2602.15 537.507ZM2602.27 534.618C2604.63 534.618 2606.65 535.06 2608.33 535.944 2610.01 536.827 2611.38 538.088 2612.44 539.726 2613.5 541.365 2614.28 543.365 2614.78 545.728 2615.28 548.091 2615.53 550.762 2615.53 553.74 2615.53 560.353 2614.35 565.352 2612.01 568.737 2609.67 572.123 2606.27 573.815 2601.82 573.815 2597.42 573.815 2594.14 572.217 2592 569.02 2589.85 565.823 2588.78 560.978 2588.78 554.485 2588.78 551.089 2589.11 548.151 2589.78 545.669 2590.44 543.186 2591.37 541.126 2592.58 539.488 2593.78 537.85 2595.2 536.629 2596.85 535.825 2598.5 535.02 2600.31 534.618 2602.27 534.618Z" fill-rule="evenodd"/><text fill="#000000" fill-opacity="0" font-family="Arial,Arial_MSFontService,sans-serif" font-size="39.1973" x="2588.78" y="568.916">0</text><path d="M2627.27 546.944 2635.46 546.944 2635.46 556.346 2627.27 556.346Z" fill-rule="evenodd"/><text fill="#000000" fill-opacity="0" font-family="Arial,Arial_MSFontService,sans-serif" font-size="9.40234" x="2627.27" y="555.171">.</text><path d="M2654.88 519.223 2672.35 519.223 2672.35 520.723C2671.24 520.723 2670.47 520.912 2670.02 521.29 2669.57 521.668 2669.35 522.168 2669.35 522.79 2669.35 523.438 2669.82 524.438 2670.77 525.789 2671.07 526.221 2671.51 526.896 2672.11 527.815L2674.74 532.03 2677.78 527.815C2679.73 525.14 2680.7 523.452 2680.7 522.749 2680.7 522.182 2680.47 521.702 2680.01 521.31 2679.55 520.919 2678.81 520.723 2677.78 520.723L2677.78 519.223 2690.34 519.223 2690.34 520.723C2689.02 520.804 2687.87 521.169 2686.9 521.817 2685.58 522.736 2683.77 524.735 2681.47 527.815L2676.4 534.583 2685.64 547.876C2687.91 551.145 2689.53 553.111 2690.51 553.773 2691.48 554.435 2692.74 554.806 2694.28 554.887L2694.28 556.346 2676.77 556.346 2676.77 554.887C2677.98 554.887 2678.93 554.617 2679.61 554.077 2680.12 553.698 2680.38 553.199 2680.38 552.577 2680.38 551.956 2679.51 550.389 2677.78 547.876L2672.35 539.933 2666.39 547.876C2664.56 550.335 2663.64 551.794 2663.64 552.253 2663.64 552.901 2663.94 553.489 2664.55 554.016 2665.16 554.543 2666.07 554.833 2667.28 554.887L2667.28 556.346 2655.17 556.346 2655.17 554.887C2656.14 554.752 2656.99 554.414 2657.72 553.874 2658.75 553.091 2660.48 551.091 2662.91 547.876L2670.69 537.542 2663.64 527.329C2661.64 524.411 2660.09 522.58 2659 521.837 2657.9 521.094 2656.53 520.723 2654.88 520.723Z" fill-rule="evenodd"/><text fill="#000000" fill-opacity="0" font-family="Arial,Arial_MSFontService,sans-serif" font-size="37.123" x="2654.88" y="551.706">x</text><path d="M2822.99 547.641C2820.75 547.641 2818.74 548.512 2816.97 550.255 2815.2 551.998 2814.17 554.422 2813.87 557.53L2831.06 557.53C2830.92 555.152 2830.64 553.477 2830.21 552.504 2829.53 550.991 2828.52 549.802 2827.19 548.938 2825.85 548.073 2824.45 547.641 2822.99 547.641ZM2752.91 544.804 2754.66 544.804 2754.66 552.707C2757.36 550.005 2758.95 548.451 2759.44 548.046 2760.65 547.019 2761.96 546.222 2763.37 545.655 2764.77 545.088 2766.17 544.804 2767.54 544.804 2769.87 544.804 2771.87 545.479 2773.54 546.83 2775.22 548.181 2776.34 550.14 2776.91 552.707 2779.69 549.465 2782.04 547.337 2783.96 546.324 2785.88 545.311 2787.85 544.804 2789.87 544.804 2791.85 544.804 2793.6 545.311 2795.12 546.324 2796.65 547.337 2797.86 548.992 2798.75 551.288 2799.34 552.855 2799.64 555.314 2799.64 558.664L2799.64 574.632C2799.64 576.956 2799.82 578.55 2800.17 579.414 2800.44 580.009 2800.94 580.515 2801.67 580.934 2802.4 581.353 2803.59 581.562 2805.23 581.562L2805.23 583.021 2786.92 583.021 2786.92 581.562 2787.69 581.562C2789.28 581.562 2790.52 581.252 2791.41 580.63 2792.04 580.198 2792.48 579.509 2792.75 578.563 2792.86 578.104 2792.91 576.794 2792.91 574.632L2792.91 558.664C2792.91 555.638 2792.55 553.504 2791.82 552.261 2790.77 550.532 2789.08 549.667 2786.75 549.667 2785.32 549.667 2783.88 550.025 2782.44 550.741 2780.99 551.457 2779.24 552.788 2777.19 554.733L2777.11 555.179 2777.19 556.922 2777.19 574.632C2777.19 577.172 2777.33 578.752 2777.62 579.374 2777.9 579.995 2778.43 580.515 2779.22 580.934 2780 581.353 2781.34 581.562 2783.23 581.562L2783.23 583.021 2764.46 583.021 2764.46 581.562C2766.52 581.562 2767.93 581.319 2768.7 580.833 2769.47 580.346 2770 579.617 2770.3 578.644 2770.44 578.185 2770.5 576.848 2770.5 574.632L2770.5 558.664C2770.5 555.638 2770.06 553.463 2769.17 552.139 2767.98 550.41 2766.31 549.546 2764.18 549.546 2762.72 549.546 2761.28 549.937 2759.84 550.721 2757.6 551.91 2755.87 553.247 2754.66 554.733L2754.66 574.632C2754.66 577.064 2754.83 578.644 2755.16 579.374 2755.5 580.103 2756 580.65 2756.66 581.015 2757.32 581.38 2758.67 581.562 2760.7 581.562L2760.7 583.021 2742.34 583.021 2742.34 581.562C2744.04 581.562 2745.23 581.38 2745.9 581.015 2746.58 580.65 2747.09 580.07 2747.44 579.272 2747.79 578.475 2747.97 576.929 2747.97 574.632L2747.97 560.448C2747.97 556.368 2747.85 553.733 2747.6 552.545 2747.42 551.653 2747.12 551.038 2746.71 550.701 2746.31 550.363 2745.75 550.194 2745.05 550.194 2744.29 550.194 2743.39 550.397 2742.34 550.802L2741.73 549.343ZM2731.66 544.804 2733.44 544.804 2733.44 574.632C2733.44 576.956 2733.61 578.502 2733.95 579.272 2734.28 580.042 2734.78 580.617 2735.45 580.995 2736.11 581.373 2737.32 581.562 2739.07 581.562L2739.07 583.021 2721.04 583.021 2721.04 581.562C2722.85 581.562 2724.06 581.387 2724.69 581.035 2725.31 580.684 2725.8 580.103 2726.17 579.293 2726.53 578.482 2726.71 576.929 2726.71 574.632L2726.71 560.326C2726.71 556.3 2726.59 553.693 2726.35 552.504 2726.16 551.64 2725.86 551.038 2725.46 550.701 2725.05 550.363 2724.5 550.194 2723.79 550.194 2723.04 550.194 2722.12 550.397 2721.04 550.802L2720.47 549.343ZM2825.26 544.763C2829.42 544.763 2832.84 546.135 2835.52 548.877 2838.19 551.619 2839.53 555.287 2839.53 559.88L2813.87 559.88C2813.85 565.392 2815.18 569.715 2817.89 572.849 2820.59 575.983 2823.76 577.55 2827.41 577.55 2829.84 577.55 2831.96 576.881 2833.75 575.544 2835.55 574.207 2837.06 571.917 2838.27 568.675L2839.53 569.485C2838.96 573.187 2837.31 576.557 2834.58 579.597 2831.85 582.636 2828.44 584.156 2824.33 584.156 2819.87 584.156 2816.06 582.42 2812.88 578.948 2809.71 575.476 2808.12 570.809 2808.12 564.946 2808.12 558.597 2809.75 553.646 2813 550.093 2816.26 546.54 2820.35 544.763 2825.26 544.763ZM2707.16 533.699 2708.41 533.699 2708.41 545.898 2717.09 545.898 2717.09 548.735 2708.41 548.735 2708.41 572.808C2708.41 575.213 2708.76 576.834 2709.45 577.672 2710.14 578.509 2711.02 578.928 2712.1 578.928 2712.99 578.928 2713.86 578.651 2714.7 578.097 2715.53 577.543 2716.18 576.726 2716.64 575.645L2718.22 575.645C2717.28 578.293 2715.94 580.286 2714.21 581.623 2712.48 582.96 2710.7 583.629 2708.86 583.629 2707.62 583.629 2706.4 583.285 2705.21 582.596 2704.02 581.907 2703.14 580.921 2702.58 579.637 2702.01 578.354 2701.73 576.375 2701.73 573.7L2701.73 548.735 2695.85 548.735 2695.85 547.398C2697.34 546.803 2698.86 545.797 2700.41 544.378 2701.96 542.96 2703.35 541.278 2704.56 539.333 2705.18 538.306 2706.05 536.428 2707.16 533.699ZM2730.08 525.391C2731.21 525.391 2732.18 525.79 2732.97 526.587 2733.77 527.384 2734.17 528.35 2734.17 529.485 2734.17 530.619 2733.77 531.592 2732.97 532.403 2732.18 533.213 2731.21 533.618 2730.08 533.618 2728.94 533.618 2727.97 533.213 2727.16 532.403 2726.35 531.592 2725.94 530.619 2725.94 529.485 2725.94 528.35 2726.34 527.384 2727.14 526.587 2727.93 525.79 2728.91 525.391 2730.08 525.391Z" fill-rule="evenodd"/><text fill="#000000" fill-opacity="0" font-family="Arial,Arial_MSFontService,sans-serif" font-size="58.7646" x="2695.85" y="576.81">time</text><path d="M2571.19 787.048C2569.81 787.048 2568.45 787.514 2567.12 788.446 2565.78 789.378 2564.31 790.871 2562.72 792.924 2561.12 794.978 2559.88 797.004 2558.99 799.004 2558.1 801.003 2557.4 803.299 2556.88 805.893L2556.56 807.595C2556.29 809.027 2556.12 810.122 2556.05 810.878 2555.98 811.635 2555.95 812.378 2555.95 813.107 2555.95 815.214 2556.4 816.748 2557.31 817.707 2558.21 818.666 2559.77 819.146 2561.99 819.146 2563.37 819.146 2564.64 818.875 2565.8 818.335 2566.96 817.795 2568.06 817.011 2569.1 815.984 2570.14 814.958 2571.08 813.715 2571.92 812.256 2572.76 810.797 2573.51 809.102 2574.17 807.17 2574.83 805.238 2575.33 803.252 2575.67 801.212 2576 799.172 2576.17 797.261 2576.17 795.478 2576.17 792.641 2575.77 790.527 2574.98 789.135 2574.18 787.744 2572.92 787.048 2571.19 787.048ZM2554.13 782.266C2555.8 782.266 2557.13 782.82 2558.12 783.927 2559.1 785.035 2559.6 786.508 2559.6 788.345 2559.6 789.858 2559.29 791.452 2558.67 793.127L2559.15 793.289C2564.15 785.967 2569.12 782.306 2574.07 782.306 2577.01 782.306 2579.3 783.428 2580.94 785.67 2582.57 787.913 2583.39 791.074 2583.39 795.153 2583.39 799.611 2582.49 803.995 2580.69 808.305 2578.9 812.614 2576.4 816.032 2573.21 818.558 2570.03 821.084 2566.46 822.347 2562.52 822.347 2558.92 822.347 2555.94 821.564 2553.56 819.997L2551.69 828.872C2551.29 830.79 2551.09 832.371 2551.09 833.614 2551.09 834.803 2551.39 835.647 2552 836.147 2552.61 836.647 2553.79 836.978 2555.54 837.14L2555.22 839.126 2542.7 839.126 2552.46 796.126C2553.03 793.64 2553.32 791.601 2553.32 790.006 2553.32 788.926 2553.14 788.142 2552.79 787.656 2552.44 787.17 2551.88 786.926 2551.13 786.926 2550.29 786.926 2549.4 787.271 2548.47 787.96 2547.54 788.649 2546.26 789.898 2544.64 791.709L2542.33 789.439C2544.76 786.899 2546.82 785.069 2548.51 783.948 2550.2 782.826 2552.07 782.266 2554.13 782.266Z" fill-rule="evenodd"/><text fill="#000000" fill-opacity="0" font-family="Arial,Arial_MSFontService,sans-serif" font-size="56.8599" x="2542.33" y="832.018">ğ‘</text><path d="M2602.78 800.179 2604.6 800.179C2604.56 801.271 2604.53 802.249 2604.51 803.113 2604.49 803.977 2604.48 804.816 2604.47 805.63 2604.46 806.444 2604.45 807.248 2604.45 808.043L2604.45 830.679C2604.45 831.295 2604.47 831.826 2604.51 832.273 2604.55 832.72 2604.62 833.097 2604.7 833.405 2604.79 833.712 2604.91 833.976 2605.06 834.194 2605.21 834.412 2605.39 834.601 2605.58 834.76 2605.82 834.998 2606.14 835.182 2606.54 835.311 2606.93 835.44 2607.44 835.549 2608.06 835.639 2608.67 835.728 2609.41 835.797 2610.27 835.847 2611.14 835.897 2612.18 835.931 2613.39 835.951L2613.39 838.543 2589.77 838.543 2589.77 835.951C2590.94 835.912 2591.93 835.867 2592.75 835.817 2593.56 835.768 2594.26 835.698 2594.83 835.609 2595.41 835.519 2595.87 835.42 2596.22 835.311 2596.56 835.202 2596.87 835.068 2597.12 834.909 2597.4 834.73 2597.64 834.536 2597.84 834.328 2598.04 834.12 2598.2 833.856 2598.32 833.539 2598.44 833.221 2598.53 832.834 2598.6 832.377 2598.67 831.92 2598.7 831.354 2598.7 830.679L2598.7 809.323C2598.7 808.549 2598.55 808.003 2598.26 807.685 2597.96 807.367 2597.53 807.209 2596.98 807.209 2596.36 807.209 2595.45 807.526 2594.24 808.162 2593.02 808.797 2591.46 809.74 2589.53 810.991 2589.27 810.535 2589.03 810.078 2588.81 809.621 2588.6 809.164 2588.37 808.698 2588.13 808.221 2590.59 806.871 2593.03 805.526 2595.44 804.185 2597.85 802.845 2600.3 801.51 2602.78 800.179Z" fill-rule="evenodd"/><text fill="#000000" fill-opacity="0" font-family="Arial,Arial_MSFontService,sans-serif" font-size="38.3633" x="2588.13" y="833.747">1</text><path d="M2625.46 812.297 2633.65 812.297 2633.65 821.699 2625.46 821.699Z" fill-rule="evenodd"/><text fill="#000000" fill-opacity="0" font-family="Arial,Arial_MSFontService,sans-serif" font-size="9.40234" x="2625.46" y="820.524">.</text><path d="M2653.07 784.576 2670.54 784.576 2670.54 786.075C2669.43 786.075 2668.66 786.264 2668.21 786.643 2667.76 787.021 2667.54 787.521 2667.54 788.142 2667.54 788.791 2668.01 789.79 2668.96 791.141 2669.26 791.574 2669.7 792.249 2670.3 793.168L2672.93 797.382 2675.97 793.168C2677.92 790.493 2678.89 788.804 2678.89 788.102 2678.89 787.534 2678.66 787.055 2678.2 786.663 2677.74 786.271 2677 786.075 2675.97 786.075L2675.97 784.576 2688.53 784.576 2688.53 786.075C2687.21 786.156 2686.06 786.521 2685.09 787.17 2683.77 788.088 2681.96 790.088 2679.66 793.168L2674.59 799.936 2683.83 813.229C2686.1 816.498 2687.72 818.463 2688.7 819.125 2689.67 819.787 2690.93 820.159 2692.47 820.24L2692.47 821.699 2674.96 821.699 2674.96 820.24C2676.17 820.24 2677.12 819.97 2677.79 819.429 2678.31 819.051 2678.56 818.551 2678.56 817.93 2678.56 817.308 2677.7 815.741 2675.97 813.229L2670.54 805.285 2664.58 813.229C2662.75 815.687 2661.83 817.146 2661.83 817.606 2661.83 818.254 2662.13 818.842 2662.74 819.369 2663.35 819.895 2664.26 820.186 2665.47 820.24L2665.47 821.699 2653.36 821.699 2653.36 820.24C2654.33 820.105 2655.18 819.767 2655.91 819.227 2656.94 818.443 2658.67 816.444 2661.1 813.229L2668.88 802.894 2661.83 792.681C2659.83 789.763 2658.28 787.933 2657.19 787.19 2656.09 786.447 2654.72 786.075 2653.07 786.075Z" fill-rule="evenodd"/><text fill="#000000" fill-opacity="0" font-family="Arial,Arial_MSFontService,sans-serif" font-size="37.123" x="2653.07" y="817.058">x</text><path d="M2821.18 812.994C2818.94 812.994 2816.93 813.865 2815.16 815.608 2813.39 817.35 2812.36 819.775 2812.06 822.882L2829.25 822.882C2829.11 820.505 2828.83 818.829 2828.4 817.857 2827.72 816.344 2826.71 815.155 2825.38 814.29 2824.04 813.426 2822.64 812.994 2821.18 812.994ZM2751.1 810.157 2752.85 810.157 2752.85 818.059C2755.55 815.358 2757.14 813.804 2757.63 813.399 2758.84 812.372 2760.15 811.575 2761.56 811.008 2762.96 810.44 2764.36 810.157 2765.73 810.157 2768.06 810.157 2770.06 810.832 2771.73 812.183 2773.41 813.534 2774.53 815.493 2775.1 818.059 2777.88 814.817 2780.23 812.69 2782.15 811.676 2784.07 810.663 2786.04 810.157 2788.06 810.157 2790.04 810.157 2791.79 810.663 2793.31 811.676 2794.84 812.69 2796.05 814.344 2796.94 816.641 2797.53 818.208 2797.83 820.667 2797.83 824.017L2797.83 839.985C2797.83 842.308 2798.01 843.902 2798.36 844.767 2798.63 845.361 2799.13 845.868 2799.86 846.287 2800.59 846.706 2801.78 846.915 2803.42 846.915L2803.42 848.374 2785.11 848.374 2785.11 846.915 2785.88 846.915C2787.47 846.915 2788.71 846.604 2789.6 845.983 2790.23 845.55 2790.67 844.862 2790.94 843.916 2791.05 843.457 2791.1 842.146 2791.1 839.985L2791.1 824.017C2791.1 820.991 2790.74 818.857 2790.01 817.614 2788.96 815.884 2787.27 815.02 2784.94 815.02 2783.51 815.02 2782.07 815.378 2780.63 816.094 2779.18 816.81 2777.43 818.141 2775.38 820.086L2775.3 820.532 2775.38 822.274 2775.38 839.985C2775.38 842.524 2775.52 844.105 2775.8 844.726 2776.09 845.348 2776.62 845.868 2777.41 846.287 2778.19 846.706 2779.53 846.915 2781.42 846.915L2781.42 848.374 2762.65 848.374 2762.65 846.915C2764.71 846.915 2766.12 846.672 2766.89 846.185 2767.66 845.699 2768.19 844.97 2768.49 843.997 2768.62 843.538 2768.69 842.2 2768.69 839.985L2768.69 824.017C2768.69 820.991 2768.25 818.816 2767.35 817.492 2766.17 815.763 2764.5 814.898 2762.37 814.898 2760.91 814.898 2759.47 815.29 2758.03 816.074 2755.79 817.262 2754.06 818.6 2752.85 820.086L2752.85 839.985C2752.85 842.416 2753.01 843.997 2753.35 844.726 2753.69 845.456 2754.19 846.003 2754.85 846.368 2755.51 846.733 2756.86 846.915 2758.88 846.915L2758.88 848.374 2740.53 848.374 2740.53 846.915C2742.23 846.915 2743.42 846.733 2744.09 846.368 2744.77 846.003 2745.28 845.422 2745.63 844.625 2745.98 843.828 2746.16 842.281 2746.16 839.985L2746.16 825.8C2746.16 821.72 2746.04 819.086 2745.79 817.897 2745.6 817.006 2745.31 816.391 2744.9 816.053 2744.5 815.716 2743.94 815.547 2743.24 815.547 2742.48 815.547 2741.58 815.749 2740.53 816.155L2739.92 814.696ZM2729.85 810.157 2731.63 810.157 2731.63 839.985C2731.63 842.308 2731.8 843.855 2732.14 844.625 2732.47 845.395 2732.97 845.969 2733.64 846.348 2734.3 846.726 2735.51 846.915 2737.26 846.915L2737.26 848.374 2719.23 848.374 2719.23 846.915C2721.04 846.915 2722.25 846.739 2722.88 846.388 2723.5 846.037 2723.99 845.456 2724.35 844.645 2724.72 843.835 2724.9 842.281 2724.9 839.985L2724.9 825.679C2724.9 821.653 2724.78 819.046 2724.54 817.857 2724.35 816.992 2724.05 816.391 2723.65 816.053 2723.24 815.716 2722.69 815.547 2721.98 815.547 2721.23 815.547 2720.31 815.749 2719.23 816.155L2718.66 814.696ZM2823.45 810.116C2827.61 810.116 2831.03 811.487 2833.71 814.23 2836.38 816.972 2837.72 820.64 2837.72 825.233L2812.06 825.233C2812.04 830.745 2813.37 835.067 2816.08 838.202 2818.78 841.336 2821.95 842.903 2825.6 842.903 2828.03 842.903 2830.15 842.234 2831.94 840.897 2833.74 839.559 2835.25 837.269 2836.46 834.027L2837.72 834.838C2837.15 838.539 2835.5 841.91 2832.77 844.949 2830.04 847.989 2826.63 849.509 2822.52 849.509 2818.06 849.509 2814.25 847.773 2811.07 844.301 2807.9 840.829 2806.31 836.162 2806.31 830.299 2806.31 823.949 2807.94 818.998 2811.19 815.445 2814.45 811.893 2818.53 810.116 2823.45 810.116ZM2705.35 799.052 2706.6 799.052 2706.6 811.251 2715.28 811.251 2715.28 814.088 2706.6 814.088 2706.6 838.161C2706.6 840.566 2706.95 842.187 2707.64 843.024 2708.33 843.862 2709.21 844.281 2710.29 844.281 2711.18 844.281 2712.05 844.004 2712.88 843.45 2713.72 842.896 2714.37 842.079 2714.83 840.998L2716.41 840.998C2715.46 843.646 2714.13 845.638 2712.4 846.976 2710.67 848.313 2708.89 848.982 2707.05 848.982 2705.81 848.982 2704.59 848.637 2703.4 847.948 2702.21 847.259 2701.33 846.273 2700.77 844.99 2700.2 843.706 2699.92 841.727 2699.92 839.053L2699.92 814.088 2694.04 814.088 2694.04 812.75C2695.53 812.156 2697.05 811.15 2698.6 809.731 2700.15 808.313 2701.54 806.631 2702.75 804.685 2703.37 803.659 2704.24 801.781 2705.35 799.052ZM2728.27 790.744C2729.4 790.744 2730.37 791.143 2731.16 791.94 2731.96 792.737 2732.36 793.703 2732.36 794.837 2732.36 795.972 2731.96 796.945 2731.16 797.755 2730.37 798.566 2729.4 798.971 2728.27 798.971 2727.13 798.971 2726.16 798.566 2725.35 797.755 2724.54 796.945 2724.13 795.972 2724.13 794.837 2724.13 793.703 2724.53 792.737 2725.33 791.94 2726.12 791.143 2727.1 790.744 2728.27 790.744Z" fill-rule="evenodd"/><text fill="#000000" fill-opacity="0" font-family="Arial,Arial_MSFontService,sans-serif" font-size="58.7646" x="2694.04" y="842.163">time</text></g></svg>