<svg width="2328" height="596" xmlns="http://www.w3.org/2000/svg" xmlns:xlink="http://www.w3.org/1999/xlink" xml:space="preserve" overflow="hidden"><g transform="translate(-1371 -1213)"><path d="M2398.5 1377.77 2538.75 1377.77 2538.75 1389.23 2398.5 1389.23ZM2533.02 1366.31 2567.4 1383.5 2533.02 1400.69Z" fill="#1CADE4"/><rect x="1982" y="1303" width="415" height="415" stroke="#064760" stroke-width="10.3125" stroke-miterlimit="8" fill="none"/><path d="M2398.5 1640.77 2538.75 1640.77 2538.75 1652.23 2398.5 1652.23ZM2533.02 1629.31 2567.4 1646.5 2533.02 1663.69Z" fill="#1CADE4"/><path d="M2099.17 1431.56C2097.79 1431.56 2096.44 1432.03 2095.1 1432.96 2093.76 1433.89 2092.3 1435.38 2090.7 1437.44 2089.11 1439.49 2087.87 1441.52 2086.97 1443.52 2086.08 1445.52 2085.38 1447.81 2084.87 1450.41L2084.54 1452.11C2084.27 1453.54 2084.1 1454.63 2084.04 1455.39 2083.97 1456.15 2083.93 1456.89 2083.93 1457.62 2083.93 1459.73 2084.39 1461.26 2085.29 1462.22 2086.2 1463.18 2087.76 1463.66 2089.97 1463.66 2091.35 1463.66 2092.62 1463.39 2093.78 1462.85 2094.94 1462.31 2096.04 1461.52 2097.09 1460.5 2098.13 1459.47 2099.06 1458.23 2099.9 1456.77 2100.74 1455.31 2101.49 1453.61 2102.15 1451.68 2102.81 1449.75 2103.31 1447.77 2103.65 1445.73 2103.99 1443.69 2104.16 1441.77 2104.16 1439.99 2104.16 1437.15 2103.76 1435.04 2102.96 1433.65 2102.16 1432.26 2100.9 1431.56 2099.17 1431.56ZM2082.11 1426.78C2083.79 1426.78 2085.12 1427.33 2086.1 1428.44 2087.09 1429.55 2087.58 1431.02 2087.58 1432.86 2087.58 1434.37 2087.27 1435.96 2086.65 1437.64L2087.14 1437.8C2092.13 1430.48 2097.11 1426.82 2102.05 1426.82 2104.99 1426.82 2107.28 1427.94 2108.92 1430.18 2110.55 1432.43 2111.37 1435.59 2111.37 1439.67 2111.37 1444.12 2110.47 1448.51 2108.68 1452.82 2106.88 1457.13 2104.39 1460.54 2101.2 1463.07 2098.01 1465.6 2094.44 1466.86 2090.5 1466.86 2086.91 1466.86 2083.92 1466.08 2081.54 1464.51L2079.68 1473.39C2079.27 1475.3 2079.07 1476.88 2079.07 1478.13 2079.07 1479.32 2079.37 1480.16 2079.98 1480.66 2080.59 1481.16 2081.77 1481.49 2083.53 1481.65L2083.2 1483.64 2070.68 1483.64 2080.45 1440.64C2081.02 1438.15 2081.3 1436.11 2081.3 1434.52 2081.3 1433.44 2081.12 1432.66 2080.77 1432.17 2080.42 1431.68 2079.87 1431.44 2079.11 1431.44 2078.27 1431.44 2077.39 1431.78 2076.46 1432.47 2075.52 1433.16 2074.25 1434.41 2072.63 1436.22L2070.32 1433.95C2072.75 1431.41 2074.81 1429.58 2076.5 1428.46 2078.19 1427.34 2080.06 1426.78 2082.11 1426.78Z" fill-rule="evenodd"/><text fill="#000000" fill-opacity="0" font-family="Arial,Arial_MSFontService,sans-serif" font-size="56.8599" x="2070.32" y="1476.53">ğ‘</text><path d="M2130.23 1447.37C2128.84 1447.37 2127.68 1447.74 2126.74 1448.46 2125.81 1449.18 2125.07 1450.25 2124.52 1451.65 2123.98 1453.05 2123.59 1454.75 2123.36 1456.77 2123.13 1458.79 2123.02 1461.07 2123.02 1463.64 2123.02 1466.59 2123.16 1469.15 2123.45 1471.31 2123.74 1473.46 2124.19 1475.23 2124.79 1476.62 2125.4 1478.01 2126.16 1479.03 2127.07 1479.69 2127.98 1480.35 2129.08 1480.67 2130.35 1480.67 2131.54 1480.67 2132.58 1480.37 2133.47 1479.75 2134.37 1479.13 2135.11 1478.18 2135.69 1476.88 2136.28 1475.57 2136.72 1473.93 2137.02 1471.93 2137.32 1469.94 2137.47 1467.58 2137.47 1464.86 2137.47 1461.8 2137.3 1459.17 2136.97 1456.96 2136.65 1454.76 2136.18 1452.95 2135.59 1451.53 2134.99 1450.11 2134.24 1449.06 2133.34 1448.39 2132.44 1447.71 2131.4 1447.37 2130.23 1447.37ZM2130.35 1444.48C2132.71 1444.48 2134.73 1444.93 2136.41 1445.81 2138.09 1446.69 2139.46 1447.95 2140.52 1449.59 2141.58 1451.23 2142.36 1453.23 2142.86 1455.59 2143.35 1457.96 2143.6 1460.63 2143.6 1463.61 2143.6 1470.22 2142.43 1475.22 2140.09 1478.6 2137.74 1481.99 2134.35 1483.68 2129.9 1483.68 2125.49 1483.68 2122.22 1482.08 2120.07 1478.89 2117.93 1475.69 2116.85 1470.84 2116.85 1464.35 2116.85 1460.96 2117.19 1458.02 2117.85 1455.53 2118.52 1453.05 2119.45 1450.99 2120.65 1449.35 2121.85 1447.72 2123.28 1446.49 2124.93 1445.69 2126.57 1444.89 2128.38 1444.48 2130.35 1444.48Z" fill-rule="evenodd"/><text fill="#000000" fill-opacity="0" font-family="Arial,Arial_MSFontService,sans-serif" font-size="39.1973" x="2116.85" y="1478.78">0</text><path d="M2165.18 1447.37C2163.79 1447.37 2162.62 1447.74 2161.69 1448.46 2160.76 1449.18 2160.02 1450.25 2159.47 1451.65 2158.93 1453.05 2158.54 1454.75 2158.31 1456.77 2158.08 1458.79 2157.97 1461.07 2157.97 1463.64 2157.97 1466.59 2158.11 1469.15 2158.4 1471.31 2158.69 1473.46 2159.13 1475.23 2159.74 1476.62 2160.35 1478.01 2161.1 1479.03 2162.02 1479.69 2162.93 1480.35 2164.02 1480.67 2165.29 1480.67 2166.49 1480.67 2167.53 1480.37 2168.42 1479.75 2169.32 1479.13 2170.06 1478.18 2170.64 1476.88 2171.23 1475.57 2171.67 1473.93 2171.97 1471.93 2172.26 1469.94 2172.41 1467.58 2172.41 1464.86 2172.41 1461.8 2172.25 1459.17 2171.92 1456.96 2171.59 1454.76 2171.13 1452.95 2170.54 1451.53 2169.94 1450.11 2169.19 1449.06 2168.29 1448.39 2167.38 1447.71 2166.35 1447.37 2165.18 1447.37ZM2165.29 1444.48C2167.66 1444.48 2169.68 1444.93 2171.36 1445.81 2173.03 1446.69 2174.4 1447.95 2175.47 1449.59 2176.53 1451.23 2177.31 1453.23 2177.8 1455.59 2178.3 1457.96 2178.55 1460.63 2178.55 1463.61 2178.55 1470.22 2177.38 1475.22 2175.03 1478.6 2172.69 1481.99 2169.3 1483.68 2164.85 1483.68 2160.44 1483.68 2157.16 1482.08 2155.02 1478.89 2152.87 1475.69 2151.8 1470.84 2151.8 1464.35 2151.8 1460.96 2152.13 1458.02 2152.8 1455.53 2153.47 1453.05 2154.4 1450.99 2155.6 1449.35 2156.8 1447.72 2158.23 1446.49 2159.87 1445.69 2161.52 1444.89 2163.33 1444.48 2165.29 1444.48Z" fill-rule="evenodd"/><text fill="#000000" fill-opacity="0" font-family="Arial,Arial_MSFontService,sans-serif" font-size="39.1973" x="2151.8" y="1478.78">0</text><path d="M2100.54 1558.19C2099.16 1558.19 2097.8 1558.66 2096.46 1559.59 2095.13 1560.52 2093.66 1562.01 2092.07 1564.07 2090.47 1566.12 2089.23 1568.15 2088.34 1570.15 2087.45 1572.15 2086.74 1574.44 2086.23 1577.04L2085.91 1578.74C2085.64 1580.17 2085.47 1581.27 2085.4 1582.02 2085.33 1582.78 2085.3 1583.52 2085.3 1584.25 2085.3 1586.36 2085.75 1587.89 2086.66 1588.85 2087.56 1589.81 2089.12 1590.29 2091.34 1590.29 2092.72 1590.29 2093.98 1590.02 2095.15 1589.48 2096.31 1588.94 2097.41 1588.15 2098.45 1587.13 2099.49 1586.1 2100.43 1584.86 2101.27 1583.4 2102.1 1581.94 2102.85 1580.25 2103.52 1578.31 2104.18 1576.38 2104.68 1574.4 2105.02 1572.36 2105.35 1570.32 2105.52 1568.4 2105.52 1566.62 2105.52 1563.78 2105.12 1561.67 2104.33 1560.28 2103.53 1558.89 2102.27 1558.19 2100.54 1558.19ZM2083.47 1553.41C2085.15 1553.41 2086.48 1553.96 2087.47 1555.07 2088.45 1556.18 2088.95 1557.65 2088.95 1559.49 2088.95 1561 2088.64 1562.6 2088.01 1564.27L2088.5 1564.43C2093.5 1557.11 2098.47 1553.45 2103.41 1553.45 2106.36 1553.45 2108.65 1554.57 2110.28 1556.81 2111.92 1559.06 2112.74 1562.22 2112.74 1566.3 2112.74 1570.76 2111.84 1575.14 2110.04 1579.45 2108.24 1583.76 2105.75 1587.18 2102.56 1589.7 2099.38 1592.23 2095.81 1593.49 2091.86 1593.49 2088.27 1593.49 2085.29 1592.71 2082.91 1591.14L2081.04 1600.02C2080.64 1601.93 2080.44 1603.51 2080.44 1604.76 2080.44 1605.95 2080.74 1606.79 2081.35 1607.29 2081.96 1607.79 2083.14 1608.12 2084.89 1608.28L2084.57 1610.27 2072.05 1610.27 2081.81 1567.27C2082.38 1564.78 2082.66 1562.74 2082.66 1561.15 2082.66 1560.07 2082.49 1559.29 2082.14 1558.8 2081.79 1558.31 2081.23 1558.07 2080.48 1558.07 2079.64 1558.07 2078.75 1558.41 2077.82 1559.1 2076.89 1559.79 2075.61 1561.04 2073.99 1562.85L2071.68 1560.58C2074.11 1558.04 2076.17 1556.21 2077.86 1555.09 2079.55 1553.97 2081.42 1553.41 2083.47 1553.41Z" fill-rule="evenodd"/><text fill="#000000" fill-opacity="0" font-family="Arial,Arial_MSFontService,sans-serif" font-size="56.8599" x="2071.68" y="1603.16">ğ‘</text><path d="M2164.69 1574C2163.3 1574 2162.14 1574.37 2161.21 1575.09 2160.27 1575.82 2159.53 1576.88 2158.99 1578.28 2158.44 1579.68 2158.05 1581.39 2157.82 1583.4 2157.6 1585.42 2157.48 1587.7 2157.48 1590.27 2157.48 1593.22 2157.63 1595.78 2157.91 1597.94 2158.2 1600.09 2158.65 1601.86 2159.25 1603.25 2159.86 1604.64 2160.62 1605.67 2161.53 1606.32 2162.45 1606.98 2163.54 1607.3 2164.81 1607.3 2166 1607.3 2167.04 1607 2167.94 1606.38 2168.83 1605.76 2169.57 1604.81 2170.16 1603.51 2170.74 1602.21 2171.18 1600.56 2171.48 1598.56 2171.78 1596.57 2171.93 1594.21 2171.93 1591.49 2171.93 1588.43 2171.76 1585.8 2171.44 1583.59 2171.11 1581.39 2170.65 1579.58 2170.05 1578.16 2169.46 1576.74 2168.71 1575.69 2167.8 1575.02 2166.9 1574.34 2165.86 1574 2164.69 1574ZM2132.13 1571.32 2133.95 1571.32C2133.91 1572.42 2133.88 1573.39 2133.86 1574.26 2133.84 1575.12 2133.83 1575.96 2133.82 1576.77 2133.81 1577.59 2133.8 1578.39 2133.8 1579.19L2133.8 1601.82C2133.8 1602.44 2133.82 1602.97 2133.86 1603.42 2133.9 1603.86 2133.96 1604.24 2134.05 1604.55 2134.14 1604.86 2134.26 1605.12 2134.41 1605.34 2134.56 1605.56 2134.73 1605.74 2134.93 1605.9 2135.17 1606.14 2135.49 1606.33 2135.89 1606.45 2136.28 1606.58 2136.79 1606.69 2137.4 1606.78 2138.02 1606.87 2138.76 1606.94 2139.62 1606.99 2140.49 1607.04 2141.52 1607.08 2142.74 1607.09L2142.74 1609.69 2119.12 1609.69 2119.12 1607.09C2120.29 1607.06 2121.28 1607.01 2122.09 1606.96 2122.91 1606.91 2123.6 1606.84 2124.18 1606.75 2124.76 1606.66 2125.22 1606.56 2125.56 1606.45 2125.91 1606.35 2126.22 1606.21 2126.47 1606.05 2126.75 1605.87 2126.99 1605.68 2127.19 1605.47 2127.39 1605.26 2127.55 1605 2127.66 1604.68 2127.78 1604.36 2127.88 1603.98 2127.95 1603.52 2128.02 1603.06 2128.05 1602.5 2128.05 1601.82L2128.05 1580.47C2128.05 1579.69 2127.9 1579.15 2127.61 1578.83 2127.31 1578.51 2126.88 1578.35 2126.32 1578.35 2125.71 1578.35 2124.8 1578.67 2123.58 1579.31 2122.37 1579.94 2120.8 1580.88 2118.88 1582.14 2118.62 1581.68 2118.38 1581.22 2118.16 1580.76 2117.94 1580.31 2117.72 1579.84 2117.48 1579.36 2119.94 1578.01 2122.38 1576.67 2124.79 1575.33 2127.2 1573.99 2129.65 1572.65 2132.13 1571.32ZM2164.81 1571.11C2167.17 1571.11 2169.19 1571.56 2170.87 1572.44 2172.55 1573.32 2173.92 1574.58 2174.98 1576.22 2176.04 1577.86 2176.82 1579.86 2177.32 1582.22 2177.82 1584.59 2178.06 1587.26 2178.06 1590.24 2178.06 1596.85 2176.89 1601.85 2174.55 1605.23 2172.21 1608.62 2168.81 1610.31 2164.36 1610.31 2159.95 1610.31 2156.68 1608.71 2154.53 1605.52 2152.39 1602.32 2151.32 1597.47 2151.32 1590.98 2151.32 1587.59 2151.65 1584.65 2152.31 1582.16 2152.98 1579.68 2153.91 1577.62 2155.11 1575.98 2156.32 1574.35 2157.74 1573.12 2159.39 1572.32 2161.04 1571.52 2162.84 1571.11 2164.81 1571.11Z" fill-rule="evenodd"/><text fill="#000000" fill-opacity="0" font-family="Arial,Arial_MSFontService,sans-serif" font-size="39.1973" x="2117.48" y="1605.41">10</text><path d="M2236.94 1433.02C2235.56 1433.02 2234.2 1433.49 2232.86 1434.42 2231.53 1435.35 2230.06 1436.85 2228.47 1438.9 2226.87 1440.95 2225.63 1442.98 2224.74 1444.98 2223.85 1446.98 2223.14 1449.27 2222.63 1451.87L2222.31 1453.57C2222.04 1455 2221.87 1456.1 2221.8 1456.85 2221.73 1457.61 2221.7 1458.35 2221.7 1459.08 2221.7 1461.19 2222.15 1462.72 2223.06 1463.68 2223.96 1464.64 2225.52 1465.12 2227.74 1465.12 2229.12 1465.12 2230.39 1464.85 2231.55 1464.31 2232.71 1463.77 2233.81 1462.99 2234.85 1461.96 2235.89 1460.93 2236.83 1459.69 2237.67 1458.23 2238.5 1456.77 2239.25 1455.08 2239.92 1453.14 2240.58 1451.21 2241.08 1449.23 2241.42 1447.19 2241.75 1445.15 2241.92 1443.24 2241.92 1441.45 2241.92 1438.62 2241.52 1436.5 2240.73 1435.11 2239.93 1433.72 2238.67 1433.02 2236.94 1433.02ZM2219.88 1428.24C2221.55 1428.24 2222.88 1428.79 2223.87 1429.9 2224.85 1431.01 2225.35 1432.48 2225.35 1434.32 2225.35 1435.83 2225.04 1437.43 2224.41 1439.1L2224.9 1439.26C2229.9 1431.94 2234.87 1428.28 2239.81 1428.28 2242.76 1428.28 2245.05 1429.4 2246.68 1431.65 2248.32 1433.89 2249.14 1437.05 2249.14 1441.13 2249.14 1445.59 2248.24 1449.97 2246.44 1454.28 2244.64 1458.59 2242.15 1462.01 2238.96 1464.53 2235.78 1467.06 2232.21 1468.32 2228.26 1468.32 2224.67 1468.32 2221.69 1467.54 2219.31 1465.97L2217.44 1474.85C2217.04 1476.77 2216.84 1478.35 2216.84 1479.59 2216.84 1480.78 2217.14 1481.62 2217.75 1482.12 2218.36 1482.62 2219.54 1482.95 2221.29 1483.11L2220.97 1485.1 2208.45 1485.1 2218.21 1442.1C2218.78 1439.62 2219.06 1437.58 2219.06 1435.98 2219.06 1434.9 2218.89 1434.12 2218.54 1433.63 2218.19 1433.14 2217.63 1432.9 2216.88 1432.9 2216.04 1432.9 2215.15 1433.25 2214.22 1433.93 2213.29 1434.62 2212.01 1435.87 2210.39 1437.68L2208.08 1435.41C2210.51 1432.87 2212.57 1431.04 2214.26 1429.92 2215.95 1428.8 2217.82 1428.24 2219.88 1428.24Z" fill-rule="evenodd"/><text fill="#000000" fill-opacity="0" font-family="Arial,Arial_MSFontService,sans-serif" font-size="56.8599" x="2208.08" y="1477.99">ğ‘</text><path d="M2267.99 1448.83C2266.6 1448.83 2265.44 1449.2 2264.51 1449.92 2263.57 1450.65 2262.83 1451.71 2262.29 1453.11 2261.74 1454.51 2261.36 1456.22 2261.13 1458.23 2260.9 1460.25 2260.78 1462.54 2260.78 1465.1 2260.78 1468.06 2260.93 1470.61 2261.22 1472.77 2261.5 1474.92 2261.95 1476.69 2262.56 1478.08 2263.16 1479.47 2263.92 1480.5 2264.84 1481.15 2265.75 1481.81 2266.84 1482.13 2268.11 1482.13 2269.3 1482.13 2270.35 1481.83 2271.24 1481.21 2272.13 1480.6 2272.87 1479.64 2273.46 1478.34 2274.04 1477.04 2274.49 1475.39 2274.78 1473.39 2275.08 1471.4 2275.23 1469.04 2275.23 1466.32 2275.23 1463.26 2275.07 1460.63 2274.74 1458.43 2274.41 1456.22 2273.95 1454.41 2273.35 1452.99 2272.76 1451.57 2272.01 1450.52 2271.1 1449.85 2270.2 1449.17 2269.16 1448.83 2267.99 1448.83ZM2305.43 1446.15 2307.25 1446.15C2307.21 1447.25 2307.18 1448.22 2307.16 1449.09 2307.14 1449.95 2307.13 1450.79 2307.12 1451.6 2307.11 1452.42 2307.1 1453.22 2307.1 1454.02L2307.1 1476.65C2307.1 1477.27 2307.12 1477.8 2307.16 1478.25 2307.2 1478.69 2307.27 1479.07 2307.36 1479.38 2307.45 1479.69 2307.56 1479.95 2307.71 1480.17 2307.86 1480.39 2308.04 1480.58 2308.23 1480.73 2308.47 1480.97 2308.79 1481.16 2309.19 1481.29 2309.58 1481.41 2310.09 1481.52 2310.71 1481.61 2311.32 1481.7 2312.06 1481.77 2312.93 1481.82 2313.79 1481.87 2314.83 1481.91 2316.04 1481.93L2316.04 1484.52 2292.42 1484.52 2292.42 1481.93C2293.59 1481.89 2294.58 1481.84 2295.4 1481.79 2296.21 1481.74 2296.91 1481.67 2297.48 1481.58 2298.06 1481.49 2298.52 1481.4 2298.87 1481.29 2299.21 1481.18 2299.52 1481.04 2299.78 1480.88 2300.05 1480.71 2300.29 1480.51 2300.49 1480.3 2300.69 1480.09 2300.85 1479.83 2300.97 1479.51 2301.09 1479.2 2301.18 1478.81 2301.25 1478.35 2301.32 1477.9 2301.35 1477.33 2301.35 1476.65L2301.35 1455.3C2301.35 1454.52 2301.21 1453.98 2300.91 1453.66 2300.61 1453.34 2300.18 1453.18 2299.63 1453.18 2299.01 1453.18 2298.1 1453.5 2296.89 1454.14 2295.68 1454.77 2294.11 1455.72 2292.18 1456.97 2291.92 1456.51 2291.68 1456.05 2291.47 1455.6 2291.25 1455.14 2291.02 1454.67 2290.78 1454.2 2293.24 1452.85 2295.68 1451.5 2298.09 1450.16 2300.51 1448.82 2302.95 1447.48 2305.43 1446.15ZM2268.11 1445.95C2270.47 1445.95 2272.49 1446.39 2274.17 1447.27 2275.85 1448.15 2277.22 1449.42 2278.28 1451.05 2279.35 1452.69 2280.12 1454.69 2280.62 1457.06 2281.12 1459.42 2281.37 1462.09 2281.37 1465.07 2281.37 1471.68 2280.19 1476.68 2277.85 1480.06 2275.51 1483.45 2272.11 1485.14 2267.66 1485.14 2263.26 1485.14 2259.98 1483.54 2257.84 1480.35 2255.69 1477.15 2254.62 1472.31 2254.62 1465.81 2254.62 1462.42 2254.95 1459.48 2255.62 1457 2256.28 1454.51 2257.22 1452.45 2258.42 1450.82 2259.62 1449.18 2261.04 1447.96 2262.69 1447.15 2264.34 1446.35 2266.15 1445.95 2268.11 1445.95Z" fill-rule="evenodd"/><text fill="#000000" fill-opacity="0" font-family="Arial,Arial_MSFontService,sans-serif" font-size="39.1973" x="2254.62" y="1480.24">01</text><path d="M2239.39 1563.2C2238.01 1563.2 2236.65 1563.66 2235.32 1564.6 2233.98 1565.53 2232.51 1567.02 2230.92 1569.07 2229.33 1571.13 2228.08 1573.15 2227.19 1575.15 2226.3 1577.15 2225.6 1579.45 2225.08 1582.04L2224.76 1583.75C2224.49 1585.18 2224.32 1586.27 2224.25 1587.03 2224.19 1587.78 2224.15 1588.53 2224.15 1589.26 2224.15 1591.36 2224.6 1592.9 2225.51 1593.86 2226.41 1594.82 2227.97 1595.3 2230.19 1595.3 2231.57 1595.3 2232.84 1595.03 2234 1594.49 2235.16 1593.94 2236.26 1593.16 2237.3 1592.13 2238.34 1591.11 2239.28 1589.87 2240.12 1588.41 2240.96 1586.95 2241.71 1585.25 2242.37 1583.32 2243.03 1581.39 2243.53 1579.4 2243.87 1577.36 2244.21 1575.32 2244.37 1573.41 2244.37 1571.63 2244.37 1568.79 2243.98 1566.68 2243.18 1565.29 2242.38 1563.89 2241.12 1563.2 2239.39 1563.2ZM2222.33 1558.42C2224 1558.42 2225.33 1558.97 2226.32 1560.08 2227.31 1561.19 2227.8 1562.66 2227.8 1564.5 2227.8 1566.01 2227.49 1567.6 2226.87 1569.28L2227.35 1569.44C2232.35 1562.12 2237.32 1558.46 2242.27 1558.46 2245.21 1558.46 2247.5 1559.58 2249.14 1561.82 2250.77 1564.06 2251.59 1567.22 2251.59 1571.3 2251.59 1575.76 2250.69 1580.15 2248.89 1584.45 2247.1 1588.76 2244.6 1592.18 2241.42 1594.71 2238.23 1597.23 2234.66 1598.5 2230.72 1598.5 2227.12 1598.5 2224.14 1597.71 2221.76 1596.15L2219.9 1605.02C2219.49 1606.94 2219.29 1608.52 2219.29 1609.76 2219.29 1610.95 2219.59 1611.8 2220.2 1612.3 2220.81 1612.8 2221.99 1613.13 2223.75 1613.29L2223.42 1615.28 2210.9 1615.28 2220.67 1572.28C2221.23 1569.79 2221.52 1567.75 2221.52 1566.16 2221.52 1565.08 2221.34 1564.29 2220.99 1563.81 2220.64 1563.32 2220.09 1563.08 2219.33 1563.08 2218.49 1563.08 2217.61 1563.42 2216.67 1564.11 2215.74 1564.8 2214.47 1566.05 2212.84 1567.86L2210.53 1565.59C2212.97 1563.05 2215.03 1561.22 2216.71 1560.1 2218.4 1558.98 2220.27 1558.42 2222.33 1558.42Z" fill-rule="evenodd"/><text fill="#000000" fill-opacity="0" font-family="Arial,Arial_MSFontService,sans-serif" font-size="56.8599" x="2210.53" y="1608.17">ğ‘</text><path d="M2305.99 1576.33 2307.8 1576.33C2307.76 1577.42 2307.73 1578.4 2307.71 1579.26 2307.69 1580.13 2307.68 1580.97 2307.67 1581.78 2307.66 1582.59 2307.65 1583.4 2307.65 1584.19L2307.65 1606.83C2307.65 1607.45 2307.67 1607.98 2307.71 1608.42 2307.75 1608.87 2307.82 1609.25 2307.91 1609.55 2308 1609.86 2308.11 1610.13 2308.26 1610.34 2308.41 1610.56 2308.59 1610.75 2308.79 1610.91 2309.02 1611.15 2309.34 1611.33 2309.74 1611.46 2310.14 1611.59 2310.64 1611.7 2311.26 1611.79 2311.87 1611.88 2312.61 1611.95 2313.48 1612 2314.34 1612.05 2315.38 1612.08 2316.59 1612.1L2316.59 1614.69 2292.97 1614.69 2292.97 1612.1C2294.14 1612.06 2295.13 1612.02 2295.95 1611.97 2296.76 1611.92 2297.46 1611.85 2298.03 1611.76 2298.61 1611.67 2299.07 1611.57 2299.42 1611.46 2299.77 1611.35 2300.07 1611.22 2300.33 1611.06 2300.6 1610.88 2300.84 1610.69 2301.04 1610.48 2301.24 1610.27 2301.4 1610.01 2301.52 1609.69 2301.64 1609.37 2301.73 1608.98 2301.8 1608.53 2301.87 1608.07 2301.9 1607.5 2301.9 1606.83L2301.9 1585.47C2301.9 1584.7 2301.76 1584.15 2301.46 1583.84 2301.16 1583.52 2300.73 1583.36 2300.18 1583.36 2299.56 1583.36 2298.65 1583.68 2297.44 1584.31 2296.23 1584.95 2294.66 1585.89 2292.73 1587.14 2292.47 1586.68 2292.23 1586.23 2292.02 1585.77 2291.8 1585.31 2291.57 1584.85 2291.33 1584.37 2293.79 1583.02 2296.23 1581.68 2298.64 1580.34 2301.06 1579 2303.5 1577.66 2305.99 1576.33ZM2270.99 1576.33 2272.8 1576.33C2272.76 1577.42 2272.73 1578.4 2272.71 1579.26 2272.69 1580.13 2272.68 1580.97 2272.67 1581.78 2272.66 1582.59 2272.65 1583.4 2272.65 1584.19L2272.65 1606.83C2272.65 1607.45 2272.67 1607.98 2272.71 1608.42 2272.75 1608.87 2272.82 1609.25 2272.91 1609.55 2273 1609.86 2273.11 1610.13 2273.26 1610.34 2273.41 1610.56 2273.59 1610.75 2273.79 1610.91 2274.02 1611.15 2274.34 1611.33 2274.74 1611.46 2275.14 1611.59 2275.64 1611.7 2276.26 1611.79 2276.87 1611.88 2277.61 1611.95 2278.48 1612 2279.34 1612.05 2280.38 1612.08 2281.59 1612.1L2281.59 1614.69 2257.97 1614.69 2257.97 1612.1C2259.14 1612.06 2260.13 1612.02 2260.95 1611.97 2261.76 1611.92 2262.46 1611.85 2263.03 1611.76 2263.61 1611.67 2264.07 1611.57 2264.42 1611.46 2264.77 1611.35 2265.07 1611.22 2265.33 1611.06 2265.6 1610.88 2265.84 1610.69 2266.04 1610.48 2266.24 1610.27 2266.4 1610.01 2266.52 1609.69 2266.64 1609.37 2266.73 1608.98 2266.8 1608.53 2266.87 1608.07 2266.9 1607.5 2266.9 1606.83L2266.9 1585.47C2266.9 1584.7 2266.76 1584.15 2266.46 1583.84 2266.16 1583.52 2265.73 1583.36 2265.18 1583.36 2264.56 1583.36 2263.65 1583.68 2262.44 1584.31 2261.23 1584.95 2259.66 1585.89 2257.73 1587.14 2257.47 1586.68 2257.23 1586.23 2257.02 1585.77 2256.8 1585.31 2256.57 1584.85 2256.33 1584.37 2258.79 1583.02 2261.23 1581.68 2263.64 1580.34 2266.06 1579 2268.5 1577.66 2270.99 1576.33Z" fill-rule="evenodd"/><text fill="#000000" fill-opacity="0" font-family="Arial,Arial_MSFontService,sans-serif" font-size="38.3633" x="2256.33" y="1609.9">11</text><path d="M2059 1673C2041.33 1673 2027 1673 2027 1673L2027 1348C2027 1348 2041.33 1348 2059 1348" stroke="#002060" stroke-width="8.02083" stroke-miterlimit="8" fill="none" fill-rule="evenodd"/><path d="M32 325C14.3269 325 1.94859e-10 325 0 325L0 0.000355425C-1.94864e-10 0.000159129 14.3269-1.75463e-15 32-3.9189e-15" stroke="#002060" stroke-width="8.02083" stroke-miterlimit="8" fill="none" fill-rule="evenodd" transform="matrix(-1 0 0 1 2352 1348)"/><path d="M1807.5 1380.77 1947.75 1380.77 1947.75 1392.23 1807.5 1392.23ZM1942.02 1369.31 1976.4 1386.5 1942.02 1403.69Z" fill="#1CADE4"/><path d="M1807.5 1643.77 1947.75 1643.77 1947.75 1655.23 1807.5 1655.23ZM1942.02 1632.31 1976.4 1649.5 1942.02 1666.69Z" fill="#1CADE4"/><path d="M1492.1 1374.78 1509.57 1374.78 1509.57 1376.27C1508.46 1376.27 1507.68 1376.46 1507.23 1376.84 1506.79 1377.22 1506.57 1377.72 1506.57 1378.34 1506.57 1378.99 1507.04 1379.99 1507.98 1381.34 1508.28 1381.77 1508.73 1382.45 1509.32 1383.37L1511.96 1387.58 1515 1383.37C1516.94 1380.69 1517.91 1379 1517.91 1378.3 1517.91 1377.73 1517.68 1377.25 1517.22 1376.86 1516.77 1376.47 1516.02 1376.27 1515 1376.27L1515 1374.78 1527.56 1374.78 1527.56 1376.27C1526.24 1376.36 1525.09 1376.72 1524.11 1377.37 1522.79 1378.29 1520.98 1380.29 1518.68 1383.37L1513.62 1390.14 1522.86 1403.43C1525.13 1406.7 1526.75 1408.66 1527.72 1409.32 1528.69 1409.99 1529.95 1410.36 1531.49 1410.44L1531.49 1411.9 1513.98 1411.9 1513.98 1410.44C1515.2 1410.44 1516.14 1410.17 1516.82 1409.63 1517.33 1409.25 1517.59 1408.75 1517.59 1408.13 1517.59 1407.51 1516.72 1405.94 1515 1403.43L1509.57 1395.48 1503.61 1403.43C1501.77 1405.89 1500.85 1407.35 1500.85 1407.81 1500.85 1408.45 1501.16 1409.04 1501.76 1409.57 1502.37 1410.09 1503.28 1410.39 1504.5 1410.44L1504.5 1411.9 1492.38 1411.9 1492.38 1410.44C1493.35 1410.3 1494.21 1409.97 1494.93 1409.43 1495.96 1408.64 1497.69 1406.64 1500.12 1403.43L1507.9 1393.09 1500.85 1382.88C1498.85 1379.96 1497.31 1378.13 1496.21 1377.39 1495.12 1376.65 1493.75 1376.27 1492.1 1376.27Z" fill-rule="evenodd"/><text fill="#000000" fill-opacity="0" font-family="Arial,Arial_MSFontService,sans-serif" font-size="37.123" x="1492.1" y="1407.26">x</text><path d="M1660.21 1403.19C1657.96 1403.19 1655.96 1404.06 1654.19 1405.81 1652.42 1407.55 1651.39 1409.97 1651.09 1413.08L1668.27 1413.08C1668.14 1410.7 1667.85 1409.03 1667.42 1408.06 1666.75 1406.54 1665.74 1405.35 1664.4 1404.49 1663.06 1403.63 1661.67 1403.19 1660.21 1403.19ZM1590.13 1400.36 1591.87 1400.36 1591.87 1408.26C1594.57 1405.56 1596.17 1404 1596.65 1403.6 1597.87 1402.57 1599.18 1401.77 1600.58 1401.21 1601.99 1400.64 1603.38 1400.36 1604.76 1400.36 1607.08 1400.36 1609.08 1401.03 1610.76 1402.38 1612.43 1403.73 1613.55 1405.69 1614.12 1408.26 1616.9 1405.02 1619.25 1402.89 1621.17 1401.88 1623.09 1400.86 1625.06 1400.36 1627.09 1400.36 1629.06 1400.36 1630.81 1400.86 1632.34 1401.88 1633.86 1402.89 1635.07 1404.54 1635.96 1406.84 1636.56 1408.41 1636.86 1410.87 1636.86 1414.22L1636.86 1430.18C1636.86 1432.51 1637.03 1434.1 1637.38 1434.97 1637.65 1435.56 1638.15 1436.07 1638.88 1436.49 1639.61 1436.9 1640.8 1437.11 1642.45 1437.11L1642.45 1438.57 1624.13 1438.57 1624.13 1437.11 1624.9 1437.11C1626.49 1437.11 1627.74 1436.8 1628.63 1436.18 1629.25 1435.75 1629.7 1435.06 1629.97 1434.12 1630.07 1433.66 1630.13 1432.35 1630.13 1430.18L1630.13 1414.22C1630.13 1411.19 1629.76 1409.06 1629.03 1407.81 1627.98 1406.08 1626.29 1405.22 1623.97 1405.22 1622.54 1405.22 1621.1 1405.58 1619.65 1406.29 1618.21 1407.01 1616.46 1408.34 1614.4 1410.29L1614.32 1410.73 1614.4 1412.47 1614.4 1430.18C1614.4 1432.72 1614.55 1434.3 1614.83 1434.93 1615.11 1435.55 1615.65 1436.07 1616.43 1436.49 1617.21 1436.9 1618.55 1437.11 1620.44 1437.11L1620.44 1438.57 1601.68 1438.57 1601.68 1437.11C1603.73 1437.11 1605.14 1436.87 1605.91 1436.38 1606.68 1435.9 1607.22 1435.17 1607.51 1434.2 1607.65 1433.74 1607.72 1432.4 1607.72 1430.18L1607.72 1414.22C1607.72 1411.19 1607.27 1409.02 1606.38 1407.69 1605.19 1405.96 1603.53 1405.1 1601.39 1405.1 1599.94 1405.1 1598.49 1405.49 1597.06 1406.27 1594.82 1407.46 1593.09 1408.8 1591.87 1410.29L1591.87 1430.18C1591.87 1432.62 1592.04 1434.2 1592.38 1434.93 1592.72 1435.66 1593.21 1436.2 1593.88 1436.57 1594.54 1436.93 1595.88 1437.11 1597.91 1437.11L1597.91 1438.57 1579.55 1438.57 1579.55 1437.11C1581.25 1437.11 1582.44 1436.93 1583.12 1436.57 1583.79 1436.2 1584.31 1435.62 1584.66 1434.82 1585.01 1434.03 1585.18 1432.48 1585.18 1430.18L1585.18 1416C1585.18 1411.92 1585.06 1409.29 1584.82 1408.1 1584.63 1407.21 1584.33 1406.59 1583.93 1406.25 1583.52 1405.91 1582.97 1405.75 1582.27 1405.75 1581.51 1405.75 1580.6 1405.95 1579.55 1406.35L1578.94 1404.9ZM1568.87 1400.36 1570.65 1400.36 1570.65 1430.18C1570.65 1432.51 1570.82 1434.05 1571.16 1434.82 1571.5 1435.59 1572 1436.17 1572.66 1436.55 1573.32 1436.93 1574.53 1437.11 1576.29 1437.11L1576.29 1438.57 1558.25 1438.57 1558.25 1437.11C1560.06 1437.11 1561.28 1436.94 1561.9 1436.59 1562.52 1436.24 1563.01 1435.66 1563.38 1434.84 1563.74 1434.03 1563.93 1432.48 1563.93 1430.18L1563.93 1415.88C1563.93 1411.85 1563.8 1409.24 1563.56 1408.06 1563.37 1407.19 1563.08 1406.59 1562.67 1406.25 1562.26 1405.91 1561.71 1405.75 1561.01 1405.75 1560.25 1405.75 1559.33 1405.95 1558.25 1406.35L1557.69 1404.9ZM1662.48 1400.32C1666.64 1400.32 1670.06 1401.69 1672.73 1404.43 1675.4 1407.17 1676.74 1410.84 1676.74 1415.43L1651.09 1415.43C1651.06 1420.94 1652.4 1425.27 1655.1 1428.4 1657.8 1431.54 1660.98 1433.1 1664.62 1433.1 1667.06 1433.1 1669.17 1432.43 1670.97 1431.1 1672.76 1429.76 1674.27 1427.47 1675.49 1424.23L1676.74 1425.04C1676.17 1428.74 1674.53 1432.11 1671.8 1435.15 1669.07 1438.19 1665.65 1439.71 1661.54 1439.71 1657.09 1439.71 1653.27 1437.97 1650.1 1434.5 1646.92 1431.03 1645.33 1426.36 1645.33 1420.5 1645.33 1414.15 1646.96 1409.2 1650.22 1405.64 1653.47 1402.09 1657.56 1400.32 1662.48 1400.32ZM1544.37 1389.25 1545.63 1389.25 1545.63 1401.45 1554.3 1401.45 1554.3 1404.29 1545.63 1404.29 1545.63 1428.36C1545.63 1430.77 1545.97 1432.39 1546.66 1433.22 1547.35 1434.06 1548.23 1434.48 1549.32 1434.48 1550.21 1434.48 1551.07 1434.2 1551.91 1433.65 1552.75 1433.1 1553.4 1432.28 1553.85 1431.2L1555.44 1431.2C1554.49 1433.85 1553.15 1435.84 1551.42 1437.18 1549.69 1438.51 1547.91 1439.18 1546.07 1439.18 1544.83 1439.18 1543.61 1438.84 1542.43 1438.15 1541.24 1437.46 1540.36 1436.47 1539.79 1435.19 1539.22 1433.91 1538.94 1431.93 1538.94 1429.25L1538.94 1404.29 1533.06 1404.29 1533.06 1402.95C1534.55 1402.36 1536.07 1401.35 1537.62 1399.93 1539.18 1398.51 1540.56 1396.83 1541.78 1394.88 1542.4 1393.86 1543.26 1391.98 1544.37 1389.25ZM1567.29 1380.94C1568.42 1380.94 1569.39 1381.34 1570.19 1382.14 1570.98 1382.94 1571.38 1383.9 1571.38 1385.04 1571.38 1386.17 1570.98 1387.14 1570.19 1387.95 1569.39 1388.77 1568.42 1389.17 1567.29 1389.17 1566.16 1389.17 1565.18 1388.77 1564.37 1387.95 1563.56 1387.14 1563.16 1386.17 1563.16 1385.04 1563.16 1383.9 1563.55 1382.94 1564.35 1382.14 1565.15 1381.34 1566.13 1380.94 1567.29 1380.94Z" fill-rule="evenodd"/><text fill="#000000" fill-opacity="0" font-family="Arial,Arial_MSFontService,sans-serif" font-size="58.7646" x="1533.06" y="1432.36">time</text><path d="M1691.58 1353.17 1709.65 1353.17 1709.65 1356.29 1698.3 1356.29 1698.3 1427.34 1709.65 1427.34 1709.65 1430.46 1691.58 1430.46Z" fill-rule="evenodd"/><text fill="#000000" fill-opacity="0" font-family="Arial,Arial_MSFontService,sans-serif" font-size="77.2856" x="1691.58" y="1420.8">[</text><path d="M1733.96 1359.37C1732.1 1359.37 1730.54 1359.93 1729.28 1361.04 1728.02 1362.14 1727.01 1363.74 1726.24 1365.82 1725.47 1367.9 1724.92 1370.43 1724.6 1373.42 1724.27 1376.4 1724.11 1379.77 1724.11 1383.53 1724.11 1392.34 1724.93 1398.8 1726.56 1402.92 1728.2 1407.04 1730.73 1409.1 1734.16 1409.1 1737.43 1409.1 1739.86 1407.16 1741.44 1403.29 1743.02 1399.41 1743.81 1393.4 1743.81 1385.27 1743.81 1379.06 1743.4 1374.03 1742.59 1370.18 1741.78 1366.33 1740.65 1363.56 1739.21 1361.89 1737.76 1360.21 1736.01 1359.37 1733.96 1359.37ZM1734.16 1355.93C1740.08 1355.93 1744.48 1358.21 1747.37 1362.78 1750.27 1367.35 1751.71 1374.25 1751.71 1383.49 1751.71 1393.05 1750.16 1400.29 1747.07 1405.19 1743.98 1410.09 1739.46 1412.55 1733.51 1412.55 1727.68 1412.55 1723.33 1410.25 1720.48 1405.66 1717.63 1401.06 1716.21 1394.09 1716.21 1384.74 1716.21 1379.77 1716.65 1375.48 1717.53 1371.86 1718.4 1368.24 1719.63 1365.24 1721.21 1362.88 1722.79 1360.52 1724.69 1358.77 1726.91 1357.63 1729.12 1356.5 1731.54 1355.93 1734.16 1355.93Z" fill-rule="evenodd"/><text fill="#000000" fill-opacity="0" font-family="Arial,Arial_MSFontService,sans-serif" font-size="56.6167" x="1716.21" y="1405.47">0</text><path d="M1758.56 1353.17 1776.63 1353.17 1776.63 1430.46 1758.56 1430.46 1758.56 1427.34 1769.9 1427.34 1769.9 1356.29 1758.56 1356.29Z" fill-rule="evenodd"/><text fill="#000000" fill-opacity="0" font-family="Arial,Arial_MSFontService,sans-serif" font-size="77.2856" x="1758.56" y="1420.8">]</text><path d="M1500.99 1638.55 1518.46 1638.55 1518.46 1640.05C1517.35 1640.05 1516.57 1640.24 1516.13 1640.62 1515.68 1641 1515.46 1641.5 1515.46 1642.12 1515.46 1642.77 1515.93 1643.77 1516.88 1645.12 1517.17 1645.55 1517.62 1646.23 1518.21 1647.15L1520.85 1651.36 1523.89 1647.15C1525.83 1644.47 1526.81 1642.78 1526.81 1642.08 1526.81 1641.51 1526.58 1641.03 1526.12 1640.64 1525.66 1640.25 1524.91 1640.05 1523.89 1640.05L1523.89 1638.55 1536.45 1638.55 1536.45 1640.05C1535.13 1640.13 1533.98 1640.5 1533.01 1641.15 1531.68 1642.07 1529.87 1644.07 1527.58 1647.15L1522.51 1653.91 1531.75 1667.21C1534.02 1670.48 1535.64 1672.44 1536.61 1673.1 1537.59 1673.77 1538.84 1674.14 1540.38 1674.22L1540.38 1675.68 1522.87 1675.68 1522.87 1674.22C1524.09 1674.22 1525.04 1673.95 1525.71 1673.41 1526.22 1673.03 1526.48 1672.53 1526.48 1671.91 1526.48 1671.29 1525.62 1669.72 1523.89 1667.21L1518.46 1659.26 1512.5 1667.21C1510.66 1669.67 1509.74 1671.12 1509.74 1671.58 1509.74 1672.23 1510.05 1672.82 1510.66 1673.35 1511.26 1673.87 1512.18 1674.16 1513.39 1674.22L1513.39 1675.68 1501.27 1675.68 1501.27 1674.22C1502.25 1674.08 1503.1 1673.74 1503.83 1673.2 1504.85 1672.42 1506.58 1670.42 1509.01 1667.21L1516.8 1656.87 1509.74 1646.66C1507.74 1643.74 1506.2 1641.91 1505.1 1641.17 1504.01 1640.42 1502.64 1640.05 1500.99 1640.05Z" fill-rule="evenodd"/><text fill="#000000" fill-opacity="0" font-family="Arial,Arial_MSFontService,sans-serif" font-size="37.123" x="1500.99" y="1671.04">x</text><path d="M1669.1 1666.97C1666.86 1666.97 1664.85 1667.84 1663.08 1669.59 1661.31 1671.33 1660.28 1673.75 1659.98 1676.86L1677.16 1676.86C1677.03 1674.48 1676.74 1672.81 1676.31 1671.83 1675.64 1670.32 1674.63 1669.13 1673.29 1668.27 1671.96 1667.4 1670.56 1666.97 1669.1 1666.97ZM1599.02 1664.13 1600.76 1664.13 1600.76 1672.04C1603.46 1669.34 1605.06 1667.78 1605.54 1667.38 1606.76 1666.35 1608.07 1665.55 1609.48 1664.99 1610.88 1664.42 1612.27 1664.13 1613.65 1664.13 1615.97 1664.13 1617.97 1664.81 1619.65 1666.16 1621.32 1667.51 1622.44 1669.47 1623.01 1672.04 1625.79 1668.8 1628.15 1666.67 1630.06 1665.65 1631.98 1664.64 1633.95 1664.13 1635.98 1664.13 1637.95 1664.13 1639.7 1664.64 1641.23 1665.65 1642.76 1666.67 1643.96 1668.32 1644.86 1670.62 1645.45 1672.19 1645.75 1674.64 1645.75 1677.99L1645.75 1693.96C1645.75 1696.29 1645.92 1697.88 1646.27 1698.74 1646.54 1699.34 1647.04 1699.85 1647.77 1700.26 1648.5 1700.68 1649.69 1700.89 1651.34 1700.89L1651.34 1702.35 1633.02 1702.35 1633.02 1700.89 1633.79 1700.89C1635.39 1700.89 1636.63 1700.58 1637.52 1699.96 1638.14 1699.53 1638.59 1698.84 1638.86 1697.89 1638.97 1697.43 1639.02 1696.12 1639.02 1693.96L1639.02 1677.99C1639.02 1674.97 1638.66 1672.83 1637.93 1671.59 1636.87 1669.86 1635.18 1669 1632.86 1669 1631.43 1669 1629.99 1669.36 1628.54 1670.07 1627.1 1670.79 1625.35 1672.12 1623.3 1674.06L1623.21 1674.51 1623.3 1676.25 1623.3 1693.96C1623.3 1696.5 1623.44 1698.08 1623.72 1698.7 1624 1699.33 1624.54 1699.85 1625.32 1700.26 1626.11 1700.68 1627.44 1700.89 1629.33 1700.89L1629.33 1702.35 1610.57 1702.35 1610.57 1700.89C1612.62 1700.89 1614.04 1700.65 1614.81 1700.16 1615.58 1699.68 1616.11 1698.95 1616.41 1697.97 1616.54 1697.52 1616.61 1696.18 1616.61 1693.96L1616.61 1677.99C1616.61 1674.97 1616.16 1672.79 1615.27 1671.47 1614.08 1669.74 1612.42 1668.88 1610.29 1668.88 1608.83 1668.88 1607.38 1669.27 1605.95 1670.05 1603.71 1671.24 1601.98 1672.58 1600.76 1674.06L1600.76 1693.96C1600.76 1696.39 1600.93 1697.97 1601.27 1698.7 1601.61 1699.43 1602.11 1699.98 1602.77 1700.35 1603.43 1700.71 1604.77 1700.89 1606.8 1700.89L1606.8 1702.35 1588.44 1702.35 1588.44 1700.89C1590.14 1700.89 1591.33 1700.71 1592.01 1700.35 1592.68 1699.98 1593.2 1699.4 1593.55 1698.6 1593.9 1697.81 1594.08 1696.26 1594.08 1693.96L1594.08 1679.78C1594.08 1675.7 1593.95 1673.06 1593.71 1671.88 1593.52 1670.98 1593.22 1670.37 1592.82 1670.03 1592.41 1669.69 1591.86 1669.52 1591.16 1669.52 1590.4 1669.52 1589.5 1669.73 1588.44 1670.13L1587.83 1668.67ZM1577.76 1664.13 1579.55 1664.13 1579.55 1693.96C1579.55 1696.29 1579.71 1697.83 1580.05 1698.6 1580.39 1699.37 1580.89 1699.95 1581.55 1700.33 1582.21 1700.7 1583.42 1700.89 1585.18 1700.89L1585.18 1702.35 1567.14 1702.35 1567.14 1700.89C1568.95 1700.89 1570.17 1700.72 1570.79 1700.37 1571.41 1700.01 1571.91 1699.43 1572.27 1698.62 1572.64 1697.81 1572.82 1696.26 1572.82 1693.96L1572.82 1679.66C1572.82 1675.63 1572.7 1673.02 1572.45 1671.83 1572.26 1670.97 1571.97 1670.37 1571.56 1670.03 1571.16 1669.69 1570.6 1669.52 1569.9 1669.52 1569.14 1669.52 1568.22 1669.73 1567.14 1670.13L1566.58 1668.67ZM1671.37 1664.09C1675.53 1664.09 1678.95 1665.47 1681.62 1668.21 1684.3 1670.95 1685.63 1674.62 1685.63 1679.21L1659.98 1679.21C1659.95 1684.72 1661.29 1689.05 1663.99 1692.18 1666.69 1695.31 1669.87 1696.88 1673.52 1696.88 1675.95 1696.88 1678.06 1696.21 1679.86 1694.87 1681.66 1693.54 1683.16 1691.25 1684.38 1688.01L1685.63 1688.82C1685.07 1692.52 1683.42 1695.89 1680.69 1698.93 1677.96 1701.97 1674.54 1703.49 1670.44 1703.49 1665.98 1703.49 1662.16 1701.75 1658.99 1698.28 1655.81 1694.81 1654.23 1690.14 1654.23 1684.28 1654.23 1677.93 1655.85 1672.98 1659.11 1669.42 1662.36 1665.87 1666.45 1664.09 1671.37 1664.09ZM1553.26 1653.03 1554.52 1653.03 1554.52 1665.23 1563.19 1665.23 1563.19 1668.07 1554.52 1668.07 1554.52 1692.14C1554.52 1694.54 1554.86 1696.16 1555.55 1697 1556.24 1697.84 1557.13 1698.26 1558.21 1698.26 1559.1 1698.26 1559.96 1697.98 1560.8 1697.43 1561.64 1696.87 1562.29 1696.06 1562.75 1694.98L1564.33 1694.98C1563.38 1697.62 1562.04 1699.62 1560.31 1700.95 1558.59 1702.29 1556.8 1702.96 1554.97 1702.96 1553.72 1702.96 1552.51 1702.62 1551.32 1701.93 1550.13 1701.24 1549.25 1700.25 1548.68 1698.97 1548.12 1697.68 1547.83 1695.71 1547.83 1693.03L1547.83 1668.07 1541.96 1668.07 1541.96 1666.73C1543.44 1666.13 1544.96 1665.13 1546.52 1663.71 1548.07 1662.29 1549.45 1660.61 1550.67 1658.66 1551.29 1657.64 1552.16 1655.76 1553.26 1653.03ZM1576.18 1644.72C1577.32 1644.72 1578.28 1645.12 1579.08 1645.92 1579.88 1646.71 1580.28 1647.68 1580.28 1648.82 1580.28 1649.95 1579.88 1650.92 1579.08 1651.73 1578.28 1652.54 1577.32 1652.95 1576.18 1652.95 1575.05 1652.95 1574.07 1652.54 1573.26 1651.73 1572.45 1650.92 1572.05 1649.95 1572.05 1648.82 1572.05 1647.68 1572.45 1646.71 1573.24 1645.92 1574.04 1645.12 1575.02 1644.72 1576.18 1644.72Z" fill-rule="evenodd"/><text fill="#000000" fill-opacity="0" font-family="Arial,Arial_MSFontService,sans-serif" font-size="58.7646" x="1541.96" y="1696.14">time</text><path d="M1700.47 1616.95 1718.54 1616.95 1718.54 1620.07 1707.19 1620.07 1707.19 1691.12 1718.54 1691.12 1718.54 1694.24 1700.47 1694.24Z" fill-rule="evenodd"/><text fill="#000000" fill-opacity="0" font-family="Arial,Arial_MSFontService,sans-serif" font-size="77.2856" x="1700.47" y="1684.58">[</text><path d="M1746.05 1619.71 1748.28 1619.71C1748.12 1622.3 1748.04 1625.9 1748.04 1630.49L1748.04 1665.1C1748.04 1666.67 1748.13 1667.85 1748.3 1668.65 1748.48 1669.44 1748.79 1670.09 1749.23 1670.59 1749.68 1671.09 1750.32 1671.48 1751.16 1671.77 1752 1672.05 1753.05 1672.27 1754.32 1672.41 1755.59 1672.56 1757.27 1672.66 1759.35 1672.72L1759.35 1675.68 1729.4 1675.68 1729.4 1672.72C1732.4 1672.58 1734.54 1672.4 1735.82 1672.17 1737.1 1671.94 1738.08 1671.6 1738.76 1671.14 1739.43 1670.68 1739.93 1670.03 1740.24 1669.19 1740.55 1668.35 1740.7 1666.99 1740.7 1665.1L1740.7 1632.23C1740.7 1631.15 1740.51 1630.36 1740.14 1629.86 1739.76 1629.36 1739.2 1629.11 1738.47 1629.11 1737.61 1629.11 1736.38 1629.56 1734.79 1630.45 1733.19 1631.34 1731.22 1632.57 1728.87 1634.14L1727.09 1631.02Z" fill-rule="evenodd"/><text fill="#000000" fill-opacity="0" font-family="Arial,Arial_MSFontService,sans-serif" font-size="55.9683" x="1727.09" y="1668.68">1</text><path d="M1767.45 1616.95 1785.52 1616.95 1785.52 1694.24 1767.45 1694.24 1767.45 1691.12 1778.8 1691.12 1778.8 1620.07 1767.45 1620.07Z" fill-rule="evenodd"/><text fill="#000000" fill-opacity="0" font-family="Arial,Arial_MSFontService,sans-serif" font-size="77.2856" x="1767.45" y="1684.58">]</text><path d="M2627.66 1372.43C2626.28 1372.43 2624.92 1372.9 2623.59 1373.83 2622.25 1374.76 2620.78 1376.26 2619.19 1378.31 2617.6 1380.36 2616.35 1382.39 2615.46 1384.39 2614.57 1386.39 2613.87 1388.68 2613.35 1391.28L2613.03 1392.98C2612.76 1394.41 2612.59 1395.51 2612.52 1396.26 2612.45 1397.02 2612.42 1397.76 2612.42 1398.49 2612.42 1400.6 2612.87 1402.13 2613.78 1403.09 2614.68 1404.05 2616.24 1404.53 2618.46 1404.53 2619.84 1404.53 2621.11 1404.26 2622.27 1403.72 2623.43 1403.18 2624.53 1402.4 2625.57 1401.37 2626.61 1400.34 2627.55 1399.1 2628.39 1397.64 2629.23 1396.18 2629.98 1394.49 2630.64 1392.55 2631.3 1390.62 2631.8 1388.64 2632.14 1386.6 2632.48 1384.56 2632.64 1382.65 2632.64 1380.86 2632.64 1378.03 2632.25 1375.91 2631.45 1374.52 2630.65 1373.13 2629.39 1372.43 2627.66 1372.43ZM2610.6 1367.65C2612.27 1367.65 2613.6 1368.2 2614.59 1369.31 2615.58 1370.42 2616.07 1371.89 2616.07 1373.73 2616.07 1375.24 2615.76 1376.84 2615.14 1378.51L2615.62 1378.67C2620.62 1371.35 2625.59 1367.69 2630.54 1367.69 2633.48 1367.69 2635.77 1368.81 2637.41 1371.05 2639.04 1373.3 2639.86 1376.46 2639.86 1380.54 2639.86 1385 2638.96 1389.38 2637.16 1393.69 2635.37 1398 2632.87 1401.42 2629.69 1403.94 2626.5 1406.47 2622.93 1407.73 2618.99 1407.73 2615.39 1407.73 2612.41 1406.95 2610.03 1405.38L2608.17 1414.26C2607.76 1416.18 2607.56 1417.76 2607.56 1419 2607.56 1420.19 2607.86 1421.03 2608.47 1421.53 2609.08 1422.03 2610.26 1422.36 2612.02 1422.52L2611.69 1424.51 2599.17 1424.51 2608.94 1381.51C2609.5 1379.03 2609.79 1376.99 2609.79 1375.39 2609.79 1374.31 2609.61 1373.53 2609.26 1373.04 2608.91 1372.55 2608.35 1372.31 2607.6 1372.31 2606.76 1372.31 2605.88 1372.66 2604.94 1373.34 2604.01 1374.03 2602.74 1375.28 2601.11 1377.09L2598.8 1374.82C2601.24 1372.28 2603.3 1370.45 2604.98 1369.33 2606.67 1368.21 2608.54 1367.65 2610.6 1367.65Z" fill-rule="evenodd"/><text fill="#000000" fill-opacity="0" font-family="Arial,Arial_MSFontService,sans-serif" font-size="56.8599" x="2598.8" y="1417.4">ğ‘</text><path d="M2658.71 1388.24C2657.32 1388.24 2656.16 1388.61 2655.23 1389.33 2654.3 1390.06 2653.56 1391.12 2653.01 1392.52 2652.46 1393.92 2652.08 1395.63 2651.85 1397.64 2651.62 1399.66 2651.51 1401.95 2651.51 1404.51 2651.51 1407.47 2651.65 1410.02 2651.94 1412.18 2652.23 1414.33 2652.67 1416.1 2653.28 1417.49 2653.88 1418.88 2654.64 1419.91 2655.56 1420.56 2656.47 1421.22 2657.56 1421.54 2658.83 1421.54 2660.03 1421.54 2661.07 1421.24 2661.96 1420.62 2662.85 1420.01 2663.59 1419.05 2664.18 1417.75 2664.77 1416.45 2665.21 1414.8 2665.51 1412.8 2665.8 1410.81 2665.95 1408.45 2665.95 1405.73 2665.95 1402.67 2665.79 1400.04 2665.46 1397.84 2665.13 1395.63 2664.67 1393.82 2664.08 1392.4 2663.48 1390.98 2662.73 1389.93 2661.83 1389.26 2660.92 1388.58 2659.89 1388.24 2658.71 1388.24ZM2658.83 1385.36C2661.2 1385.36 2663.22 1385.8 2664.9 1386.68 2666.57 1387.56 2667.94 1388.83 2669.01 1390.46 2670.07 1392.1 2670.85 1394.1 2671.34 1396.47 2671.84 1398.83 2672.09 1401.5 2672.09 1404.48 2672.09 1411.09 2670.92 1416.09 2668.57 1419.47 2666.23 1422.86 2662.84 1424.55 2658.39 1424.55 2653.98 1424.55 2650.7 1422.95 2648.56 1419.76 2646.41 1416.56 2645.34 1411.72 2645.34 1405.22 2645.34 1401.83 2645.67 1398.89 2646.34 1396.41 2647 1393.92 2647.94 1391.86 2649.14 1390.23 2650.34 1388.59 2651.76 1387.37 2653.41 1386.56 2655.06 1385.76 2656.87 1385.36 2658.83 1385.36Z" fill-rule="evenodd"/><text fill="#000000" fill-opacity="0" font-family="Arial,Arial_MSFontService,sans-serif" font-size="39.1973" x="2645.34" y="1419.65">0</text><path d="M2693.66 1388.24C2692.27 1388.24 2691.11 1388.61 2690.18 1389.33 2689.24 1390.06 2688.51 1391.12 2687.96 1392.52 2687.41 1393.92 2687.03 1395.63 2686.8 1397.64 2686.57 1399.66 2686.45 1401.95 2686.45 1404.51 2686.45 1407.47 2686.6 1410.02 2686.89 1412.18 2687.17 1414.33 2687.62 1416.1 2688.23 1417.49 2688.83 1418.88 2689.59 1419.91 2690.51 1420.56 2691.42 1421.22 2692.51 1421.54 2693.78 1421.54 2694.97 1421.54 2696.02 1421.24 2696.91 1420.62 2697.8 1420.01 2698.54 1419.05 2699.13 1417.75 2699.71 1416.45 2700.16 1414.8 2700.45 1412.8 2700.75 1410.81 2700.9 1408.45 2700.9 1405.73 2700.9 1402.67 2700.74 1400.04 2700.41 1397.84 2700.08 1395.63 2699.62 1393.82 2699.02 1392.4 2698.43 1390.98 2697.68 1389.93 2696.78 1389.26 2695.87 1388.58 2694.83 1388.24 2693.66 1388.24ZM2693.78 1385.36C2696.15 1385.36 2698.17 1385.8 2699.84 1386.68 2701.52 1387.56 2702.89 1388.83 2703.95 1390.46 2705.02 1392.1 2705.8 1394.1 2706.29 1396.47 2706.79 1398.83 2707.04 1401.5 2707.04 1404.48 2707.04 1411.09 2705.86 1416.09 2703.52 1419.47 2701.18 1422.86 2697.78 1424.55 2693.34 1424.55 2688.93 1424.55 2685.65 1422.95 2683.51 1419.76 2681.36 1416.56 2680.29 1411.72 2680.29 1405.22 2680.29 1401.83 2680.62 1398.89 2681.29 1396.41 2681.95 1393.92 2682.89 1391.86 2684.09 1390.23 2685.29 1388.59 2686.71 1387.37 2688.36 1386.56 2690.01 1385.76 2691.82 1385.36 2693.78 1385.36Z" fill-rule="evenodd"/><text fill="#000000" fill-opacity="0" font-family="Arial,Arial_MSFontService,sans-serif" font-size="39.1973" x="2680.29" y="1419.65">0</text><path d="M2718.78 1397.68 2726.97 1397.68 2726.97 1407.08 2718.78 1407.08Z" fill-rule="evenodd"/><text fill="#000000" fill-opacity="0" font-family="Arial,Arial_MSFontService,sans-serif" font-size="9.40234" x="2718.78" y="1405.91">.</text><path d="M2746.39 1369.96 2763.86 1369.96 2763.86 1371.46C2762.75 1371.46 2761.98 1371.65 2761.53 1372.03 2761.09 1372.41 2760.86 1372.91 2760.86 1373.53 2760.86 1374.18 2761.34 1375.18 2762.28 1376.53 2762.58 1376.96 2763.02 1377.63 2763.62 1378.55L2766.25 1382.77 2769.29 1378.55C2771.24 1375.88 2772.21 1374.19 2772.21 1373.49 2772.21 1372.92 2771.98 1372.44 2771.52 1372.05 2771.06 1371.66 2770.32 1371.46 2769.29 1371.46L2769.29 1369.96 2781.86 1369.96 2781.86 1371.46C2780.53 1371.54 2779.38 1371.91 2778.41 1372.55 2777.09 1373.47 2775.28 1375.47 2772.98 1378.55L2767.91 1385.32 2777.15 1398.61C2779.42 1401.88 2781.05 1403.85 2782.02 1404.51 2782.99 1405.17 2784.25 1405.54 2785.79 1405.62L2785.79 1407.08 2768.28 1407.08 2768.28 1405.62C2769.49 1405.62 2770.44 1405.35 2771.12 1404.81 2771.63 1404.44 2771.89 1403.94 2771.89 1403.31 2771.89 1402.69 2771.02 1401.13 2769.29 1398.61L2763.86 1390.67 2757.9 1398.61C2756.07 1401.07 2755.15 1402.53 2755.15 1402.99 2755.15 1403.64 2755.45 1404.23 2756.06 1404.75 2756.67 1405.28 2757.58 1405.57 2758.8 1405.62L2758.8 1407.08 2746.68 1407.08 2746.68 1405.62C2747.65 1405.49 2748.5 1405.15 2749.23 1404.61 2750.26 1403.83 2751.99 1401.83 2754.42 1398.61L2762.2 1388.28 2755.15 1378.07C2753.15 1375.15 2751.6 1373.32 2750.51 1372.57 2749.41 1371.83 2748.04 1371.46 2746.39 1371.46Z" fill-rule="evenodd"/><text fill="#000000" fill-opacity="0" font-family="Arial,Arial_MSFontService,sans-serif" font-size="37.123" x="2746.39" y="1402.44">x</text><path d="M2914.5 1398.38C2912.26 1398.38 2910.26 1399.25 2908.49 1400.99 2906.72 1402.73 2905.68 1405.16 2905.39 1408.27L2922.57 1408.27C2922.43 1405.89 2922.15 1404.21 2921.72 1403.24 2921.04 1401.73 2920.04 1400.54 2918.7 1399.68 2917.36 1398.81 2915.96 1398.38 2914.5 1398.38ZM2844.42 1395.54 2846.17 1395.54 2846.17 1403.44C2848.87 1400.74 2850.46 1399.19 2850.95 1398.78 2852.17 1397.76 2853.48 1396.96 2854.88 1396.39 2856.29 1395.83 2857.68 1395.54 2859.05 1395.54 2861.38 1395.54 2863.38 1396.22 2865.05 1397.57 2866.73 1398.92 2867.85 1400.88 2868.42 1403.44 2871.2 1400.2 2873.55 1398.07 2875.47 1397.06 2877.39 1396.05 2879.36 1395.54 2881.39 1395.54 2883.36 1395.54 2885.11 1396.05 2886.63 1397.06 2888.16 1398.07 2889.37 1399.73 2890.26 1402.03 2890.86 1403.59 2891.15 1406.05 2891.15 1409.4L2891.15 1425.37C2891.15 1427.69 2891.33 1429.29 2891.68 1430.15 2891.95 1430.75 2892.45 1431.25 2893.18 1431.67 2893.91 1432.09 2895.1 1432.3 2896.75 1432.3L2896.75 1433.76 2878.43 1433.76 2878.43 1432.3 2879.2 1432.3C2880.79 1432.3 2882.03 1431.99 2882.93 1431.37 2883.55 1430.94 2883.99 1430.25 2884.26 1429.3 2884.37 1428.84 2884.43 1427.53 2884.43 1425.37L2884.43 1409.4C2884.43 1406.38 2884.06 1404.24 2883.33 1403 2882.28 1401.27 2880.59 1400.4 2878.26 1400.4 2876.83 1400.4 2875.39 1400.76 2873.95 1401.48 2872.5 1402.19 2870.75 1403.53 2868.7 1405.47L2868.62 1405.92 2868.7 1407.66 2868.7 1425.37C2868.7 1427.91 2868.84 1429.49 2869.13 1430.11 2869.41 1430.73 2869.94 1431.25 2870.73 1431.67 2871.51 1432.09 2872.85 1432.3 2874.74 1432.3L2874.74 1433.76 2855.97 1433.76 2855.97 1432.3C2858.03 1432.3 2859.44 1432.06 2860.21 1431.57 2860.98 1431.08 2861.51 1430.35 2861.81 1429.38 2861.95 1428.92 2862.01 1427.58 2862.01 1425.37L2862.01 1409.4C2862.01 1406.38 2861.57 1404.2 2860.68 1402.88 2859.49 1401.15 2857.83 1400.28 2855.69 1400.28 2854.23 1400.28 2852.79 1400.67 2851.35 1401.46 2849.11 1402.65 2847.38 1403.98 2846.17 1405.47L2846.17 1425.37C2846.17 1427.8 2846.34 1429.38 2846.67 1430.11 2847.01 1430.84 2847.51 1431.39 2848.17 1431.75 2848.84 1432.12 2850.18 1432.3 2852.21 1432.3L2852.21 1433.76 2833.85 1433.76 2833.85 1432.3C2835.55 1432.3 2836.74 1432.12 2837.41 1431.75 2838.09 1431.39 2838.6 1430.81 2838.95 1430.01 2839.3 1429.21 2839.48 1427.67 2839.48 1425.37L2839.48 1411.18C2839.48 1407.11 2839.36 1404.47 2839.12 1403.28 2838.93 1402.39 2838.63 1401.78 2838.22 1401.44 2837.82 1401.1 2837.26 1400.93 2836.56 1400.93 2835.81 1400.93 2834.9 1401.13 2833.85 1401.54L2833.24 1400.08ZM2823.17 1395.54 2824.95 1395.54 2824.95 1425.37C2824.95 1427.69 2825.12 1429.24 2825.46 1430.01 2825.79 1430.78 2826.29 1431.35 2826.96 1431.73 2827.62 1432.11 2828.83 1432.3 2830.58 1432.3L2830.58 1433.76 2812.55 1433.76 2812.55 1432.3C2814.36 1432.3 2815.58 1432.12 2816.2 1431.77 2816.82 1431.42 2817.31 1430.84 2817.68 1430.03 2818.04 1429.22 2818.22 1427.67 2818.22 1425.37L2818.22 1411.06C2818.22 1407.04 2818.1 1404.43 2817.86 1403.24 2817.67 1402.38 2817.37 1401.78 2816.97 1401.44 2816.56 1401.1 2816.01 1400.93 2815.3 1400.93 2814.55 1400.93 2813.63 1401.13 2812.55 1401.54L2811.98 1400.08ZM2916.77 1395.5C2920.93 1395.5 2924.35 1396.87 2927.03 1399.61 2929.7 1402.36 2931.04 1406.02 2931.04 1410.62L2905.39 1410.62C2905.36 1416.13 2906.7 1420.45 2909.4 1423.59 2912.1 1426.72 2915.27 1428.29 2918.92 1428.29 2921.35 1428.29 2923.47 1427.62 2925.26 1426.28 2927.06 1424.94 2928.57 1422.65 2929.78 1419.41L2931.04 1420.22C2930.47 1423.92 2928.82 1427.29 2926.09 1430.33 2923.37 1433.37 2919.95 1434.89 2915.84 1434.89 2911.38 1434.89 2907.57 1433.16 2904.39 1429.69 2901.22 1426.21 2899.63 1421.55 2899.63 1415.68 2899.63 1409.33 2901.26 1404.38 2904.51 1400.83 2907.77 1397.28 2911.86 1395.5 2916.77 1395.5ZM2798.67 1384.44 2799.92 1384.44 2799.92 1396.64 2808.6 1396.64 2808.6 1399.47 2799.92 1399.47 2799.92 1423.55C2799.92 1425.95 2800.27 1427.57 2800.96 1428.41 2801.65 1429.25 2802.53 1429.67 2803.61 1429.67 2804.5 1429.67 2805.37 1429.39 2806.21 1428.83 2807.04 1428.28 2807.69 1427.46 2808.15 1426.38L2809.73 1426.38C2808.79 1429.03 2807.45 1431.02 2805.72 1432.36 2803.99 1433.7 2802.21 1434.37 2800.37 1434.37 2799.13 1434.37 2797.91 1434.02 2796.72 1433.33 2795.53 1432.64 2794.66 1431.66 2794.09 1430.37 2793.52 1429.09 2793.24 1427.11 2793.24 1424.44L2793.24 1399.47 2787.36 1399.47 2787.36 1398.14C2788.85 1397.54 2790.37 1396.53 2791.92 1395.12 2793.47 1393.7 2794.86 1392.02 2796.07 1390.07 2796.7 1389.04 2797.56 1387.17 2798.67 1384.44ZM2821.59 1376.13C2822.72 1376.13 2823.69 1376.53 2824.48 1377.32 2825.28 1378.12 2825.68 1379.09 2825.68 1380.22 2825.68 1381.36 2825.28 1382.33 2824.48 1383.14 2823.69 1383.95 2822.72 1384.36 2821.59 1384.36 2820.45 1384.36 2819.48 1383.95 2818.67 1383.14 2817.86 1382.33 2817.45 1381.36 2817.45 1380.22 2817.45 1379.09 2817.85 1378.12 2818.65 1377.32 2819.45 1376.53 2820.42 1376.13 2821.59 1376.13Z" fill-rule="evenodd"/><text fill="#000000" fill-opacity="0" font-family="Arial,Arial_MSFontService,sans-serif" font-size="58.7646" x="2787.36" y="1427.55">time</text><path d="M2945.87 1348.36 2963.95 1348.36 2963.95 1351.48 2952.6 1351.48 2952.6 1422.52 2963.95 1422.52 2963.95 1425.65 2945.87 1425.65Z" fill-rule="evenodd"/><text fill="#000000" fill-opacity="0" font-family="Arial,Arial_MSFontService,sans-serif" font-size="77.2856" x="2945.87" y="1415.98">[</text><path d="M2988.26 1354.56C2986.39 1354.56 2984.83 1355.11 2983.58 1356.22 2982.32 1357.33 2981.31 1358.92 2980.54 1361 2979.77 1363.08 2979.22 1365.62 2978.89 1368.6 2978.57 1371.59 2978.41 1374.96 2978.41 1378.71 2978.41 1387.52 2979.23 1393.99 2980.86 1398.11 2982.49 1402.23 2985.03 1404.29 2988.46 1404.29 2991.73 1404.29 2994.15 1402.35 2995.73 1398.47 2997.31 1394.59 2998.1 1388.59 2998.1 1380.46 2998.1 1374.24 2997.7 1369.21 2996.89 1365.36 2996.08 1361.51 2994.95 1358.75 2993.5 1357.07 2992.06 1355.4 2990.31 1354.56 2988.26 1354.56ZM2988.46 1351.12C2994.38 1351.12 2998.78 1353.4 3001.67 1357.96 3004.56 1362.53 3006.01 1369.43 3006.01 1378.67 3006.01 1388.24 3004.46 1395.47 3001.37 1400.38 2998.27 1405.28 2993.75 1407.73 2987.81 1407.73 2981.97 1407.73 2977.63 1405.44 2974.78 1400.84 2971.93 1396.25 2970.51 1389.28 2970.51 1379.93 2970.51 1374.96 2970.94 1370.66 2971.82 1367.04 2972.7 1363.42 2973.93 1360.43 2975.51 1358.07 2977.09 1355.7 2978.99 1353.95 2981.2 1352.82 2983.42 1351.68 2985.84 1351.12 2988.46 1351.12Z" fill-rule="evenodd"/><text fill="#000000" fill-opacity="0" font-family="Arial,Arial_MSFontService,sans-serif" font-size="56.6167" x="2970.51" y="1400.66">0</text><path d="M3012.85 1348.36 3030.93 1348.36 3030.93 1425.65 3012.85 1425.65 3012.85 1422.52 3024.2 1422.52 3024.2 1351.48 3012.85 1351.48Z" fill-rule="evenodd"/><text fill="#000000" fill-opacity="0" font-family="Arial,Arial_MSFontService,sans-serif" font-size="77.2856" x="3012.85" y="1415.98">]</text><text font-family="Tw Cen MT,Tw Cen MT_MSFontService,sans-serif" font-weight="400" font-size="83" transform="matrix(1 0 0 1 3062.67 1407)">+ </text><path d="M3170.42 1372.43C3169.04 1372.43 3167.68 1372.9 3166.34 1373.83 3165.01 1374.76 3163.54 1376.26 3161.95 1378.31 3160.35 1380.36 3159.11 1382.39 3158.22 1384.39 3157.33 1386.39 3156.62 1388.68 3156.11 1391.28L3155.79 1392.98C3155.52 1394.41 3155.35 1395.51 3155.28 1396.26 3155.21 1397.02 3155.18 1397.76 3155.18 1398.49 3155.18 1400.6 3155.63 1402.13 3156.54 1403.09 3157.44 1404.05 3159 1404.53 3161.22 1404.53 3162.6 1404.53 3163.87 1404.26 3165.03 1403.72 3166.19 1403.18 3167.29 1402.4 3168.33 1401.37 3169.37 1400.34 3170.31 1399.1 3171.15 1397.64 3171.98 1396.18 3172.73 1394.49 3173.4 1392.55 3174.06 1390.62 3174.56 1388.64 3174.9 1386.6 3175.23 1384.56 3175.4 1382.65 3175.4 1380.86 3175.4 1378.03 3175 1375.91 3174.21 1374.52 3173.41 1373.13 3172.15 1372.43 3170.42 1372.43ZM3153.36 1367.65C3155.03 1367.65 3156.36 1368.2 3157.35 1369.31 3158.33 1370.42 3158.83 1371.89 3158.83 1373.73 3158.83 1375.24 3158.52 1376.84 3157.89 1378.51L3158.38 1378.67C3163.38 1371.35 3168.35 1367.69 3173.3 1367.69 3176.24 1367.69 3178.53 1368.81 3180.16 1371.05 3181.8 1373.3 3182.62 1376.46 3182.62 1380.54 3182.62 1385 3181.72 1389.38 3179.92 1393.69 3178.12 1398 3175.63 1401.42 3172.44 1403.94 3169.26 1406.47 3165.69 1407.73 3161.74 1407.73 3158.15 1407.73 3155.17 1406.95 3152.79 1405.38L3150.92 1414.26C3150.52 1416.18 3150.32 1417.76 3150.32 1419 3150.32 1420.19 3150.62 1421.03 3151.23 1421.53 3151.84 1422.03 3153.02 1422.36 3154.77 1422.52L3154.45 1424.51 3141.93 1424.51 3151.69 1381.51C3152.26 1379.03 3152.55 1376.99 3152.55 1375.39 3152.55 1374.31 3152.37 1373.53 3152.02 1373.04 3151.67 1372.55 3151.11 1372.31 3150.36 1372.31 3149.52 1372.31 3148.63 1372.66 3147.7 1373.34 3146.77 1374.03 3145.49 1375.28 3143.87 1377.09L3141.56 1374.82C3143.99 1372.28 3146.05 1370.45 3147.74 1369.33 3149.43 1368.21 3151.3 1367.65 3153.36 1367.65Z" fill-rule="evenodd"/><text fill="#000000" fill-opacity="0" font-family="Arial,Arial_MSFontService,sans-serif" font-size="56.8599" x="3141.56" y="1417.4">ğ‘</text><path d="M3201.47 1388.24C3200.08 1388.24 3198.92 1388.61 3197.99 1389.33 3197.05 1390.06 3196.32 1391.12 3195.77 1392.52 3195.22 1393.92 3194.84 1395.63 3194.61 1397.64 3194.38 1399.66 3194.27 1401.95 3194.27 1404.51 3194.27 1407.47 3194.41 1410.02 3194.7 1412.18 3194.98 1414.33 3195.43 1416.1 3196.04 1417.49 3196.64 1418.88 3197.4 1419.91 3198.32 1420.56 3199.23 1421.22 3200.32 1421.54 3201.59 1421.54 3202.78 1421.54 3203.83 1421.24 3204.72 1420.62 3205.61 1420.01 3206.35 1419.05 3206.94 1417.75 3207.52 1416.45 3207.97 1414.8 3208.26 1412.8 3208.56 1410.81 3208.71 1408.45 3208.71 1405.73 3208.71 1402.67 3208.55 1400.04 3208.22 1397.84 3207.89 1395.63 3207.43 1393.82 3206.83 1392.4 3206.24 1390.98 3205.49 1389.93 3204.59 1389.26 3203.68 1388.58 3202.64 1388.24 3201.47 1388.24ZM3201.59 1385.36C3203.96 1385.36 3205.98 1385.8 3207.65 1386.68 3209.33 1387.56 3210.7 1388.83 3211.76 1390.46 3212.83 1392.1 3213.61 1394.1 3214.1 1396.47 3214.6 1398.83 3214.85 1401.5 3214.85 1404.48 3214.85 1411.09 3213.68 1416.09 3211.33 1419.47 3208.99 1422.86 3205.59 1424.55 3201.15 1424.55 3196.74 1424.55 3193.46 1422.95 3191.32 1419.76 3189.17 1416.56 3188.1 1411.72 3188.1 1405.22 3188.1 1401.83 3188.43 1398.89 3189.1 1396.41 3189.76 1393.92 3190.7 1391.86 3191.9 1390.23 3193.1 1388.59 3194.52 1387.37 3196.17 1386.56 3197.82 1385.76 3199.63 1385.36 3201.59 1385.36Z" fill-rule="evenodd"/><text fill="#000000" fill-opacity="0" font-family="Arial,Arial_MSFontService,sans-serif" font-size="39.1973" x="3188.1" y="1419.65">0</text><path d="M3238.86 1385.56 3240.68 1385.56C3240.64 1386.66 3240.61 1387.63 3240.59 1388.5 3240.57 1389.36 3240.56 1390.2 3240.55 1391.01 3240.54 1391.83 3240.53 1392.63 3240.53 1393.43L3240.53 1416.06C3240.53 1416.68 3240.55 1417.21 3240.59 1417.66 3240.63 1418.1 3240.7 1418.48 3240.78 1418.79 3240.87 1419.1 3240.99 1419.36 3241.14 1419.58 3241.29 1419.8 3241.46 1419.99 3241.66 1420.14 3241.9 1420.38 3242.22 1420.57 3242.62 1420.7 3243.01 1420.82 3243.52 1420.93 3244.14 1421.02 3244.75 1421.11 3245.49 1421.18 3246.35 1421.23 3247.22 1421.28 3248.26 1421.32 3249.47 1421.34L3249.47 1423.93 3225.85 1423.93 3225.85 1421.34C3227.02 1421.3 3228.01 1421.25 3228.83 1421.2 3229.64 1421.15 3230.33 1421.08 3230.91 1420.99 3231.49 1420.9 3231.95 1420.8 3232.3 1420.7 3232.64 1420.59 3232.95 1420.45 3233.2 1420.29 3233.48 1420.11 3233.72 1419.92 3233.92 1419.71 3234.12 1419.5 3234.28 1419.24 3234.4 1418.92 3234.51 1418.61 3234.61 1418.22 3234.68 1417.76 3234.75 1417.31 3234.78 1416.74 3234.78 1416.06L3234.78 1394.71C3234.78 1393.93 3234.63 1393.39 3234.34 1393.07 3234.04 1392.75 3233.61 1392.59 3233.06 1392.59 3232.44 1392.59 3231.53 1392.91 3230.32 1393.55 3229.1 1394.18 3227.54 1395.13 3225.61 1396.38 3225.35 1395.92 3225.11 1395.46 3224.89 1395.01 3224.68 1394.55 3224.45 1394.08 3224.21 1393.61 3226.67 1392.26 3229.11 1390.91 3231.52 1389.57 3233.93 1388.23 3236.38 1386.89 3238.86 1385.56Z" fill-rule="evenodd"/><text fill="#000000" fill-opacity="0" font-family="Arial,Arial_MSFontService,sans-serif" font-size="38.3633" x="3224.21" y="1419.13">1</text><path d="M3261.54 1397.68 3269.72 1397.68 3269.72 1407.08 3261.54 1407.08Z" fill-rule="evenodd"/><text fill="#000000" fill-opacity="0" font-family="Arial,Arial_MSFontService,sans-serif" font-size="9.40234" x="3261.54" y="1405.91">.</text><path d="M3289.15 1369.96 3306.62 1369.96 3306.62 1371.46C3305.51 1371.46 3304.74 1371.65 3304.29 1372.03 3303.84 1372.41 3303.62 1372.91 3303.62 1373.53 3303.62 1374.18 3304.09 1375.18 3305.04 1376.53 3305.34 1376.96 3305.78 1377.63 3306.38 1378.55L3309.01 1382.77 3312.05 1378.55C3314 1375.88 3314.97 1374.19 3314.97 1373.49 3314.97 1372.92 3314.74 1372.44 3314.28 1372.05 3313.82 1371.66 3313.08 1371.46 3312.05 1371.46L3312.05 1369.96 3324.61 1369.96 3324.61 1371.46C3323.29 1371.54 3322.14 1371.91 3321.17 1372.55 3319.85 1373.47 3318.04 1375.47 3315.74 1378.55L3310.67 1385.32 3319.91 1398.61C3322.18 1401.88 3323.8 1403.85 3324.78 1404.51 3325.75 1405.17 3327.01 1405.54 3328.55 1405.62L3328.55 1407.08 3311.04 1407.08 3311.04 1405.62C3312.25 1405.62 3313.2 1405.35 3313.87 1404.81 3314.39 1404.44 3314.64 1403.94 3314.64 1403.31 3314.64 1402.69 3313.78 1401.13 3312.05 1398.61L3306.62 1390.67 3300.66 1398.61C3298.83 1401.07 3297.91 1402.53 3297.91 1402.99 3297.91 1403.64 3298.21 1404.23 3298.82 1404.75 3299.43 1405.28 3300.34 1405.57 3301.55 1405.62L3301.55 1407.08 3289.44 1407.08 3289.44 1405.62C3290.41 1405.49 3291.26 1405.15 3291.99 1404.61 3293.02 1403.83 3294.75 1401.83 3297.18 1398.61L3304.96 1388.28 3297.91 1378.07C3295.91 1375.15 3294.36 1373.32 3293.27 1372.57 3292.17 1371.83 3290.8 1371.46 3289.15 1371.46Z" fill-rule="evenodd"/><text fill="#000000" fill-opacity="0" font-family="Arial,Arial_MSFontService,sans-serif" font-size="37.123" x="3289.15" y="1402.44">x</text><path d="M3457.26 1398.38C3455.02 1398.38 3453.01 1399.25 3451.24 1400.99 3449.47 1402.73 3448.44 1405.16 3448.14 1408.27L3465.33 1408.27C3465.19 1405.89 3464.91 1404.21 3464.48 1403.24 3463.8 1401.73 3462.79 1400.54 3461.46 1399.68 3460.12 1398.81 3458.72 1398.38 3457.26 1398.38ZM3387.18 1395.54 3388.93 1395.54 3388.93 1403.44C3391.63 1400.74 3393.22 1399.19 3393.71 1398.78 3394.92 1397.76 3396.23 1396.96 3397.64 1396.39 3399.04 1395.83 3400.44 1395.54 3401.81 1395.54 3404.14 1395.54 3406.14 1396.22 3407.81 1397.57 3409.49 1398.92 3410.61 1400.88 3411.18 1403.44 3413.96 1400.2 3416.31 1398.07 3418.23 1397.06 3420.15 1396.05 3422.12 1395.54 3424.14 1395.54 3426.12 1395.54 3427.87 1396.05 3429.39 1397.06 3430.92 1398.07 3432.13 1399.73 3433.02 1402.03 3433.61 1403.59 3433.91 1406.05 3433.91 1409.4L3433.91 1425.37C3433.91 1427.69 3434.09 1429.29 3434.44 1430.15 3434.71 1430.75 3435.21 1431.25 3435.94 1431.67 3436.67 1432.09 3437.86 1432.3 3439.5 1432.3L3439.5 1433.76 3421.19 1433.76 3421.19 1432.3 3421.96 1432.3C3423.55 1432.3 3424.79 1431.99 3425.68 1431.37 3426.31 1430.94 3426.75 1430.25 3427.02 1429.3 3427.13 1428.84 3427.18 1427.53 3427.18 1425.37L3427.18 1409.4C3427.18 1406.38 3426.82 1404.24 3426.09 1403 3425.04 1401.27 3423.35 1400.4 3421.02 1400.4 3419.59 1400.4 3418.15 1400.76 3416.71 1401.48 3415.26 1402.19 3413.51 1403.53 3411.46 1405.47L3411.38 1405.92 3411.46 1407.66 3411.46 1425.37C3411.46 1427.91 3411.6 1429.49 3411.88 1430.11 3412.17 1430.73 3412.7 1431.25 3413.49 1431.67 3414.27 1432.09 3415.61 1432.3 3417.5 1432.3L3417.5 1433.76 3398.73 1433.76 3398.73 1432.3C3400.79 1432.3 3402.2 1432.06 3402.97 1431.57 3403.74 1431.08 3404.27 1430.35 3404.57 1429.38 3404.7 1428.92 3404.77 1427.58 3404.77 1425.37L3404.77 1409.4C3404.77 1406.38 3404.33 1404.2 3403.43 1402.88 3402.25 1401.15 3400.58 1400.28 3398.45 1400.28 3396.99 1400.28 3395.54 1400.67 3394.11 1401.46 3391.87 1402.65 3390.14 1403.98 3388.93 1405.47L3388.93 1425.37C3388.93 1427.8 3389.09 1429.38 3389.43 1430.11 3389.77 1430.84 3390.27 1431.39 3390.93 1431.75 3391.59 1432.12 3392.94 1432.3 3394.96 1432.3L3394.96 1433.76 3376.61 1433.76 3376.61 1432.3C3378.31 1432.3 3379.5 1432.12 3380.17 1431.75 3380.85 1431.39 3381.36 1430.81 3381.71 1430.01 3382.06 1429.21 3382.24 1427.67 3382.24 1425.37L3382.24 1411.18C3382.24 1407.11 3382.12 1404.47 3381.87 1403.28 3381.68 1402.39 3381.39 1401.78 3380.98 1401.44 3380.58 1401.1 3380.02 1400.93 3379.32 1400.93 3378.56 1400.93 3377.66 1401.13 3376.61 1401.54L3376 1400.08ZM3365.93 1395.54 3367.71 1395.54 3367.71 1425.37C3367.71 1427.69 3367.88 1429.24 3368.22 1430.01 3368.55 1430.78 3369.05 1431.35 3369.71 1431.73 3370.38 1432.11 3371.59 1432.3 3373.34 1432.3L3373.34 1433.76 3355.31 1433.76 3355.31 1432.3C3357.12 1432.3 3358.33 1432.12 3358.95 1431.77 3359.58 1431.42 3360.07 1430.84 3360.43 1430.03 3360.8 1429.22 3360.98 1427.67 3360.98 1425.37L3360.98 1411.06C3360.98 1407.04 3360.86 1404.43 3360.62 1403.24 3360.43 1402.38 3360.13 1401.78 3359.72 1401.44 3359.32 1401.1 3358.77 1400.93 3358.06 1400.93 3357.31 1400.93 3356.39 1401.13 3355.31 1401.54L3354.74 1400.08ZM3459.53 1395.5C3463.69 1395.5 3467.11 1396.87 3469.78 1399.61 3472.46 1402.36 3473.8 1406.02 3473.8 1410.62L3448.14 1410.62C3448.12 1416.13 3449.45 1420.45 3452.16 1423.59 3454.86 1426.72 3458.03 1428.29 3461.68 1428.29 3464.11 1428.29 3466.23 1427.62 3468.02 1426.28 3469.82 1424.94 3471.32 1422.65 3472.54 1419.41L3473.8 1420.22C3473.23 1423.92 3471.58 1427.29 3468.85 1430.33 3466.12 1433.37 3462.71 1434.89 3458.6 1434.89 3454.14 1434.89 3450.32 1433.16 3447.15 1429.69 3443.98 1426.21 3442.39 1421.55 3442.39 1415.68 3442.39 1409.33 3444.02 1404.38 3447.27 1400.83 3450.53 1397.28 3454.61 1395.5 3459.53 1395.5ZM3341.43 1384.44 3342.68 1384.44 3342.68 1396.64 3351.36 1396.64 3351.36 1399.47 3342.68 1399.47 3342.68 1423.55C3342.68 1425.95 3343.03 1427.57 3343.72 1428.41 3344.4 1429.25 3345.29 1429.67 3346.37 1429.67 3347.26 1429.67 3348.13 1429.39 3348.96 1428.83 3349.8 1428.28 3350.45 1427.46 3350.91 1426.38L3352.49 1426.38C3351.54 1429.03 3350.21 1431.02 3348.48 1432.36 3346.75 1433.7 3344.97 1434.37 3343.13 1434.37 3341.89 1434.37 3340.67 1434.02 3339.48 1433.33 3338.29 1432.64 3337.41 1431.66 3336.85 1430.37 3336.28 1429.09 3336 1427.11 3336 1424.44L3336 1399.47 3330.12 1399.47 3330.12 1398.14C3331.6 1397.54 3333.12 1396.53 3334.68 1395.12 3336.23 1393.7 3337.62 1392.02 3338.83 1390.07 3339.45 1389.04 3340.32 1387.17 3341.43 1384.44ZM3364.34 1376.13C3365.48 1376.13 3366.45 1376.53 3367.24 1377.32 3368.04 1378.12 3368.44 1379.09 3368.44 1380.22 3368.44 1381.36 3368.04 1382.33 3367.24 1383.14 3366.45 1383.95 3365.48 1384.36 3364.34 1384.36 3363.21 1384.36 3362.24 1383.95 3361.43 1383.14 3360.62 1382.33 3360.21 1381.36 3360.21 1380.22 3360.21 1379.09 3360.61 1378.12 3361.41 1377.32 3362.2 1376.53 3363.18 1376.13 3364.34 1376.13Z" fill-rule="evenodd"/><text fill="#000000" fill-opacity="0" font-family="Arial,Arial_MSFontService,sans-serif" font-size="58.7646" x="3330.12" y="1427.55">time</text><path d="M3488.63 1348.36 3506.71 1348.36 3506.71 1351.48 3495.36 1351.48 3495.36 1422.52 3506.71 1422.52 3506.71 1425.65 3488.63 1425.65Z" fill-rule="evenodd"/><text fill="#000000" fill-opacity="0" font-family="Arial,Arial_MSFontService,sans-serif" font-size="77.2856" x="3488.63" y="1415.98">[</text><path d="M3534.22 1351.12 3536.45 1351.12C3536.28 1353.71 3536.2 1357.3 3536.2 1361.9L3536.2 1396.51C3536.2 1398.07 3536.29 1399.26 3536.47 1400.05 3536.64 1400.85 3536.95 1401.5 3537.4 1402 3537.84 1402.5 3538.48 1402.89 3539.32 1403.17 3540.16 1403.46 3541.21 1403.67 3542.48 1403.82 3543.75 1403.97 3545.43 1404.07 3547.51 1404.13L3547.51 1407.08 3517.56 1407.08 3517.56 1404.13C3520.56 1403.99 3522.7 1403.81 3523.98 1403.58 3525.27 1403.35 3526.25 1403 3526.92 1402.54 3527.6 1402.09 3528.09 1401.44 3528.4 1400.6 3528.71 1399.76 3528.87 1398.4 3528.87 1396.51L3528.87 1363.64C3528.87 1362.56 3528.68 1361.77 3528.3 1361.27 3527.92 1360.77 3527.37 1360.52 3526.64 1360.52 3525.77 1360.52 3524.54 1360.96 3522.95 1361.86 3521.36 1362.75 3519.38 1363.98 3517.03 1365.54L3515.25 1362.42Z" fill-rule="evenodd"/><text fill="#000000" fill-opacity="0" font-family="Arial,Arial_MSFontService,sans-serif" font-size="55.9683" x="3515.25" y="1400.09">1</text><path d="M3555.61 1348.36 3573.69 1348.36 3573.69 1425.65 3555.61 1425.65 3555.61 1422.52 3566.96 1422.52 3566.96 1351.48 3555.61 1351.48Z" fill-rule="evenodd"/><text fill="#000000" fill-opacity="0" font-family="Arial,Arial_MSFontService,sans-serif" font-size="77.2856" x="3555.61" y="1415.98">]</text><path d="M2627.66 1632.3C2626.28 1632.3 2624.92 1632.76 2623.59 1633.7 2622.25 1634.63 2620.78 1636.12 2619.19 1638.17 2617.59 1640.23 2616.35 1642.25 2615.46 1644.25 2614.57 1646.25 2613.87 1648.55 2613.35 1651.14L2613.03 1652.84C2612.76 1654.28 2612.59 1655.37 2612.52 1656.13 2612.45 1656.88 2612.42 1657.63 2612.42 1658.36 2612.42 1660.46 2612.87 1662 2613.78 1662.96 2614.68 1663.91 2616.24 1664.39 2618.46 1664.39 2619.84 1664.39 2621.11 1664.12 2622.27 1663.58 2623.43 1663.04 2624.53 1662.26 2625.57 1661.23 2626.61 1660.21 2627.55 1658.96 2628.39 1657.5 2629.23 1656.05 2629.98 1654.35 2630.64 1652.42 2631.3 1650.49 2631.8 1648.5 2632.14 1646.46 2632.48 1644.42 2632.64 1642.51 2632.64 1640.73 2632.64 1637.89 2632.25 1635.78 2631.45 1634.38 2630.65 1632.99 2629.39 1632.3 2627.66 1632.3ZM2610.6 1627.51C2612.27 1627.51 2613.6 1628.07 2614.59 1629.18 2615.58 1630.28 2616.07 1631.76 2616.07 1633.59 2616.07 1635.11 2615.76 1636.7 2615.14 1638.38L2615.62 1638.54C2620.62 1631.22 2625.59 1627.56 2630.54 1627.56 2633.48 1627.56 2635.77 1628.68 2637.41 1630.92 2639.04 1633.16 2639.86 1636.32 2639.86 1640.4 2639.86 1644.86 2638.96 1649.24 2637.16 1653.55 2635.37 1657.86 2632.87 1661.28 2629.69 1663.81 2626.5 1666.33 2622.93 1667.6 2618.99 1667.6 2615.39 1667.6 2612.41 1666.81 2610.03 1665.25L2608.17 1674.12C2607.76 1676.04 2607.56 1677.62 2607.56 1678.86 2607.56 1680.05 2607.86 1680.9 2608.47 1681.4 2609.08 1681.9 2610.26 1682.23 2612.02 1682.39L2611.69 1684.37 2599.17 1684.37 2608.94 1641.38C2609.5 1638.89 2609.79 1636.85 2609.79 1635.26 2609.79 1634.17 2609.61 1633.39 2609.26 1632.9 2608.91 1632.42 2608.35 1632.18 2607.6 1632.18 2606.76 1632.18 2605.88 1632.52 2604.94 1633.21 2604.01 1633.9 2602.73 1635.15 2601.11 1636.96L2598.8 1634.69C2601.24 1632.15 2603.3 1630.32 2604.98 1629.2 2606.67 1628.08 2608.54 1627.51 2610.6 1627.51Z" fill-rule="evenodd"/><text fill="#000000" fill-opacity="0" font-family="Arial,Arial_MSFontService,sans-serif" font-size="56.8599" x="2598.8" y="1677.27">ğ‘</text><path d="M2659.25 1645.43 2661.07 1645.43C2661.03 1646.52 2661 1647.5 2660.98 1648.36 2660.96 1649.23 2660.95 1650.06 2660.94 1650.88 2660.93 1651.69 2660.92 1652.5 2660.92 1653.29L2660.92 1675.93C2660.92 1676.54 2660.94 1677.07 2660.98 1677.52 2661.02 1677.97 2661.09 1678.35 2661.18 1678.65 2661.27 1678.96 2661.38 1679.22 2661.53 1679.44 2661.68 1679.66 2661.86 1679.85 2662.05 1680.01 2662.29 1680.25 2662.61 1680.43 2663.01 1680.56 2663.4 1680.69 2663.91 1680.8 2664.53 1680.89 2665.14 1680.98 2665.88 1681.05 2666.75 1681.1 2667.61 1681.15 2668.65 1681.18 2669.86 1681.2L2669.86 1683.79 2646.24 1683.79 2646.24 1681.2C2647.41 1681.16 2648.4 1681.12 2649.22 1681.07 2650.03 1681.02 2650.73 1680.95 2651.3 1680.86 2651.88 1680.77 2652.34 1680.67 2652.69 1680.56 2653.03 1680.45 2653.34 1680.32 2653.6 1680.16 2653.87 1679.98 2654.11 1679.79 2654.31 1679.58 2654.51 1679.37 2654.67 1679.11 2654.79 1678.79 2654.91 1678.47 2655 1678.08 2655.07 1677.63 2655.14 1677.17 2655.17 1676.6 2655.17 1675.93L2655.17 1654.57C2655.17 1653.8 2655.03 1653.25 2654.73 1652.93 2654.43 1652.62 2654 1652.46 2653.45 1652.46 2652.83 1652.46 2651.92 1652.78 2650.71 1653.41 2649.5 1654.05 2647.93 1654.99 2646 1656.24 2645.74 1655.78 2645.5 1655.33 2645.29 1654.87 2645.07 1654.41 2644.84 1653.95 2644.6 1653.47 2647.06 1652.12 2649.5 1650.77 2651.91 1649.43 2654.33 1648.09 2656.77 1646.76 2659.25 1645.43Z" fill-rule="evenodd"/><text fill="#000000" fill-opacity="0" font-family="Arial,Arial_MSFontService,sans-serif" font-size="38.3633" x="2644.6" y="1679">1</text><path d="M2691.76 1648.11C2690.37 1648.11 2689.21 1648.47 2688.28 1649.2 2687.34 1649.92 2686.6 1650.98 2686.06 1652.38 2685.51 1653.78 2685.12 1655.49 2684.89 1657.51 2684.67 1659.52 2684.55 1661.81 2684.55 1664.37 2684.55 1667.33 2684.7 1669.89 2684.98 1672.04 2685.27 1674.2 2685.72 1675.97 2686.32 1677.36 2686.93 1678.75 2687.69 1679.77 2688.6 1680.43 2689.52 1681.08 2690.61 1681.41 2691.88 1681.41 2693.07 1681.41 2694.11 1681.1 2695.01 1680.49 2695.9 1679.87 2696.64 1678.91 2697.23 1677.61 2697.81 1676.31 2698.25 1674.66 2698.55 1672.67 2698.85 1670.67 2699 1668.31 2699 1665.59 2699 1662.53 2698.83 1659.9 2698.51 1657.7 2698.18 1655.5 2697.72 1653.68 2697.12 1652.26 2696.53 1650.84 2695.78 1649.8 2694.87 1649.12 2693.97 1648.45 2692.93 1648.11 2691.76 1648.11ZM2691.88 1645.22C2694.24 1645.22 2696.26 1645.66 2697.94 1646.55 2699.62 1647.43 2700.99 1648.69 2702.05 1650.33 2703.11 1651.97 2703.89 1653.97 2704.39 1656.33 2704.89 1658.69 2705.13 1661.36 2705.13 1664.34 2705.13 1670.95 2703.96 1675.95 2701.62 1679.34 2699.28 1682.72 2695.88 1684.42 2691.43 1684.42 2687.02 1684.42 2683.75 1682.82 2681.6 1679.62 2679.46 1676.42 2678.39 1671.58 2678.39 1665.09 2678.39 1661.69 2678.72 1658.75 2679.38 1656.27 2680.05 1653.79 2680.98 1651.73 2682.18 1650.09 2683.39 1648.45 2684.81 1647.23 2686.46 1646.43 2688.11 1645.62 2689.91 1645.22 2691.88 1645.22Z" fill-rule="evenodd"/><text fill="#000000" fill-opacity="0" font-family="Arial,Arial_MSFontService,sans-serif" font-size="39.1973" x="2678.39" y="1679.52">0</text><path d="M2716.88 1657.55 2725.06 1657.55 2725.06 1666.95 2716.88 1666.95Z" fill-rule="evenodd"/><text fill="#000000" fill-opacity="0" font-family="Arial,Arial_MSFontService,sans-serif" font-size="9.40234" x="2716.88" y="1665.77">.</text><path d="M2744.49 1629.82 2761.96 1629.82 2761.96 1631.32C2760.85 1631.32 2760.07 1631.51 2759.63 1631.89 2759.18 1632.27 2758.96 1632.77 2758.96 1633.39 2758.96 1634.04 2759.43 1635.04 2760.38 1636.39 2760.68 1636.82 2761.12 1637.5 2761.72 1638.42L2764.35 1642.63 2767.39 1638.42C2769.34 1635.74 2770.31 1634.05 2770.31 1633.35 2770.31 1632.78 2770.08 1632.3 2769.62 1631.91 2769.16 1631.52 2768.42 1631.32 2767.39 1631.32L2767.39 1629.82 2779.95 1629.82 2779.95 1631.32C2778.63 1631.41 2777.48 1631.77 2776.51 1632.42 2775.18 1633.34 2773.37 1635.34 2771.08 1638.42L2766.01 1645.18 2775.25 1658.48C2777.52 1661.75 2779.14 1663.71 2780.12 1664.37 2781.09 1665.04 2782.34 1665.41 2783.88 1665.49L2783.88 1666.95 2766.38 1666.95 2766.38 1665.49C2767.59 1665.49 2768.54 1665.22 2769.21 1664.68 2769.73 1664.3 2769.98 1663.8 2769.98 1663.18 2769.98 1662.56 2769.12 1660.99 2767.39 1658.48L2761.96 1650.53 2756 1658.48C2754.16 1660.94 2753.25 1662.4 2753.25 1662.85 2753.25 1663.5 2753.55 1664.09 2754.16 1664.62 2754.77 1665.14 2755.68 1665.43 2756.89 1665.49L2756.89 1666.95 2744.78 1666.95 2744.78 1665.49C2745.75 1665.35 2746.6 1665.02 2747.33 1664.48 2748.36 1663.69 2750.08 1661.69 2752.52 1658.48L2760.3 1648.14 2753.25 1637.93C2751.25 1635.01 2749.7 1633.18 2748.61 1632.44 2747.51 1631.7 2746.14 1631.32 2744.49 1631.32Z" fill-rule="evenodd"/><text fill="#000000" fill-opacity="0" font-family="Arial,Arial_MSFontService,sans-serif" font-size="37.123" x="2744.49" y="1662.31">x</text><path d="M2912.6 1658.24C2910.36 1658.24 2908.35 1659.11 2906.58 1660.86 2904.81 1662.6 2903.78 1665.02 2903.48 1668.13L2920.67 1668.13C2920.53 1665.75 2920.25 1664.08 2919.82 1663.11 2919.14 1661.59 2918.13 1660.4 2916.8 1659.54 2915.46 1658.67 2914.06 1658.24 2912.6 1658.24ZM2842.52 1655.41 2844.26 1655.41 2844.26 1663.31C2846.97 1660.61 2848.56 1659.05 2849.05 1658.65 2850.26 1657.62 2851.57 1656.82 2852.98 1656.26 2854.38 1655.69 2855.77 1655.41 2857.15 1655.41 2859.48 1655.41 2861.48 1656.08 2863.15 1657.43 2864.83 1658.78 2865.95 1660.74 2866.51 1663.31 2869.3 1660.07 2871.65 1657.94 2873.57 1656.93 2875.48 1655.91 2877.46 1655.41 2879.48 1655.41 2881.46 1655.41 2883.2 1655.91 2884.73 1656.93 2886.26 1657.94 2887.47 1659.59 2888.36 1661.89 2888.95 1663.46 2889.25 1665.92 2889.25 1669.27L2889.25 1685.23C2889.25 1687.56 2889.43 1689.15 2889.78 1690.02 2890.05 1690.61 2890.55 1691.12 2891.28 1691.54 2892.01 1691.95 2893.19 1692.16 2894.84 1692.16L2894.84 1693.62 2876.52 1693.62 2876.52 1692.16 2877.29 1692.16C2878.89 1692.16 2880.13 1691.85 2881.02 1691.23 2881.64 1690.8 2882.09 1690.11 2882.36 1689.16 2882.47 1688.71 2882.52 1687.4 2882.52 1685.23L2882.52 1669.27C2882.52 1666.24 2882.16 1664.11 2881.43 1662.86 2880.37 1661.13 2878.69 1660.27 2876.36 1660.27 2874.93 1660.27 2873.49 1660.63 2872.05 1661.34 2870.6 1662.06 2868.85 1663.39 2866.8 1665.33L2866.72 1665.78 2866.8 1667.52 2866.8 1685.23C2866.8 1687.77 2866.94 1689.35 2867.22 1689.98 2867.51 1690.6 2868.04 1691.12 2868.82 1691.54 2869.61 1691.95 2870.95 1692.16 2872.84 1692.16L2872.84 1693.62 2854.07 1693.62 2854.07 1692.16C2856.13 1692.16 2857.54 1691.92 2858.31 1691.43 2859.08 1690.95 2859.61 1690.22 2859.91 1689.25 2860.04 1688.79 2860.11 1687.45 2860.11 1685.23L2860.11 1669.27C2860.11 1666.24 2859.67 1664.06 2858.77 1662.74 2857.58 1661.01 2855.92 1660.15 2853.79 1660.15 2852.33 1660.15 2850.88 1660.54 2849.45 1661.32 2847.21 1662.51 2845.48 1663.85 2844.26 1665.33L2844.26 1685.23C2844.26 1687.67 2844.43 1689.25 2844.77 1689.98 2845.11 1690.7 2845.61 1691.25 2846.27 1691.62 2846.93 1691.98 2848.28 1692.16 2850.3 1692.16L2850.3 1693.62 2831.94 1693.62 2831.94 1692.16C2833.65 1692.16 2834.84 1691.98 2835.51 1691.62 2836.19 1691.25 2836.7 1690.67 2837.05 1689.87 2837.4 1689.08 2837.58 1687.53 2837.58 1685.23L2837.58 1671.05C2837.58 1666.97 2837.46 1664.34 2837.21 1663.15 2837.02 1662.25 2836.73 1661.64 2836.32 1661.3 2835.92 1660.96 2835.36 1660.8 2834.66 1660.8 2833.9 1660.8 2833 1661 2831.94 1661.4L2831.34 1659.94ZM2821.26 1655.41 2823.05 1655.41 2823.05 1685.23C2823.05 1687.56 2823.22 1689.1 2823.55 1689.87 2823.89 1690.64 2824.39 1691.22 2825.05 1691.6 2825.72 1691.97 2826.93 1692.16 2828.68 1692.16L2828.68 1693.62 2810.65 1693.62 2810.65 1692.16C2812.46 1692.16 2813.67 1691.99 2814.29 1691.64 2814.92 1691.29 2815.41 1690.7 2815.77 1689.89 2816.14 1689.08 2816.32 1687.53 2816.32 1685.23L2816.32 1670.93C2816.32 1666.9 2816.2 1664.29 2815.96 1663.11 2815.77 1662.24 2815.47 1661.64 2815.06 1661.3 2814.66 1660.96 2814.1 1660.8 2813.4 1660.8 2812.65 1660.8 2811.73 1661 2810.65 1661.4L2810.08 1659.94ZM2914.87 1655.36C2919.03 1655.36 2922.45 1656.74 2925.12 1659.48 2927.8 1662.22 2929.14 1665.89 2929.14 1670.48L2903.48 1670.48C2903.46 1675.99 2904.79 1680.32 2907.49 1683.45 2910.2 1686.58 2913.37 1688.15 2917.02 1688.15 2919.45 1688.15 2921.56 1687.48 2923.36 1686.15 2925.16 1684.81 2926.66 1682.52 2927.88 1679.28L2929.14 1680.09C2928.57 1683.79 2926.92 1687.16 2924.19 1690.2 2921.46 1693.24 2918.05 1694.76 2913.94 1694.76 2909.48 1694.76 2905.66 1693.02 2902.49 1689.55 2899.32 1686.08 2897.73 1681.41 2897.73 1675.55 2897.73 1669.2 2899.36 1664.25 2902.61 1660.69 2905.87 1657.14 2909.95 1655.36 2914.87 1655.36ZM2796.77 1644.3 2798.02 1644.3 2798.02 1656.5 2806.69 1656.5 2806.69 1659.34 2798.02 1659.34 2798.02 1683.41C2798.02 1685.81 2798.37 1687.44 2799.06 1688.27 2799.74 1689.11 2800.63 1689.53 2801.71 1689.53 2802.6 1689.53 2803.47 1689.25 2804.3 1688.7 2805.14 1688.14 2805.79 1687.33 2806.25 1686.25L2807.83 1686.25C2806.88 1688.89 2805.55 1690.89 2803.82 1692.22 2802.09 1693.56 2800.3 1694.23 2798.47 1694.23 2797.22 1694.23 2796.01 1693.89 2794.82 1693.2 2793.63 1692.51 2792.75 1691.52 2792.19 1690.24 2791.62 1688.96 2791.33 1686.98 2791.33 1684.3L2791.33 1659.34 2785.46 1659.34 2785.46 1658C2786.94 1657.4 2788.46 1656.4 2790.02 1654.98 2791.57 1653.56 2792.96 1651.88 2794.17 1649.93 2794.79 1648.91 2795.66 1647.03 2796.77 1644.3ZM2819.68 1635.99C2820.82 1635.99 2821.78 1636.39 2822.58 1637.19 2823.38 1637.99 2823.78 1638.95 2823.78 1640.09 2823.78 1641.22 2823.38 1642.19 2822.58 1643 2821.78 1643.81 2820.82 1644.22 2819.68 1644.22 2818.55 1644.22 2817.58 1643.81 2816.77 1643 2815.96 1642.19 2815.55 1641.22 2815.55 1640.09 2815.55 1638.95 2815.95 1637.99 2816.75 1637.19 2817.54 1636.39 2818.52 1635.99 2819.68 1635.99Z" fill-rule="evenodd"/><text fill="#000000" fill-opacity="0" font-family="Arial,Arial_MSFontService,sans-serif" font-size="58.7646" x="2785.46" y="1687.41">time</text><path d="M2943.97 1608.22 2962.04 1608.22 2962.04 1611.34 2950.7 1611.34 2950.7 1682.39 2962.04 1682.39 2962.04 1685.51 2943.97 1685.51Z" fill-rule="evenodd"/><text fill="#000000" fill-opacity="0" font-family="Arial,Arial_MSFontService,sans-serif" font-size="77.2856" x="2943.97" y="1675.85">[</text><path d="M2986.35 1614.42C2984.49 1614.42 2982.93 1614.98 2981.67 1616.09 2980.42 1617.19 2979.4 1618.79 2978.63 1620.87 2977.86 1622.95 2977.32 1625.48 2976.99 1628.47 2976.67 1631.45 2976.51 1634.82 2976.51 1638.58 2976.51 1647.39 2977.32 1653.85 2978.96 1657.97 2980.59 1662.09 2983.12 1664.15 2986.56 1664.15 2989.83 1664.15 2992.25 1662.21 2993.83 1658.34 2995.41 1654.46 2996.2 1648.45 2996.2 1640.32 2996.2 1634.11 2995.8 1629.07 2994.99 1625.22 2994.18 1621.37 2993.05 1618.61 2991.6 1616.94 2990.16 1615.26 2988.41 1614.42 2986.35 1614.42ZM2986.56 1610.98C2992.47 1610.98 2996.88 1613.26 2999.77 1617.83 3002.66 1622.39 3004.1 1629.3 3004.1 1638.54 3004.1 1648.1 3002.56 1655.34 2999.46 1660.24 2996.37 1665.14 2991.85 1667.6 2985.91 1667.6 2980.07 1667.6 2975.73 1665.3 2972.88 1660.71 2970.03 1656.11 2968.6 1649.14 2968.6 1639.79 2968.6 1634.82 2969.04 1630.53 2969.92 1626.91 2970.8 1623.29 2972.03 1620.29 2973.61 1617.93 2975.19 1615.57 2977.09 1613.82 2979.3 1612.68 2981.52 1611.55 2983.94 1610.98 2986.56 1610.98Z" fill-rule="evenodd"/><text fill="#000000" fill-opacity="0" font-family="Arial,Arial_MSFontService,sans-serif" font-size="56.6167" x="2968.6" y="1660.52">0</text><path d="M3010.95 1608.22 3029.03 1608.22 3029.03 1685.51 3010.95 1685.51 3010.95 1682.39 3022.3 1682.39 3022.3 1611.34 3010.95 1611.34Z" fill-rule="evenodd"/><text fill="#000000" fill-opacity="0" font-family="Arial,Arial_MSFontService,sans-serif" font-size="77.2856" x="3010.95" y="1675.85">]</text><text font-family="Tw Cen MT,Tw Cen MT_MSFontService,sans-serif" font-weight="400" font-size="83" transform="matrix(1 0 0 1 3060.77 1667)">+ </text><path d="M3168.52 1632.3C3167.14 1632.3 3165.78 1632.76 3164.44 1633.7 3163.1 1634.63 3161.64 1636.12 3160.05 1638.17 3158.45 1640.23 3157.21 1642.25 3156.32 1644.25 3155.43 1646.25 3154.72 1648.55 3154.21 1651.14L3153.89 1652.84C3153.61 1654.28 3153.45 1655.37 3153.38 1656.13 3153.31 1656.88 3153.28 1657.63 3153.28 1658.36 3153.28 1660.46 3153.73 1662 3154.63 1662.96 3155.54 1663.91 3157.1 1664.39 3159.32 1664.39 3160.69 1664.39 3161.96 1664.12 3163.13 1663.58 3164.29 1663.04 3165.39 1662.26 3166.43 1661.23 3167.47 1660.21 3168.41 1658.96 3169.24 1657.5 3170.08 1656.05 3170.83 1654.35 3171.49 1652.42 3172.16 1650.49 3172.66 1648.5 3172.99 1646.46 3173.33 1644.42 3173.5 1642.51 3173.5 1640.73 3173.5 1637.89 3173.1 1635.78 3172.3 1634.38 3171.51 1632.99 3170.24 1632.3 3168.52 1632.3ZM3151.45 1627.51C3153.13 1627.51 3154.46 1628.07 3155.45 1629.18 3156.43 1630.28 3156.92 1631.76 3156.92 1633.59 3156.92 1635.11 3156.61 1636.7 3155.99 1638.38L3156.48 1638.54C3161.48 1631.22 3166.45 1627.56 3171.39 1627.56 3174.34 1627.56 3176.63 1628.68 3178.26 1630.92 3179.9 1633.16 3180.71 1636.32 3180.71 1640.4 3180.71 1644.86 3179.82 1649.24 3178.02 1653.55 3176.22 1657.86 3173.73 1661.28 3170.54 1663.81 3167.35 1666.33 3163.79 1667.6 3159.84 1667.6 3156.25 1667.6 3153.26 1666.81 3150.89 1665.25L3149.02 1674.12C3148.62 1676.04 3148.41 1677.62 3148.41 1678.86 3148.41 1680.05 3148.72 1680.9 3149.33 1681.4 3149.93 1681.9 3151.12 1682.23 3152.87 1682.39L3152.55 1684.37 3140.02 1684.37 3149.79 1641.38C3150.36 1638.89 3150.64 1636.85 3150.64 1635.26 3150.64 1634.17 3150.47 1633.39 3150.12 1632.9 3149.76 1632.42 3149.21 1632.18 3148.45 1632.18 3147.62 1632.18 3146.73 1632.52 3145.8 1633.21 3144.87 1633.9 3143.59 1635.15 3141.97 1636.96L3139.66 1634.69C3142.09 1632.15 3144.15 1630.32 3145.84 1629.2 3147.53 1628.08 3149.4 1627.51 3151.45 1627.51Z" fill-rule="evenodd"/><text fill="#000000" fill-opacity="0" font-family="Arial,Arial_MSFontService,sans-serif" font-size="56.8599" x="3139.66" y="1677.27">ğ‘</text><path d="M3235.11 1645.43 3236.93 1645.43C3236.89 1646.52 3236.86 1647.5 3236.84 1648.36 3236.82 1649.23 3236.8 1650.06 3236.79 1650.88 3236.78 1651.69 3236.78 1652.5 3236.78 1653.29L3236.78 1675.93C3236.78 1676.54 3236.8 1677.07 3236.84 1677.52 3236.88 1677.97 3236.94 1678.35 3237.03 1678.65 3237.12 1678.96 3237.24 1679.22 3237.39 1679.44 3237.54 1679.66 3237.71 1679.85 3237.91 1680.01 3238.15 1680.25 3238.47 1680.43 3238.86 1680.56 3239.26 1680.69 3239.77 1680.8 3240.38 1680.89 3241 1680.98 3241.74 1681.05 3242.6 1681.1 3243.47 1681.15 3244.5 1681.18 3245.71 1681.2L3245.71 1683.79 3222.09 1683.79 3222.09 1681.2C3223.27 1681.16 3224.26 1681.12 3225.07 1681.07 3225.89 1681.02 3226.58 1680.95 3227.16 1680.86 3227.73 1680.77 3228.2 1680.67 3228.54 1680.56 3228.89 1680.45 3229.19 1680.32 3229.45 1680.16 3229.73 1679.98 3229.97 1679.79 3230.17 1679.58 3230.37 1679.37 3230.52 1679.11 3230.64 1678.79 3230.76 1678.47 3230.86 1678.08 3230.93 1677.63 3231 1677.17 3231.03 1676.6 3231.03 1675.93L3231.03 1654.57C3231.03 1653.8 3230.88 1653.25 3230.58 1652.93 3230.29 1652.62 3229.86 1652.46 3229.3 1652.46 3228.69 1652.46 3227.77 1652.78 3226.56 1653.41 3225.35 1654.05 3223.78 1654.99 3221.86 1656.24 3221.6 1655.78 3221.36 1655.33 3221.14 1654.87 3220.92 1654.41 3220.7 1653.95 3220.46 1653.47 3222.92 1652.12 3225.36 1650.77 3227.77 1649.43 3230.18 1648.09 3232.63 1646.76 3235.11 1645.43ZM3200.11 1645.43 3201.93 1645.43C3201.89 1646.52 3201.86 1647.5 3201.84 1648.36 3201.82 1649.23 3201.8 1650.06 3201.79 1650.88 3201.78 1651.69 3201.78 1652.5 3201.78 1653.29L3201.78 1675.93C3201.78 1676.54 3201.8 1677.07 3201.84 1677.52 3201.88 1677.97 3201.94 1678.35 3202.03 1678.65 3202.12 1678.96 3202.24 1679.22 3202.39 1679.44 3202.54 1679.66 3202.71 1679.85 3202.91 1680.01 3203.15 1680.25 3203.47 1680.43 3203.86 1680.56 3204.26 1680.69 3204.77 1680.8 3205.38 1680.89 3206 1680.98 3206.74 1681.05 3207.6 1681.1 3208.47 1681.15 3209.5 1681.18 3210.71 1681.2L3210.71 1683.79 3187.09 1683.79 3187.09 1681.2C3188.27 1681.16 3189.26 1681.12 3190.07 1681.07 3190.89 1681.02 3191.58 1680.95 3192.16 1680.86 3192.73 1680.77 3193.2 1680.67 3193.54 1680.56 3193.89 1680.45 3194.19 1680.32 3194.45 1680.16 3194.73 1679.98 3194.97 1679.79 3195.17 1679.58 3195.37 1679.37 3195.52 1679.11 3195.64 1678.79 3195.76 1678.47 3195.86 1678.08 3195.93 1677.63 3196 1677.17 3196.03 1676.6 3196.03 1675.93L3196.03 1654.57C3196.03 1653.8 3195.88 1653.25 3195.58 1652.93 3195.29 1652.62 3194.86 1652.46 3194.3 1652.46 3193.69 1652.46 3192.77 1652.78 3191.56 1653.41 3190.35 1654.05 3188.78 1654.99 3186.86 1656.24 3186.6 1655.78 3186.36 1655.33 3186.14 1654.87 3185.92 1654.41 3185.7 1653.95 3185.46 1653.47 3187.92 1652.12 3190.36 1650.77 3192.77 1649.43 3195.18 1648.09 3197.63 1646.76 3200.11 1645.43Z" fill-rule="evenodd"/><text fill="#000000" fill-opacity="0" font-family="Arial,Arial_MSFontService,sans-serif" font-size="38.3633" x="3185.46" y="1679">11</text><path d="M3257.73 1657.55 3265.92 1657.55 3265.92 1666.95 3257.73 1666.95Z" fill-rule="evenodd"/><text fill="#000000" fill-opacity="0" font-family="Arial,Arial_MSFontService,sans-serif" font-size="9.40234" x="3257.73" y="1665.77">.</text><path d="M3285.35 1629.82 3302.82 1629.82 3302.82 1631.32C3301.71 1631.32 3300.93 1631.51 3300.49 1631.89 3300.04 1632.27 3299.82 1632.77 3299.82 1633.39 3299.82 1634.04 3300.29 1635.04 3301.23 1636.39 3301.53 1636.82 3301.98 1637.5 3302.57 1638.42L3305.21 1642.63 3308.25 1638.42C3310.19 1635.74 3311.16 1634.05 3311.16 1633.35 3311.16 1632.78 3310.93 1632.3 3310.48 1631.91 3310.02 1631.52 3309.27 1631.32 3308.25 1631.32L3308.25 1629.82 3320.81 1629.82 3320.81 1631.32C3319.49 1631.41 3318.34 1631.77 3317.36 1632.42 3316.04 1633.34 3314.23 1635.34 3311.93 1638.42L3306.87 1645.18 3316.11 1658.48C3318.38 1661.75 3320 1663.71 3320.97 1664.37 3321.94 1665.04 3323.2 1665.41 3324.74 1665.49L3324.74 1666.95 3307.23 1666.95 3307.23 1665.49C3308.45 1665.49 3309.39 1665.22 3310.07 1664.68 3310.58 1664.3 3310.84 1663.8 3310.84 1663.18 3310.84 1662.56 3309.98 1660.99 3308.25 1658.48L3302.82 1650.53 3296.86 1658.48C3295.02 1660.94 3294.1 1662.4 3294.1 1662.85 3294.1 1663.5 3294.41 1664.09 3295.01 1664.62 3295.62 1665.14 3296.53 1665.43 3297.75 1665.49L3297.75 1666.95 3285.63 1666.95 3285.63 1665.49C3286.6 1665.35 3287.46 1665.02 3288.19 1664.48 3289.21 1663.69 3290.94 1661.69 3293.37 1658.48L3301.15 1648.14 3294.1 1637.93C3292.1 1635.01 3290.56 1633.18 3289.46 1632.44 3288.37 1631.7 3287 1631.32 3285.35 1631.32Z" fill-rule="evenodd"/><text fill="#000000" fill-opacity="0" font-family="Arial,Arial_MSFontService,sans-serif" font-size="37.123" x="3285.35" y="1662.31">x</text><path d="M3453.46 1658.24C3451.22 1658.24 3449.21 1659.11 3447.44 1660.86 3445.67 1662.6 3444.64 1665.02 3444.34 1668.13L3461.52 1668.13C3461.39 1665.75 3461.1 1664.08 3460.67 1663.11 3460 1661.59 3458.99 1660.4 3457.65 1659.54 3456.31 1658.67 3454.92 1658.24 3453.46 1658.24ZM3383.38 1655.41 3385.12 1655.41 3385.12 1663.31C3387.82 1660.61 3389.42 1659.05 3389.9 1658.65 3391.12 1657.62 3392.43 1656.82 3393.83 1656.26 3395.24 1655.69 3396.63 1655.41 3398.01 1655.41 3400.33 1655.41 3402.33 1656.08 3404.01 1657.43 3405.68 1658.78 3406.8 1660.74 3407.37 1663.31 3410.15 1660.07 3412.5 1657.94 3414.42 1656.93 3416.34 1655.91 3418.31 1655.41 3420.34 1655.41 3422.31 1655.41 3424.06 1655.91 3425.59 1656.93 3427.11 1657.94 3428.32 1659.59 3429.21 1661.89 3429.81 1663.46 3430.11 1665.92 3430.11 1669.27L3430.11 1685.23C3430.11 1687.56 3430.28 1689.15 3430.63 1690.02 3430.9 1690.61 3431.4 1691.12 3432.13 1691.54 3432.86 1691.95 3434.05 1692.16 3435.7 1692.16L3435.7 1693.62 3417.38 1693.62 3417.38 1692.16 3418.15 1692.16C3419.74 1692.16 3420.99 1691.85 3421.88 1691.23 3422.5 1690.8 3422.95 1690.11 3423.22 1689.16 3423.32 1688.71 3423.38 1687.4 3423.38 1685.23L3423.38 1669.27C3423.38 1666.24 3423.01 1664.11 3422.28 1662.86 3421.23 1661.13 3419.54 1660.27 3417.22 1660.27 3415.79 1660.27 3414.35 1660.63 3412.9 1661.34 3411.46 1662.06 3409.71 1663.39 3407.65 1665.33L3407.57 1665.78 3407.65 1667.52 3407.65 1685.23C3407.65 1687.77 3407.8 1689.35 3408.08 1689.98 3408.36 1690.6 3408.9 1691.12 3409.68 1691.54 3410.46 1691.95 3411.8 1692.16 3413.69 1692.16L3413.69 1693.62 3394.93 1693.62 3394.93 1692.16C3396.98 1692.16 3398.39 1691.92 3399.16 1691.43 3399.93 1690.95 3400.47 1690.22 3400.76 1689.25 3400.9 1688.79 3400.97 1687.45 3400.97 1685.23L3400.97 1669.27C3400.97 1666.24 3400.52 1664.06 3399.63 1662.74 3398.44 1661.01 3396.78 1660.15 3394.65 1660.15 3393.19 1660.15 3391.74 1660.54 3390.31 1661.32 3388.07 1662.51 3386.34 1663.85 3385.12 1665.33L3385.12 1685.23C3385.12 1687.67 3385.29 1689.25 3385.63 1689.98 3385.97 1690.7 3386.47 1691.25 3387.13 1691.62 3387.79 1691.98 3389.13 1692.16 3391.16 1692.16L3391.16 1693.62 3372.8 1693.62 3372.8 1692.16C3374.5 1692.16 3375.69 1691.98 3376.37 1691.62 3377.04 1691.25 3377.56 1690.67 3377.91 1689.87 3378.26 1689.08 3378.43 1687.53 3378.43 1685.23L3378.43 1671.05C3378.43 1666.97 3378.31 1664.34 3378.07 1663.15 3377.88 1662.25 3377.58 1661.64 3377.18 1661.3 3376.77 1660.96 3376.22 1660.8 3375.52 1660.8 3374.76 1660.8 3373.85 1661 3372.8 1661.4L3372.19 1659.94ZM3362.12 1655.41 3363.9 1655.41 3363.9 1685.23C3363.9 1687.56 3364.07 1689.1 3364.41 1689.87 3364.75 1690.64 3365.25 1691.22 3365.91 1691.6 3366.57 1691.97 3367.78 1692.16 3369.54 1692.16L3369.54 1693.62 3351.5 1693.62 3351.5 1692.16C3353.31 1692.16 3354.53 1691.99 3355.15 1691.64 3355.77 1691.29 3356.26 1690.7 3356.63 1689.89 3356.99 1689.08 3357.18 1687.53 3357.18 1685.23L3357.18 1670.93C3357.18 1666.9 3357.06 1664.29 3356.81 1663.11 3356.62 1662.24 3356.33 1661.64 3355.92 1661.3 3355.52 1660.96 3354.96 1660.8 3354.26 1660.8 3353.5 1660.8 3352.58 1661 3351.5 1661.4L3350.94 1659.94ZM3455.73 1655.36C3459.89 1655.36 3463.31 1656.74 3465.98 1659.48 3468.66 1662.22 3469.99 1665.89 3469.99 1670.48L3444.34 1670.48C3444.31 1675.99 3445.65 1680.32 3448.35 1683.45 3451.05 1686.58 3454.23 1688.15 3457.88 1688.15 3460.31 1688.15 3462.42 1687.48 3464.22 1686.15 3466.01 1684.81 3467.52 1682.52 3468.74 1679.28L3469.99 1680.09C3469.43 1683.79 3467.78 1687.16 3465.05 1690.2 3462.32 1693.24 3458.9 1694.76 3454.79 1694.76 3450.34 1694.76 3446.52 1693.02 3443.35 1689.55 3440.17 1686.08 3438.58 1681.41 3438.58 1675.55 3438.58 1669.2 3440.21 1664.25 3443.47 1660.69 3446.72 1657.14 3450.81 1655.36 3455.73 1655.36ZM3337.62 1644.3 3338.88 1644.3 3338.88 1656.5 3347.55 1656.5 3347.55 1659.34 3338.88 1659.34 3338.88 1683.41C3338.88 1685.81 3339.22 1687.44 3339.91 1688.27 3340.6 1689.11 3341.49 1689.53 3342.57 1689.53 3343.46 1689.53 3344.32 1689.25 3345.16 1688.7 3346 1688.14 3346.65 1687.33 3347.1 1686.25L3348.69 1686.25C3347.74 1688.89 3346.4 1690.89 3344.67 1692.22 3342.94 1693.56 3341.16 1694.23 3339.32 1694.23 3338.08 1694.23 3336.86 1693.89 3335.68 1693.2 3334.49 1692.51 3333.61 1691.52 3333.04 1690.24 3332.47 1688.96 3332.19 1686.98 3332.19 1684.3L3332.19 1659.34 3326.31 1659.34 3326.31 1658C3327.8 1657.4 3329.32 1656.4 3330.87 1654.98 3332.43 1653.56 3333.81 1651.88 3335.03 1649.93 3335.65 1648.91 3336.51 1647.03 3337.62 1644.3ZM3360.54 1635.99C3361.68 1635.99 3362.64 1636.39 3363.44 1637.19 3364.24 1637.99 3364.63 1638.95 3364.63 1640.09 3364.63 1641.22 3364.24 1642.19 3363.44 1643 3362.64 1643.81 3361.68 1644.22 3360.54 1644.22 3359.41 1644.22 3358.43 1643.81 3357.62 1643 3356.81 1642.19 3356.41 1641.22 3356.41 1640.09 3356.41 1638.95 3356.81 1637.99 3357.6 1637.19 3358.4 1636.39 3359.38 1635.99 3360.54 1635.99Z" fill-rule="evenodd"/><text fill="#000000" fill-opacity="0" font-family="Arial,Arial_MSFontService,sans-serif" font-size="58.7646" x="3326.31" y="1687.41">time</text><path d="M3484.83 1608.22 3502.9 1608.22 3502.9 1611.34 3491.55 1611.34 3491.55 1682.39 3502.9 1682.39 3502.9 1685.51 3484.83 1685.51Z" fill-rule="evenodd"/><text fill="#000000" fill-opacity="0" font-family="Arial,Arial_MSFontService,sans-serif" font-size="77.2856" x="3484.83" y="1675.85">[</text><path d="M3530.41 1610.98 3532.64 1610.98C3532.48 1613.57 3532.4 1617.17 3532.4 1621.76L3532.4 1656.37C3532.4 1657.94 3532.49 1659.12 3532.66 1659.92 3532.84 1660.71 3533.15 1661.36 3533.59 1661.86 3534.04 1662.36 3534.68 1662.75 3535.52 1663.04 3536.36 1663.32 3537.41 1663.54 3538.68 1663.69 3539.95 1663.83 3541.62 1663.94 3543.7 1663.99L3543.7 1666.95 3513.75 1666.95 3513.75 1663.99C3516.75 1663.85 3518.9 1663.67 3520.18 1663.44 3521.46 1663.21 3522.44 1662.87 3523.12 1662.41 3523.79 1661.95 3524.29 1661.3 3524.6 1660.46 3524.91 1659.63 3525.06 1658.26 3525.06 1656.37L3525.06 1623.5C3525.06 1622.42 3524.87 1621.63 3524.49 1621.13 3524.12 1620.63 3523.56 1620.38 3522.83 1620.38 3521.97 1620.38 3520.74 1620.83 3519.15 1621.72 3517.55 1622.61 3515.58 1623.84 3513.23 1625.41L3511.44 1622.29Z" fill-rule="evenodd"/><text fill="#000000" fill-opacity="0" font-family="Arial,Arial_MSFontService,sans-serif" font-size="55.9683" x="3511.44" y="1659.95">1</text><path d="M3551.81 1608.22 3569.88 1608.22 3569.88 1685.51 3551.81 1685.51 3551.81 1682.39 3563.15 1682.39 3563.15 1611.34 3551.81 1611.34Z" fill-rule="evenodd"/><text fill="#000000" fill-opacity="0" font-family="Arial,Arial_MSFontService,sans-serif" font-size="77.2856" x="3551.81" y="1675.85">]</text></g></svg>